ply
format ascii 1.0
element vertex 14
property float x
property float y
property float z
property uchar red
property uchar green
property uchar blue
element face 24
property list uchar int vertex_index
end_header
173.8542232 104.4758242 13.58801571 200 200 200
173.8542232 104.4758242 10.1870795 200 200 200
173.8542232 104.4758242 10.17244129 200 200 200
173.8542232 104.4759187 10.17244129 200 200 200
173.8542232 104.4759187 13.58801571 200 200 200
173.8542232 104.235628 10.18088529 200 200 200
173.8542232 104.235628 10.17244129 200 200 200
174.2919488 104.4720043 13.58801571 200 200 200
174.2919488 104.4720043 10.18499059 200 200 200
174.2919488 104.4720043 10.17244129 200 200 200
174.2919488 104.4759187 10.17244129 200 200 200
174.2919488 104.4759187 13.58801571 200 200 200
174.2919488 104.235628 10.17889489 200 200 200
174.2919488 104.235628 10.17244129 200 200 200
3 0 1 2
3 0 2 3
3 0 3 4
3 1 5 6
3 1 6 2
3 7 8 9
3 7 9 10
3 7 10 11
3 8 12 13
3 8 13 9
3 12 13 6
3 12 6 5
3 4 11 10
3 4 10 3
3 9 2 6
3 9 6 13
3 2 9 10
3 2 10 3
3 7 11 4
3 7 4 0
3 0 7 8
3 0 8 1
3 8 12 5
3 8 5 1

