ply
format ascii 1.0
element vertex 8
property float x
property float y
property float z
property uchar red
property uchar green
property uchar blue
element face 12
property list uchar int vertex_index
end_header
96.30773601 91.41140002 13.28545368 200 200 200
96.30773601 91.4114 13.28545368 200 200 200
96.30773601 91.4114 10.21793432 200 200 200
96.30773601 91.41140002 10.21793432 200 200 200
98.43660299 91.4114 10.21793432 200 200 200
98.43660299 91.41140002 10.21793432 200 200 200
98.43660299 91.41140002 13.28545368 200 200 200
98.43660299 91.4114 13.28545368 200 200 200
3 0 1 2
3 0 2 3
3 4 5 6
3 4 6 7
3 6 5 3
3 6 3 0
3 4 5 3
3 4 3 2
3 0 1 7
3 0 7 6
3 7 4 2
3 7 2 1

