ply
format ascii 1.0
element vertex 100
property float x
property float y
property float z
property uchar red
property uchar green
property uchar blue
element face 198
property list uchar int vertex_index
end_header
154.1083344 87.75954821 13.58665762 200 200 200
154.1083344 87.7591 13.58665762 200 200 200
154.1083344 87.7591 11.62861564 200 200 200
154.1083344 87.7591 10.34514738 200 200 200
154.1083344 87.75954821 10.34514738 200 200 200
155.7781406 87.75954821 13.58665762 200 200 200
155.7781406 87.7591 13.58665762 200 200 200
155.7781406 87.7591 10.34514738 200 200 200
155.7781406 87.75954821 10.34514738 200 200 200
154.371532 87.59732089 10.34514738 200 200 200
154.4009683 87.56285542 10.34514738 200 200 200
154.4104981 87.57527493 10.34514738 200 200 200
154.1901531 87.7591 10.34514738 200 200 200
154.3003393 87.7591 10.34514738 200 200 200
154.5193052 87.7591 10.34514738 200 200 200
154.5308772 87.7591 10.34514738 200 200 200
154.5515521 87.7591 10.34514738 200 200 200
154.6138793 87.7591 10.34514738 200 200 200
154.8272012 87.7591 10.34514738 200 200 200
154.436664 87.62745277 10.34514738 200 200 200
154.4446316 87.61975854 10.34514738 200 200 200
154.4491085 87.62559293 10.34514738 200 200 200
154.4307466 87.57112798 13.58665762 200 200 200
154.4311567 87.57106668 13.58665762 200 200 200
154.4281298 87.57461081 13.58665762 200 200 200
154.3898032 87.61948548 13.58665762 200 200 200
154.3138489 87.66245835 13.58665762 200 200 200
154.4251077 87.57553354 13.58665762 200 200 200
154.1430354 87.7591 13.58665762 200 200 200
154.1901531 87.7591 13.58665762 200 200 200
154.2705612 87.7591 13.58665762 200 200 200
154.5193052 87.7591 13.58665762 200 200 200
154.6021956 87.7591 13.58665762 200 200 200
154.6228705 87.7591 13.58665762 200 200 200
154.6538849 87.7591 13.58665762 200 200 200
154.7679165 87.7591 13.58665762 200 200 200
154.4493837 87.56834264 13.58665762 200 200 200
154.4551599 87.56747938 13.58665762 200 200 200
154.4632012 87.57795891 13.58665762 200 200 200
154.4490461 87.58596746 13.58665762 200 200 200
154.1901531 87.7591 13.26816336 200 200 200
154.2489923 87.7591 11.70727841 200 200 200
154.3815956 87.6095289 12.13053473 200 200 200
154.3804036 87.60808295 11.9190682 200 200 200
154.3790818 87.60647941 11.684555 200 200 200
154.4271795 87.57391487 11.15077018 200 200 200
154.4172032 87.58170922 11.36519765 200 200 200
154.4398091 87.57288515 11.76071411 200 200 200
154.4275748 87.5808636 11.86609318 200 200 200
154.4054732 87.5952769 12.05646359 200 200 200
154.3953396 87.60188538 12.14374829 200 200 200
154.382303 87.61038706 12.25603817 200 200 200
154.3713786 87.61751125 12.35013429 200 200 200
154.462603 87.57102673 12.86153731 200 200 200
154.4507789 87.57199077 12.29049468 200 200 200
154.4489255 87.57214188 12.20098496 200 200 200
154.4489663 87.57681518 12.66936814 200 200 200
154.4489908 87.57962332 12.95081426 200 200 200
154.442247 87.57966735 12.57467992 200 200 200
154.4489863 87.57911788 12.90015629 200 200 200
154.4714459 87.57030575 13.28860395 200 200 200
154.4773439 87.56982488 13.57344325 200 200 200
154.4769446 87.5680241 13.37132031 200 200 200
154.4505078 87.57899383 12.97363511 200 200 200
154.3931293 87.60051782 12.23995278 200 200 200
154.4135685 87.58454892 12.97168173 200 200 200
154.4261676 87.57470545 13.42273063 200 200 200
154.4170984 87.58179113 13.15980166 200 200 200
154.3865239 87.60567846 12.27341319 200 200 200
154.4278273 87.57340876 13.48214738 200 200 200
154.4288819 87.59356754 11.48243685 200 200 200
154.4570374 87.57681515 12.40669662 200 200 200
154.4562966 87.57758563 12.34615445 200 200 200
154.4656991 87.58452965 12.53133188 200 200 200
154.4501196 87.57995479 12.92247431 200 200 200
154.432076 87.62461419 10.54483424 200 200 200
154.4816417 87.58921112 12.13107456 200 200 200
154.4662807 87.58470042 12.51673112 200 200 200
154.4660188 87.58373846 12.57345407 200 200 200
154.4341104 87.57525377 13.32440238 200 200 200
154.4279116 87.57343351 13.48003156 200 200 200
154.4834908 87.59755183 12.8699019 200 200 200
154.425773 87.56189471 12.43497788 200 200 200
154.4257901 87.5619868 12.44331874 200 200 200
154.4343527 87.56831056 12.61195548 200 200 200
154.4388802 87.56477329 12.0081934 200 200 200
154.4278969 87.57335438 13.47286475 200 200 200
154.4453544 87.57643556 12.8286264 200 200 200
154.4389767 87.56479449 12.0050506 200 200 200
154.4418397 87.59262133 11.16468574 200 200 200
154.4833985 87.5971357 12.89614484 200 200 200
154.4243017 87.55395661 11.71603492 200 200 200
154.4389132 87.56474754 12.00379871 200 200 200
154.4263637 87.55317024 11.83717646 200 200 200
154.4387643 87.56272929 12.06741915 200 200 200
154.4389675 87.56470506 12.00775107 200 200 200
154.4338578 87.5528758 12.4682582 200 200 200
154.395174 87.59602897 12.30902039 200 200 200
154.4112045 87.58561863 12.93108972 200 200 200
154.3918562 87.59973016 12.29536278 200 200 200
3 0 1 2
3 0 2 3
3 0 3 4
3 5 6 7
3 5 7 8
3 5 8 4
3 5 4 0
3 9 10 11
3 12 13 14
3 12 14 15
3 12 15 16
3 12 16 17
3 12 17 18
3 12 18 7
3 12 7 8
3 12 8 4
3 12 4 3
3 19 20 21
3 22 23 24
3 22 24 25
3 22 25 26
3 22 26 27
3 28 29 30
3 28 30 31
3 28 31 32
3 28 32 33
3 28 33 34
3 28 34 35
3 28 35 6
3 28 6 5
3 28 5 0
3 28 0 1
3 24 23 36
3 24 36 37
3 24 37 38
3 24 38 39
3 2 28 29
3 2 29 40
3 2 40 12
3 2 12 3
3 17 34 35
3 17 35 18
3 34 17 16
3 34 16 33
3 41 13 12
3 41 12 40
3 32 33 16
3 32 16 15
3 15 14 31
3 15 31 32
3 14 13 41
3 14 41 30
3 14 30 31
3 29 30 41
3 29 41 40
3 35 6 7
3 35 7 18
3 1 28 2
3 42 43 44
3 42 44 9
3 42 9 11
3 42 11 45
3 42 45 46
3 47 48 46
3 47 46 45
3 49 50 51
3 49 51 52
3 49 52 42
3 49 42 46
3 49 46 48
3 53 54 55
3 53 55 56
3 57 50 49
3 57 49 58
3 57 58 59
3 52 51 25
3 52 25 26
3 60 61 62
3 39 57 63
3 39 63 38
3 64 65 66
3 64 66 67
3 64 67 68
3 27 22 69
3 27 69 66
3 27 66 67
3 52 68 42
3 67 68 52
3 67 52 26
3 67 26 27
3 58 49 70
3 71 53 56
3 71 56 72
3 73 74 75
3 73 75 19
3 73 19 21
3 62 76 77
3 62 77 78
3 62 78 60
3 66 65 79
3 66 79 80
3 80 66 69
3 79 80 23
3 79 23 36
3 22 23 80
3 22 80 69
3 57 79 65
3 57 65 64
3 57 64 50
3 79 36 37
3 79 37 63
3 79 63 57
3 72 56 59
3 72 59 74
3 72 74 73
3 77 76 81
3 82 83 84
3 82 84 85
3 83 86 84
3 87 56 55
3 87 55 88
3 87 88 85
3 87 85 84
3 87 84 86
3 87 86 80
3 87 80 79
3 24 80 79
3 24 79 57
3 24 57 39
3 56 87 59
3 59 87 79
3 59 79 57
3 89 47 55
3 89 55 72
3 54 53 71
3 71 72 55
3 71 55 54
3 72 73 21
3 72 21 20
3 72 20 89
3 78 90 61
3 78 61 60
3 91 92 45
3 91 45 11
3 91 11 10
3 92 91 93
3 92 93 94
3 92 94 95
3 92 95 88
3 92 88 47
3 92 47 45
3 88 55 47
3 89 70 48
3 89 48 47
3 49 48 70
3 75 70 89
3 75 89 20
3 75 20 19
3 94 96 82
3 94 82 85
3 94 85 95
3 88 95 85
3 68 51 50
3 68 50 64
3 90 78 77
3 90 77 81
3 93 96 94
3 59 58 70
3 59 70 75
3 59 75 74
3 38 63 37
3 76 62 61
3 76 61 90
3 76 90 81
3 91 10 9
3 91 9 44
3 91 44 97
3 91 97 82
3 83 82 97
3 83 97 98
3 83 98 66
3 83 66 86
3 93 91 82
3 93 82 96
3 66 98 67
3 43 99 97
3 43 97 44
3 99 98 97
3 99 43 42
3 99 42 68
3 68 67 98
3 68 98 99
3 80 86 66
3 67 66 80
3 67 80 24
3 67 24 25
3 67 25 51
3 67 51 68

