ply
format ascii 1.0
element vertex 8
property float x
property float y
property float z
property uchar red
property uchar green
property uchar blue
element face 12
property list uchar int vertex_index
end_header
181.563101 95.9136 10.18133195 200 200 200
181.563101 96.3124 10.18133195 200 200 200
181.563101 96.3124 13.58454005 200 200 200
181.563101 95.9136 13.58454005 200 200 200
181.171 95.9136 10.18133195 200 200 200
181.171 96.3124 10.18133195 200 200 200
181.171 96.3124 13.58454005 200 200 200
181.171 95.9136 13.58454005 200 200 200
3 0 1 2
3 0 2 3
3 0 4 5
3 0 5 1
3 2 6 7
3 2 7 3
3 5 4 7
3 5 7 6
3 7 4 0
3 7 0 3
3 6 2 1
3 6 1 5

