ply
format ascii 1.0
element vertex 8
property float x
property float y
property float z
property uchar red
property uchar green
property uchar blue
element face 12
property list uchar int vertex_index
end_header
124.3762246 82.29924657 13.58738435 200 200 200
124.3762246 82.29924657 10.18101665 200 200 200
124.7702845 82.29924657 10.18101665 200 200 200
124.7702845 82.29924657 13.58738435 200 200 200
124.3833277 82.70618375 10.18101665 200 200 200
124.7772675 82.69930751 10.18101665 200 200 200
124.7772675 82.69930751 13.58738435 200 200 200
124.3833277 82.70618375 13.58738435 200 200 200
3 0 1 2
3 0 2 3
3 2 1 4
3 2 4 5
3 0 3 6
3 0 6 7
3 5 6 3
3 5 3 2
3 1 0 7
3 1 7 4
3 5 4 7
3 5 7 6

