ply
format ascii 1.0
element vertex 15
property float x
property float y
property float z
property uchar red
property uchar green
property uchar blue
element face 26
property list uchar int vertex_index
end_header
105.1107393 93.3352 13.23404025 200 200 200
105.1107393 93.3352 10.1768293 200 200 200
105.1107393 93.33578071 10.1768293 200 200 200
105.1107393 93.33578071 13.4248957 200 200 200
105.1107393 93.3352 13.4248957 200 200 200
107.1582197 93.3352 13.17295262 200 200 200
107.1582197 93.3352 12.64753734 200 200 200
107.1582197 93.3352 12.36497016 200 200 200
107.1582197 93.3352 10.1768293 200 200 200
107.1582197 93.33578071 10.1768293 200 200 200
107.1582197 93.33578071 13.4248957 200 200 200
107.1582197 93.3352 13.4248957 200 200 200
106.3238101 93.3352 13.4248957 200 200 200
105.1300366 93.3352 13.22584936 200 200 200
106.5780004 93.3352 13.18808524 200 200 200
3 0 1 2
3 0 2 3
3 0 3 4
3 5 6 7
3 5 7 8
3 5 8 9
3 5 9 10
3 5 10 11
3 10 9 2
3 10 2 3
3 1 8 9
3 1 9 2
3 12 11 10
3 12 10 3
3 12 3 4
3 0 13 7
3 0 7 8
3 0 8 1
3 7 13 14
3 7 14 6
3 14 13 0
3 14 0 4
3 14 4 12
3 5 6 14
3 5 14 12
3 5 12 11

