ply
format ascii 1.0
element vertex 177
property float x
property float y
property float z
property uchar red
property uchar green
property uchar blue
element face 364
property list uchar int vertex_index
end_header
95.85557014 96.49017916 13.58726872 200 200 200
95.85557014 96.49017916 13.2276846 200 200 200
95.85557014 96.44735516 12.88419059 200 200 200
95.85557014 96.44735516 13.58726872 200 200 200
95.85557014 96.49629118 10.23436933 200 200 200
95.85557014 96.53873346 10.21382312 200 200 200
95.85557014 96.54314892 10.19144679 200 200 200
95.85557014 96.49017916 10.23996805 200 200 200
95.85557014 96.49017916 10.45988301 200 200 200
95.85557014 96.49017916 10.23732814 200 200 200
95.85557014 96.5595818 10.82139912 200 200 200
95.85557014 96.57223924 11.53440118 200 200 200
95.85557014 96.57223924 10.56032312 200 200 200
95.85557014 96.56544696 10.17770928 200 200 200
95.85557014 96.5595818 10.17770928 200 200 200
95.85557014 96.57223924 10.17770928 200 200 200
95.85557014 96.57223924 10.19760305 200 200 200
95.85557014 96.59671984 11.93933083 200 200 200
95.85557014 96.59671984 10.18575206 200 200 200
97.98386986 96.44735516 13.58726872 200 200 200
97.98386986 96.44735516 10.22814454 200 200 200
97.98386986 96.47160576 10.20593056 200 200 200
97.98386986 96.47160576 13.58726872 200 200 200
96.26404724 96.44735516 13.58726872 200 200 200
96.26404724 96.44735516 10.26939755 200 200 200
96.04336515 96.44735516 12.44589035 200 200 200
96.02009708 96.44735516 10.27524912 200 200 200
96.05560009 96.44735516 13.58726872 200 200 200
96.0282829 96.44735516 13.58726872 200 200 200
96.01414762 96.44735516 12.18453209 200 200 200
95.95399111 96.44735516 13.58726872 200 200 200
95.96970442 96.44735516 11.78697629 200 200 200
95.86907011 96.44735516 12.59457128 200 200 200
95.92525019 96.44735516 11.38932192 200 200 200
95.94981131 96.59671984 10.21839447 200 200 200
95.93795675 96.59671984 10.18085502 200 200 200
95.92585403 96.59671984 10.18157441 200 200 200
95.94981131 96.59671984 11.45414627 200 200 200
95.94094951 96.59671984 12.83071569 200 200 200
95.94981131 96.59671984 12.9232354 200 200 200
95.91256065 96.59671984 10.18236456 200 200 200
95.94905934 96.59671984 13.58726872 200 200 200
95.94981131 96.59671984 13.58726872 200 200 200
95.92970031 96.59671984 12.49191583 200 200 200
95.93113901 96.59671984 12.50478537 200 200 200
95.90773902 96.59671984 10.18265116 200 200 200
95.90593242 96.59671984 10.18275854 200 200 200
95.8888743 96.59671984 12.12671674 200 200 200
95.88758557 96.59671984 12.27358103 200 200 200
95.87975543 96.59671984 13.16591024 200 200 200
95.87605804 96.59671984 13.58726872 200 200 200
95.87864281 96.59671984 13.58726872 200 200 200
95.87444135 96.55765174 10.17770928 200 200 200
95.87722761 96.5593928 10.17770928 200 200 200
95.8797457 96.56096627 10.17770928 200 200 200
95.88391693 96.56357275 10.17770928 200 200 200
95.90598541 96.55682573 10.17770928 200 200 200
95.95325849 96.48932665 13.58726872 200 200 200
95.8648517 96.49009816 13.58726872 200 200 200
96.00430785 96.48888114 13.58726872 200 200 200
95.9523276 96.54265749 13.58726872 200 200 200
95.9777469 96.53488603 13.58726872 200 200 200
96.02611566 96.48869083 13.58726872 200 200 200
95.87504729 96.58710318 13.58726872 200 200 200
95.95167502 96.58004382 13.58726872 200 200 200
95.95204688 96.55873986 13.58726872 200 200 200
95.99746499 96.5288576 13.58726872 200 200 200
96.13186295 96.48776799 13.58726872 200 200 200
96.05811961 96.48841154 13.58726872 200 200 200
96.03364234 96.48862515 13.58726872 200 200 200
95.95144226 96.59337911 13.58726872 200 200 200
95.95141188 96.59511927 13.58726872 200 200 200
95.95148543 96.59090554 13.58726872 200 200 200
96.02019506 96.52190831 13.58726872 200 200 200
96.02657266 96.51995848 13.58726872 200 200 200
96.82956292 96.48167925 13.58726872 200 200 200
96.6244594 96.48346916 13.58726872 200 200 200
95.96585045 96.5806807 11.9618995 200 200 200
95.97918949 96.56734166 10.46030593 200 200 200
95.96247177 96.58405938 12.34224243 200 200 200
95.9997855 96.54674564 10.62990157 200 200 200
96.02657266 96.51995848 10.85047757 200 200 200
96.01242228 96.48881033 12.46406779 200 200 200
96.01416736 96.4887951 12.47956962 200 200 200
95.99100526 96.48899723 12.27381699 200 200 200
95.92650763 96.4895601 11.70087419 200 200 200
95.92578895 96.46543808 11.52280805 200 200 200
95.88373115 96.46671568 11.15568096 200 200 200
95.88464936 96.48992539 11.32904047 200 200 200
95.96661562 96.48921008 12.0571599 200 200 200
95.96846561 96.46414168 11.89533728 200 200 200
96.01093931 96.49337661 12.48329313 200 200 200
95.96299662 96.53939565 12.38187639 200 200 200
95.98277588 96.53334851 12.51577929 200 200 200
95.96291009 96.5394221 12.38129064 200 200 200
95.88739408 96.55930407 11.84724842 200 200 200
95.88751938 96.56247137 11.8709058 200 200 200
95.89818722 96.55920988 11.94312559 200 200 200
95.9337062 96.59210046 12.49488094 200 200 200
95.92956642 96.59222621 12.4587444 200 200 200
95.92857485 96.55894469 12.21306381 200 200 200
95.92830838 96.55000091 12.14704177 200 200 200
95.96289909 96.53957112 12.38225263 200 200 200
95.95224715 96.55873811 12.42334862 200 200 200
95.94489449 96.5719684 12.45171572 200 200 200
95.92897728 96.57245192 12.31277268 200 200 200
95.88875852 96.56209253 10.20054235 200 200 200
95.9083655 96.55609807 10.20227882 200 200 200
95.94756328 96.5441141 10.20575033 200 200 200
95.95111187 96.54302918 10.2060646 200 200 200
96.05140702 96.51236585 10.21494714 200 200 200
95.90047435 96.55851063 10.25579452 200 200 200
95.90122073 96.55828244 10.25931445 200 200 200
95.93921568 96.54666621 10.43849966 200 200 200
95.95406687 96.54212574 10.50853829 200 200 200
95.95534086 96.54173625 10.51454645 200 200 200
95.95736094 96.54111865 10.66190038 200 200 200
95.96294323 96.53941197 12.37751396 200 200 200
95.9699437 96.53727171 11.57974268 200 200 200
95.89251009 96.56094556 11.28388411 200 200 200
95.89818722 96.55920988 11.24538336 200 200 200
95.94518889 96.54484002 10.92663033 200 200 200
95.89818722 96.55920988 10.61612496 200 200 200
95.89818722 96.55920988 10.27130529 200 200 200
96.13186295 96.48776799 10.23554935 200 200 200
96.13186295 96.48776799 10.22207263 200 200 200
96.13186295 96.48776799 11.34702941 200 200 200
95.98998651 96.48900613 10.23781835 200 200 200
95.97036881 96.48917733 10.23813209 200 200 200
95.89420257 96.48984202 10.2393502 200 200 200
95.99729024 96.48894239 10.91493097 200 200 200
96.05811961 96.48841154 11.11024751 200 200 200
95.98224239 96.48907371 10.86661395 200 200 200
95.97656866 96.48912322 10.8483962 200 200 200
95.8912644 96.48986766 10.57449344 200 200 200
95.87542747 96.49000587 12.38093938 200 200 200
95.88875199 96.48988959 12.51350095 200 200 200
95.9567284 96.48929636 13.18977743 200 200 200
95.87089602 96.49004541 12.89782068 200 200 200
96.28730904 96.48641143 10.23306333 200 200 200
96.52671753 96.48432214 12.61486483 200 200 200
95.89428431 96.55924394 10.23247652 200 200 200
95.97871786 96.54924144 10.55053933 200 200 200
95.96662225 96.57516425 11.88450621 200 200 200
95.90124073 96.55841985 10.25868146 200 200 200
95.9009677 96.55918562 10.29896751 200 200 200
95.88874558 96.59346624 12.10241478 200 200 200
95.93411398 96.55452548 10.38251564 200 200 200
95.93406654 96.55889677 10.62825766 200 200 200
95.91651884 96.58163114 10.18943369 200 200 200
95.94503738 96.55880103 11.71148129 200 200 200
95.89311313 96.55925416 11.19490281 200 200 200
95.88482852 96.55932646 10.20211499 200 200 200
95.87386334 96.55942215 13.39063709 200 200 200
95.89818722 96.55920988 12.86710657 200 200 200
95.95983124 96.53891744 10.74587795 200 200 200
95.95964604 96.54042002 10.82858574 200 200 200
95.94632845 96.55307849 10.42852781 200 200 200
95.94562376 96.55879591 10.74323691 200 200 200
95.9210864 96.58484594 10.18760592 200 200 200
95.95739381 96.55869319 11.83441163 200 200 200
95.95212287 96.54578613 10.48383245 200 200 200
95.95411927 96.58526081 13.29679558 200 200 200
95.97833908 96.53470498 10.62300668 200 200 200
95.95737039 96.53590551 10.55052189 200 200 200
95.89897106 96.54282384 10.33053045 200 200 200
95.9452703 96.53733896 10.5049406 200 200 200
95.86100029 96.54732208 10.18749385 200 200 200
95.86679709 96.54663536 10.2093305 200 200 200
95.94837897 96.55283557 10.43625215 200 200 200
95.92857811 96.59011885 10.18460801 200 200 200
95.90326063 96.57229958 10.19473914 200 200 200
95.97748559 96.50629824 10.22227832 200 200 200
95.96363812 96.50516161 10.22365165 200 200 200
95.95759657 96.55869143 12.95153207 200 200 200
95.87416834 96.56655319 13.44129231 200 200 200
95.88796351 96.57369781 11.95475905 200 200 200
3 0 1 2
3 0 2 3
3 4 5 6
3 4 7 8
3 4 8 5
3 4 9 7
3 10 11 12
3 10 12 13
3 10 13 14
3 15 13 12
3 15 12 16
3 17 18 16
3 17 16 12
3 19 20 21
3 19 21 22
3 23 24 20
3 23 20 19
3 25 26 24
3 25 24 23
3 25 23 27
3 27 28 29
3 27 29 25
3 28 30 31
3 28 31 29
3 32 33 31
3 32 31 30
3 32 30 3
3 32 3 2
3 34 35 36
3 34 36 37
3 38 39 37
3 38 37 36
3 38 36 40
3 39 38 41
3 39 41 42
3 43 44 45
3 43 45 46
3 43 46 47
3 48 47 46
3 48 46 18
3 48 18 17
3 48 49 50
3 48 50 51
3 48 51 43
3 48 43 47
3 52 53 54
3 52 54 55
3 52 55 56
3 54 53 14
3 54 14 13
3 54 13 15
3 54 15 55
3 0 3 30
3 0 30 57
3 0 57 58
3 59 57 30
3 59 30 28
3 60 57 59
3 60 59 61
3 62 59 28
3 62 28 27
3 63 51 50
3 61 64 65
3 61 65 60
3 66 61 59
3 66 59 62
3 67 68 69
3 67 69 62
3 67 62 27
3 67 27 23
3 42 41 70
3 42 70 71
3 64 61 66
3 64 66 70
3 64 70 72
3 66 62 69
3 66 69 73
3 68 74 73
3 68 73 69
3 68 67 74
3 67 23 19
3 67 19 22
3 67 22 75
3 67 75 76
3 66 73 74
3 66 74 71
3 66 71 70
3 37 77 78
3 37 78 34
3 37 39 79
3 37 79 77
3 80 79 71
3 80 71 74
3 80 74 81
3 42 71 79
3 42 79 39
3 82 83 25
3 82 25 29
3 82 29 84
3 85 86 87
3 85 87 88
3 86 85 89
3 86 89 90
3 29 31 90
3 29 90 89
3 29 89 84
3 86 90 31
3 86 31 33
3 83 82 91
3 84 92 93
3 84 93 91
3 84 91 82
3 94 92 84
3 94 84 89
3 95 96 97
3 98 44 43
3 98 43 99
3 100 97 101
3 100 101 94
3 100 94 102
3 100 102 103
3 104 98 99
3 104 99 105
3 105 100 103
3 105 103 104
3 55 106 107
3 55 107 108
3 55 108 109
3 55 109 110
3 55 110 56
3 111 107 106
3 15 16 106
3 15 106 55
3 111 112 113
3 111 113 114
3 111 114 108
3 111 108 107
3 115 116 114
3 93 92 117
3 93 117 118
3 92 94 101
3 92 101 97
3 92 97 96
3 92 96 119
3 92 119 120
3 92 120 121
3 92 121 117
3 12 11 119
3 12 119 122
3 12 122 123
3 124 125 110
3 74 67 126
3 74 126 81
3 7 9 125
3 7 125 124
3 7 124 127
3 7 127 128
3 7 128 129
3 130 131 126
3 130 126 124
3 130 124 127
3 129 128 132
3 129 132 133
3 129 133 134
3 129 134 8
3 129 8 7
3 88 135 136
3 88 136 85
3 136 137 89
3 136 89 85
3 0 58 138
3 0 138 1
3 138 58 57
3 138 57 137
3 138 137 136
3 139 140 75
3 139 75 22
3 139 22 21
3 75 140 76
3 124 126 140
3 124 140 139
3 126 67 76
3 126 76 140
3 111 123 141
3 80 142 143
3 80 143 79
3 17 12 123
3 17 123 111
3 17 111 144
3 17 144 145
3 17 145 146
3 17 146 48
3 147 148 145
3 147 145 144
3 149 45 44
3 149 44 98
3 149 98 148
3 149 148 147
3 121 150 104
3 121 104 103
3 121 103 102
3 121 102 117
3 150 148 98
3 150 98 104
3 151 10 14
3 151 14 53
3 151 53 152
3 151 152 141
3 151 141 123
3 151 123 122
3 120 151 122
3 150 120 122
3 150 122 145
3 150 145 148
3 153 95 97
3 153 97 154
3 154 97 100
3 119 11 10
3 119 10 151
3 120 119 151
3 120 150 121
3 83 130 127
3 83 127 26
3 83 26 25
3 155 116 115
3 155 115 130
3 155 130 83
3 155 83 91
3 155 156 116
3 118 156 155
3 118 155 91
3 118 91 93
3 157 158 38
3 157 38 40
3 157 40 159
3 116 156 160
3 116 160 158
3 116 158 157
3 116 157 161
3 118 162 160
3 118 160 156
3 162 70 41
3 162 41 38
3 162 38 158
3 162 158 160
3 136 135 87
3 136 87 86
3 131 130 115
3 131 115 163
3 131 163 81
3 164 114 113
3 164 113 112
3 164 112 165
3 164 165 166
3 133 132 164
3 133 164 166
3 52 167 168
3 52 168 152
3 52 152 53
3 168 165 112
3 168 112 111
3 168 111 141
3 168 141 152
3 168 167 6
3 168 6 5
3 165 168 5
3 165 5 8
3 165 8 134
3 134 133 166
3 134 166 165
3 35 34 78
3 35 78 142
3 35 142 169
3 35 169 170
3 159 170 169
3 159 169 157
3 106 171 144
3 106 144 111
3 171 149 147
3 171 147 144
3 114 161 169
3 114 169 142
3 114 142 163
3 114 163 115
3 161 157 169
3 163 142 80
3 163 80 81
3 81 126 131
3 110 109 172
3 109 108 173
3 109 173 172
3 173 172 110
3 173 110 125
3 173 125 9
3 173 9 4
3 36 35 170
3 36 170 159
3 36 159 40
3 18 46 171
3 18 171 106
3 18 106 16
3 171 46 45
3 171 45 149
3 78 77 143
3 78 143 142
3 77 79 143
3 174 64 72
3 174 72 162
3 174 162 118
3 174 118 117
3 174 117 102
3 89 137 57
3 89 57 60
3 89 60 94
3 72 70 162
3 60 65 174
3 60 174 102
3 60 102 94
3 65 64 174
3 1 138 32
3 1 32 2
3 86 33 32
3 86 32 138
3 86 138 136
3 175 153 154
3 43 51 63
3 43 63 175
3 43 175 154
3 43 154 100
3 43 100 105
3 43 105 99
3 132 128 173
3 132 173 108
3 132 108 114
3 132 114 164
3 114 116 161
3 26 127 124
3 26 124 24
3 172 173 4
3 172 4 6
3 172 6 167
3 172 167 52
3 172 52 56
3 172 56 110
3 124 110 172
3 124 172 127
3 128 127 172
3 128 172 173
3 139 21 20
3 139 20 24
3 139 24 124
3 176 146 145
3 176 145 122
3 176 122 119
3 119 96 176
3 88 87 135
3 153 175 96
3 153 96 95
3 146 176 49
3 146 49 48
3 176 96 175
3 176 175 63
3 176 63 50
3 176 50 49

