ply
format ascii 1.0
element vertex 10
property float x
property float y
property float z
property uchar red
property uchar green
property uchar blue
element face 16
property list uchar int vertex_index
end_header
144.5844903 104.8860608 13.58721825 200 200 200
145.1335738 104.8860608 13.58721825 200 200 200
145.1335738 104.8860608 11.17360275 200 200 200
145.1335738 104.8860608 10.17488275 200 200 200
144.5844903 104.8860608 10.17488275 200 200 200
145.124837 104.385529 10.17488275 200 200 200
144.5758371 104.39032 10.17488275 200 200 200
144.5758371 104.39032 13.58721825 200 200 200
145.124837 104.385529 13.58721825 200 200 200
145.124837 104.385529 10.52415781 200 200 200
3 0 1 2
3 0 2 3
3 0 3 4
3 4 3 5
3 4 5 6
3 7 8 1
3 7 1 0
3 7 6 5
3 7 5 9
3 7 9 8
3 5 3 2
3 5 2 9
3 2 1 8
3 2 8 9
3 4 6 7
3 4 7 0

