ply
format ascii 1.0
element vertex 8
property float x
property float y
property float z
property uchar red
property uchar green
property uchar blue
element face 12
property list uchar int vertex_index
end_header
181.4468742 99.8871 13.58341827 200 200 200
181.4468742 99.8871 10.83856873 200 200 200
181.4468742 100.286 10.83856873 200 200 200
181.4468742 100.286 13.58341827 200 200 200
181.062 100.286 10.83856873 200 200 200
181.062 99.8871 10.83856873 200 200 200
181.062 100.286 13.58341827 200 200 200
181.062 99.8871 13.58341827 200 200 200
3 0 1 2
3 0 2 3
3 4 2 1
3 4 1 5
3 3 6 7
3 3 7 0
3 7 6 4
3 7 4 5
3 3 2 4
3 3 4 6
3 0 7 5
3 0 5 1

