ply
format ascii 1.0
element vertex 105
property float x
property float y
property float z
property uchar red
property uchar green
property uchar blue
element face 190
property list uchar int vertex_index
end_header
105.8813884 90.9729 10.49826175 200 200 200
105.8813884 90.9729 13.58420151 200 200 200
105.8813884 90.95482532 13.58420151 200 200 200
105.8813884 90.95482532 10.49095245 200 200 200
105.8813884 91.47283827 13.58420151 200 200 200
105.8813884 91.38774977 10.66602472 200 200 200
105.8813884 91.42666577 11.51690601 200 200 200
105.8813884 91.40784304 10.67415032 200 200 200
105.8813884 90.95482532 10.46561449 200 200 200
105.8813884 91.40318545 10.46561449 200 200 200
105.8813884 92.39059608 13.29711699 200 200 200
105.8813884 92.52436068 13.29464165 200 200 200
105.8813884 92.52436068 13.46525643 200 200 200
106.1725496 90.95482532 13.58420151 200 200 200
106.1725496 90.95482532 13.54049613 200 200 200
106.1725496 90.9729 11.49774889 200 200 200
106.1725496 90.9729 11.84930597 200 200 200
106.1725496 90.9729 13.17933441 200 200 200
106.1725496 90.9729 13.49624623 200 200 200
106.1725496 90.96129221 13.58420151 200 200 200
106.1725496 90.9729 13.58420151 200 200 200
106.1725496 90.9729 10.4721585 200 200 200
106.1725496 90.95482532 10.46561449 200 200 200
106.1725496 90.95671775 10.46561449 200 200 200
106.1725496 92.52436068 13.28601905 200 200 200
106.1725496 92.52436068 13.45886816 200 200 200
106.1725496 92.38884433 13.2885268 200 200 200
106.1702387 90.95482532 13.58420151 200 200 200
106.0717842 90.95482532 10.47388304 200 200 200
105.9017452 90.95482532 10.48912742 200 200 200
105.9017452 90.95482532 13.58420151 200 200 200
106.1640134 90.95482532 10.46561449 200 200 200
106.0717058 90.95482532 10.46561449 200 200 200
105.9017452 90.95482532 10.46561449 200 200 200
105.9051691 91.34716173 10.46561449 200 200 200
105.9019029 90.9729 13.58420151 200 200 200
105.9019667 90.9802132 13.58420151 200 200 200
105.905601 91.39665322 13.58420151 200 200 200
105.8987362 91.43196952 13.58420151 200 200 200
106.1021952 90.96621187 13.58420151 200 200 200
106.0065504 90.9729 13.58420151 200 200 200
105.9879703 90.9729 13.58420151 200 200 200
105.9057647 91.41541139 13.58420151 200 200 200
106.1361181 90.9729 13.58420151 200 200 200
106.0935994 90.9729 13.58420151 200 200 200
106.0641877 90.9729 10.48187338 200 200 200
106.1510862 90.9729 11.90367498 200 200 200
106.0888298 90.9729 13.08110223 200 200 200
106.079389 90.9729 12.08529209 200 200 200
106.1426049 90.9729 13.51211253 200 200 200
106.0931644 90.9729 13.5383088 200 200 200
105.9769516 90.9729 12.34477739 200 200 200
105.9604727 90.9729 10.49117167 200 200 200
106.0638333 90.9729 13.55384999 200 200 200
105.9019029 90.9729 12.53488405 200 200 200
105.9019029 90.9729 10.49642258 200 200 200
105.9058431 91.42439961 12.25032554 200 200 200
105.9058431 91.42439961 12.33847001 200 200 200
105.9056494 91.40220853 12.31058051 200 200 200
105.9056494 91.40220853 12.26431151 200 200 200
105.9058431 91.42439961 12.7184158 200 200 200
105.9056494 91.40220853 12.59872086 200 200 200
105.9085995 91.74024726 11.35002914 200 200 200
105.9089446 91.77979332 11.46436904 200 200 200
105.908933 91.7784718 11.61394209 200 200 200
105.9022194 91.0091631 12.51202916 200 200 200
105.9023731 91.02677949 10.51816899 200 200 200
105.9032898 91.13182163 12.43472338 200 200 200
105.9051116 91.34058048 12.30315271 200 200 200
105.9055144 91.38673923 12.27406107 200 200 200
105.9054519 91.37957424 11.94666533 200 200 200
105.9052041 91.35117727 10.64909987 200 200 200
105.9044668 91.26668835 10.61499912 200 200 200
105.90572 91.41029517 13.35042166 200 200 200
105.905606 91.39722913 12.75338454 200 200 200
105.9055667 91.39272486 12.54756754 200 200 200
105.9055645 91.39246955 12.53590141 200 200 200
105.9055178 91.38712354 12.29162187 200 200 200
106.0519777 91.00195182 10.49471643 200 200 200
105.9440339 91.25878764 10.60825683 200 200 200
105.9221349 91.31089308 10.63129128 200 200 200
105.8879025 91.42865734 12.29318163 200 200 200
105.8883321 91.42878867 12.34437118 200 200 200
105.8919994 91.42990988 12.78139687 200 200 200
106.0182574 91.73303489 11.11798134 200 200 200
106.1282066 91.74766262 10.94888612 200 200 200
106.1521702 91.74348473 10.96784586 200 200 200
105.9922214 91.35062554 12.07638498 200 200 200
106.0041144 91.340468 12.05243606 200 200 200
106.0041144 91.340468 12.16274694 200 200 200
105.9519757 91.38499863 12.62764311 200 200 200
106.0098984 91.33552803 12.11117408 200 200 200
106.0109436 91.3346353 12.03868405 200 200 200
106.0200949 91.32681933 12.02025595 200 200 200
106.0041144 91.340468 12.78692034 200 200 200
106.0715323 91.28288764 12.39239795 200 200 200
106.0041144 91.340468 12.52505262 200 200 200
105.9274838 91.38356027 12.22034364 200 200 200
105.9672236 91.34961924 12.14031929 200 200 200
105.9186913 91.39106974 12.57305911 200 200 200
106.0042186 91.35240387 12.71223674 200 200 200
106.0043106 91.36294417 12.64628532 200 200 200
106.0077081 91.35889798 12.63345343 200 200 200
106.0041242 91.34159059 12.53110768 200 200 200
105.951764 91.01858281 10.5104263 200 200 200
3 0 1 2
3 0 2 3
3 4 1 0
3 4 0 5
3 4 5 6
3 7 5 0
3 7 0 3
3 7 3 8
3 7 8 9
3 6 5 7
3 10 11 12
3 13 14 15
3 13 15 16
3 13 16 17
3 13 17 18
3 13 18 19
3 18 20 19
3 21 15 14
3 21 14 22
3 21 22 23
3 24 25 26
3 27 13 14
3 28 29 30
3 28 30 27
3 28 27 14
3 28 14 22
3 28 22 31
3 29 3 2
3 29 2 30
3 29 28 32
3 29 32 33
3 29 33 8
3 29 8 3
3 11 12 25
3 11 25 24
3 34 9 8
3 34 8 33
3 34 33 32
3 31 22 23
3 35 1 2
3 35 2 30
3 1 35 36
3 1 36 37
3 1 37 38
3 1 38 4
3 39 40 41
3 39 41 35
3 39 35 30
3 39 30 27
3 37 42 38
3 43 44 40
3 43 40 39
3 43 39 19
3 43 19 20
3 39 27 13
3 39 13 19
3 45 21 15
3 45 15 46
3 45 46 47
3 45 47 48
3 16 46 15
3 46 16 17
3 46 17 49
3 46 49 50
3 46 50 47
3 49 17 18
3 50 49 43
3 50 43 44
3 49 18 20
3 49 20 43
3 45 48 51
3 45 51 52
3 48 47 53
3 48 53 40
3 48 40 41
3 48 41 51
3 52 51 54
3 52 54 55
3 51 41 35
3 51 35 54
3 47 50 53
3 53 50 44
3 53 44 40
3 56 57 58
3 56 58 59
3 57 60 61
3 57 61 58
3 62 63 64
3 54 65 66
3 54 66 55
3 54 35 36
3 54 36 67
3 54 67 65
3 68 69 70
3 68 70 71
3 68 71 72
3 68 37 42
3 68 42 73
3 68 73 74
3 68 74 75
3 68 75 76
3 68 76 77
3 68 77 69
3 65 67 68
3 65 68 72
3 65 72 66
3 37 68 67
3 37 67 36
3 45 78 79
3 45 79 80
3 45 80 71
3 45 71 34
3 45 34 32
3 45 32 28
3 34 71 7
3 34 7 9
3 7 71 70
3 7 70 69
3 7 69 81
3 7 81 6
3 69 77 82
3 69 82 81
3 76 75 74
3 76 74 83
3 76 83 82
3 76 82 77
3 74 73 42
3 74 42 38
3 74 38 83
3 82 83 38
3 82 38 4
3 82 4 6
3 82 6 81
3 11 10 26
3 11 26 24
3 63 62 84
3 63 84 85
3 85 86 64
3 85 64 63
3 56 87 88
3 56 88 89
3 56 89 90
3 56 90 60
3 56 60 57
3 91 89 88
3 91 88 92
3 93 91 92
3 94 95 96
3 59 97 87
3 59 87 56
3 93 92 88
3 93 88 87
3 93 87 97
3 93 97 98
3 59 58 61
3 59 61 99
3 59 99 98
3 59 98 97
3 100 101 102
3 100 102 95
3 100 95 94
3 101 100 103
3 103 100 94
3 103 94 96
3 62 64 86
3 62 86 84
3 90 99 61
3 90 61 60
3 102 101 103
3 96 95 102
3 96 102 103
3 84 86 85
3 25 26 10
3 25 10 12
3 93 98 99
3 93 99 90
3 93 90 89
3 93 89 91
3 21 45 28
3 21 28 31
3 21 31 23
3 78 45 52
3 78 52 104
3 55 66 104
3 55 104 52
3 80 79 78
3 80 78 104
3 80 104 72
3 80 72 71
3 66 72 104

