ply
format ascii 1.0
element vertex 48
property float x
property float y
property float z
property uchar red
property uchar green
property uchar blue
element face 92
property list uchar int vertex_index
end_header
169.7969285 93.78529157 13.58324574 200 200 200
169.7969285 93.78529157 11.98421253 200 200 200
169.7969285 93.79139783 11.38761379 200 200 200
169.7969285 93.79139783 12.99191515 200 200 200
169.7969285 93.78534549 13.58324574 200 200 200
169.7969285 93.79139783 13.58324574 200 200 200
169.7969285 93.80244189 10.30857726 200 200 200
169.7969285 93.8188621 10.30857726 200 200 200
169.7953677 93.78529157 13.58324574 200 200 200
169.7814167 93.78529157 12.91293932 200 200 200
169.75 94.28500043 13.58324574 200 200 200
169.75 94.28500043 11.46897387 200 200 200
169.499 94.28500043 11.28996803 200 200 200
169.499 94.28500043 13.58324574 200 200 200
169.499 93.84099178 10.30857726 200 200 200
169.499 93.98501277 10.30857726 200 200 200
169.7021068 93.86054874 10.30857726 200 200 200
169.499 94.00143298 10.30857726 200 200 200
169.6339202 93.91875377 10.30857726 200 200 200
169.6449182 93.91201418 10.30857726 200 200 200
169.75 93.84761994 10.30857726 200 200 200
169.75 93.83119973 10.30857726 200 200 200
169.499 94.18850494 10.30857726 200 200 200
169.75 94.21267349 10.30857726 200 200 200
169.499 94.13670854 10.30857726 200 200 200
169.499 94.02416484 10.30857726 200 200 200
169.499 94.22491886 10.30857726 200 200 200
169.75 94.21395998 10.30857726 200 200 200
169.6953279 93.83118622 13.58324574 200 200 200
169.499 93.95149616 13.58324574 200 200 200
169.499 93.81228198 13.58324574 200 200 200
169.75 93.79768312 13.58324574 200 200 200
169.75 93.81410333 13.58324574 200 200 200
169.499 93.96791637 13.58324574 200 200 200
169.75 93.82806236 13.58324574 200 200 200
169.75 93.8551517 13.58324574 200 200 200
169.5490337 94.16461283 13.58324574 200 200 200
169.499 94.15979514 13.58324574 200 200 200
169.499 94.02416484 13.58324574 200 200 200
169.75 94.1839637 13.58324574 200 200 200
169.7942778 93.78696986 13.58324574 200 200 200
169.7857106 93.80016225 13.58324574 200 200 200
169.75 93.81159377 12.22413574 200 200 200
169.75 93.82403936 12.61246742 200 200 200
169.75 93.82806236 12.73799464 200 200 200
169.75 93.82806236 12.21940833 200 200 200
169.499 94.17737915 11.57759598 200 200 200
169.75 93.82806236 10.61510697 200 200 200
3 0 1 2
3 0 2 3
3 0 3 4
3 3 5 4
3 2 6 7
3 2 7 3
3 8 9 1
3 8 1 0
3 10 11 12
3 10 12 13
3 14 15 16
3 15 17 18
3 15 18 19
3 15 19 20
3 15 20 21
3 15 21 16
3 22 23 20
3 22 20 19
3 22 19 24
3 18 25 24
3 18 24 19
3 25 18 17
3 20 7 6
3 20 6 21
3 23 22 26
3 23 26 27
3 28 29 30
3 31 32 33
3 31 33 29
3 31 29 28
3 34 35 36
3 34 36 37
3 34 37 38
3 32 34 38
3 32 38 33
3 10 13 37
3 10 37 36
3 10 36 39
3 35 39 36
3 8 0 4
3 8 4 40
3 41 40 4
3 41 4 5
3 32 31 42
3 32 42 43
3 34 32 43
3 34 43 44
3 20 23 39
3 20 39 35
3 20 35 44
3 20 44 45
3 35 34 44
3 27 11 10
3 27 10 39
3 27 39 23
3 29 15 14
3 29 14 30
3 15 29 33
3 15 33 17
3 25 17 33
3 25 33 38
3 22 24 46
3 22 46 37
3 22 37 13
3 22 13 12
3 22 12 26
3 46 24 25
3 46 25 38
3 46 38 37
3 47 42 31
3 47 31 28
3 47 28 16
3 47 16 21
3 9 42 47
3 9 47 2
3 9 2 1
3 2 47 21
3 2 21 6
3 5 3 45
3 5 45 44
3 5 44 41
3 30 14 16
3 30 16 28
3 40 43 42
3 40 42 9
3 40 9 8
3 41 44 43
3 41 43 40
3 45 3 7
3 45 7 20
3 27 26 12
3 27 12 11

