ply
format ascii 1.0
element vertex 33
property float x
property float y
property float z
property uchar red
property uchar green
property uchar blue
element face 66
property list uchar int vertex_index
end_header
142.88376887 90.9746 13.6552 200 200 200
142.88376887 90.9746 13.853896936 200 200 200
142.88376887 90.488247419 13.853896936 200 200 200
142.88376887 90.488247419 13.654332064 200 200 200
142.88376887 90.9746 13.654332064 200 200 200
142.88376887 91.1934 13.6552 200 200 200
142.88376887 91.1934 13.853896936 200 200 200
142.88376887 91.1934 13.654332064 200 200 200
142.88376887 94.088309581 13.654332064 200 200 200
142.88376887 94.088309581 13.6552 200 200 200
156.04069913 92.49609179 13.6552 200 200 200
156.04069913 92.595448114 13.853896936 200 200 200
156.04069913 90.488247419 13.853896936 200 200 200
156.04069913 90.488247419 13.6552 200 200 200
156.04069913 92.495657788 13.654332064 200 200 200
156.04069913 94.088309581 13.654332064 200 200 200
156.04069913 94.088309581 13.6552 200 200 200
156.00565217 90.488247419 13.6552 200 200 200
156.00391791 90.488247419 13.853896936 200 200 200
146.17204985 90.488247419 13.853896936 200 200 200
146.17378412 90.488247419 13.6552 200 200 200
146.17379169 90.488247419 13.654332064 200 200 200
146.23662326 94.088309581 13.6552 200 200 200
146.23663084 94.088309581 13.654332064 200 200 200
146.18228099 90.9746 13.654332064 200 200 200
146.18610014 91.1934 13.654332064 200 200 200
156.01414904 90.9746 13.654332064 200 200 200
146.18053914 90.9746 13.853896936 200 200 200
146.1843583 91.1934 13.853896936 200 200 200
156.0124072 90.9746 13.853896936 200 200 200
156.01414146 90.9746 13.6552 200 200 200
146.18227341 90.9746 13.6552 200 200 200
146.18609257 91.1934 13.6552 200 200 200
3 0 1 2
3 0 2 3
3 0 3 4
3 1 0 5
3 1 5 6
3 5 7 8
3 5 8 9
3 10 11 12
3 10 12 13
3 10 14 15
3 10 15 16
3 17 18 12
3 17 12 13
3 19 20 21
3 19 21 3
3 19 3 2
3 22 16 15
3 22 15 23
3 22 23 8
3 22 8 9
3 24 4 3
3 24 3 21
3 25 23 8
3 25 8 7
3 25 24 26
3 25 26 14
3 25 14 15
3 25 15 23
3 27 1 2
3 27 2 19
3 27 28 6
3 27 6 1
3 29 18 12
3 29 12 11
3 13 10 30
3 13 30 17
3 0 31 32
3 0 32 5
3 22 16 10
3 22 10 30
3 22 30 31
3 22 31 32
3 22 32 5
3 22 5 9
3 0 4 24
3 0 24 31
3 24 31 30
3 24 30 26
3 32 25 7
3 32 7 5
3 6 5 32
3 6 32 28
3 10 14 26
3 10 26 30
3 30 29 18
3 30 18 17
3 29 30 10
3 29 10 11
3 24 21 20
3 24 20 31
3 31 24 25
3 31 25 32
3 19 27 31
3 19 31 20
3 27 28 32
3 27 32 31

