ply
format ascii 1.0
element vertex 6
property float x
property float y
property float z
property uchar red
property uchar green
property uchar blue
element face 8
property list uchar int vertex_index
end_header
103.0017638 93.54539674 11.76414062 200 200 200
103.0017638 93.53820544 11.76414062 200 200 200
103.0017638 93.53820544 10.20215738 200 200 200
103.0017638 93.54539674 10.20215738 200 200 200
102.1777225 93.54539674 10.20215738 200 200 200
102.1777225 93.54539674 11.76414062 200 200 200
3 0 1 2
3 0 2 3
3 0 3 4
3 0 4 5
3 2 3 4
3 1 0 5
3 5 1 2
3 5 2 4

