ply
format ascii 1.0
element vertex 17
property float x
property float y
property float z
property uchar red
property uchar green
property uchar blue
element face 30
property list uchar int vertex_index
end_header
129.3222473 87.27115193 10.18592949 200 200 200
129.3222473 87.32340394 10.18592949 200 200 200
129.3222473 87.32340394 10.24317272 200 200 200
129.2854126 87.32340394 13.58585951 200 200 200
129.2854126 87.32340394 10.66225715 200 200 200
129.0284476 87.32340394 13.58585951 200 200 200
128.9000433 87.32340394 13.58585951 200 200 200
128.9000433 87.32340394 10.18592949 200 200 200
129.3114496 87.15901275 10.18592949 200 200 200
129.2885759 86.92146109 10.18592949 200 200 200
128.8861298 86.92497318 10.18592949 200 200 200
128.8861298 86.92497318 13.58585951 200 200 200
128.9899958 86.92406676 13.58585951 200 200 200
129.2852513 86.9214901 13.58585951 200 200 200
129.2967801 87.25163245 13.58585951 200 200 200
129.2852513 86.9214901 10.22378758 200 200 200
129.2967801 87.25163245 10.45429743 200 200 200
3 0 1 2
3 3 4 5
3 6 5 4
3 6 4 2
3 6 2 1
3 6 1 7
3 7 1 0
3 7 0 8
3 7 8 9
3 7 9 10
3 11 12 5
3 11 5 6
3 3 5 12
3 3 12 13
3 3 13 14
3 11 10 9
3 11 9 15
3 11 15 12
3 13 12 15
3 7 10 11
3 7 11 6
3 14 13 15
3 14 15 16
3 14 16 4
3 14 4 3
3 15 9 8
3 15 8 16
3 2 4 16
3 2 16 8
3 2 8 0

