ply
format ascii 1.0
element vertex 14
property float x
property float y
property float z
property uchar red
property uchar green
property uchar blue
element face 24
property list uchar int vertex_index
end_header
174.2880347 82.61943402 13.58767492 200 200 200
174.2880347 82.61943402 10.19022353 200 200 200
174.2880347 82.61976522 10.19020908 200 200 200
174.2880347 82.61976522 13.58767492 200 200 200
173.8686694 82.61943402 13.58767492 200 200 200
173.8686694 82.61943402 10.18990398 200 200 200
174.1517345 83.01560998 10.17282491 200 200 200
173.9278781 83.01560998 10.17265433 200 200 200
173.9278781 83.01560998 13.58767492 200 200 200
174.1517345 83.01560998 13.58767492 200 200 200
173.8840577 82.7224 13.58767492 200 200 200
174.2526947 82.7224 13.58767492 200 200 200
174.2526947 82.7224 10.1857017 200 200 200
173.8840577 82.7224 10.18542081 200 200 200
3 0 1 2
3 0 2 3
3 4 5 1
3 4 1 0
3 6 7 8
3 6 8 9
3 10 11 9
3 10 9 8
3 10 4 0
3 10 0 3
3 10 3 11
3 11 3 2
3 11 2 12
3 9 11 12
3 9 12 6
3 10 13 5
3 10 5 4
3 13 10 8
3 13 8 7
3 13 12 2
3 13 2 1
3 13 1 5
3 12 13 7
3 12 7 6

