ply
format ascii 1.0
element vertex 61
property float x
property float y
property float z
property uchar red
property uchar green
property uchar blue
element face 114
property list uchar int vertex_index
end_header
86.31456514 86.90147037 10.18475105 200 200 200
86.31456514 86.90147037 11.00389112 200 200 200
86.31456514 86.90147037 13.58188995 200 200 200
86.31456514 86.93593107 13.58188995 200 200 200
86.31456514 86.93593107 13.23277241 200 200 200
86.31456514 86.93593107 10.18475105 200 200 200
86.31456514 86.80945664 10.18475105 200 200 200
86.72070986 86.93947544 10.18475105 200 200 200
86.72070986 86.93947544 12.32640345 200 200 200
86.72070986 86.77110582 13.58188995 200 200 200
86.72070986 86.58285175 13.58188995 200 200 200
86.72070986 86.58285175 10.18475105 200 200 200
86.72070986 86.93947544 13.58188995 200 200 200
86.72070986 86.94774462 10.18475105 200 200 200
86.72070986 86.94774462 12.55826136 200 200 200
86.72070986 86.94774462 13.58188995 200 200 200
86.68701002 86.58285175 13.58188995 200 200 200
86.68701002 86.58285175 10.18475105 200 200 200
86.65588887 86.58285175 13.58188995 200 200 200
86.50351809 86.58285175 10.28215792 200 200 200
86.6573617 86.58285175 12.00394749 200 200 200
86.6573617 86.58285175 13.58188995 200 200 200
86.6573617 86.58285175 11.42011259 200 200 200
86.50509937 86.58285175 10.18475105 200 200 200
86.6573617 86.58285175 10.18475105 200 200 200
86.47561845 86.91982004 10.18475105 200 200 200
86.4813921 86.85382695 10.18475105 200 200 200
86.37496104 86.73352853 10.18475105 200 200 200
86.62460046 86.93679436 10.18475105 200 200 200
86.65875987 86.74306648 10.18475105 200 200 200
86.50386768 86.59692998 10.18475105 200 200 200
86.47408712 86.9373232 10.18475105 200 200 200
86.55589498 86.93803713 10.18475105 200 200 200
86.62427611 86.93863388 10.18475105 200 200 200
86.64211187 86.93878953 10.18475105 200 200 200
86.7148423 86.9470761 10.18475105 200 200 200
86.43619601 86.93699253 13.58188995 200 200 200
86.41488061 86.91289985 13.58188995 200 200 200
86.52577071 86.92553416 13.58188995 200 200 200
86.62460046 86.93679436 13.58188995 200 200 200
86.64211187 86.93878953 13.58188995 200 200 200
86.65529887 86.76269484 13.58188995 200 200 200
86.65875987 86.74306648 13.58188995 200 200 200
86.6764704 86.64262494 13.58188995 200 200 200
86.6574 86.5872404 13.58188995 200 200 200
86.7148423 86.9470761 13.58188995 200 200 200
86.7148423 86.9470761 12.57509852 200 200 200
86.64211187 86.93878953 11.54903979 200 200 200
86.64211187 86.93878953 12.78380106 200 200 200
86.64211187 86.93878953 10.62940495 200 200 200
86.45057087 86.91696623 12.6639922 200 200 200
86.52972965 86.92598522 10.62815177 200 200 200
86.62460046 86.93679436 11.40554696 200 200 200
86.65875987 86.74306648 11.54518149 200 200 200
86.6436539 86.82873681 11.48343232 200 200 200
86.65875987 86.74306648 12.44938663 200 200 200
86.65875987 86.74306648 13.445886 200 200 200
86.53769662 86.93787831 10.70123287 200 200 200
86.62427611 86.93863388 11.40422107 200 200 200
86.45529407 86.93715919 13.03987396 200 200 200
86.6582253 86.68181045 12.89457948 200 200 200
3 0 1 2
3 0 2 3
3 0 3 4
3 0 4 5
3 0 6 1
3 7 8 9
3 7 9 10
3 7 10 11
3 8 12 9
3 12 8 7
3 12 7 13
3 12 13 14
3 12 14 15
3 11 10 16
3 11 16 17
3 18 19 20
3 18 20 21
3 22 23 24
3 6 0 25
3 6 25 26
3 6 26 27
3 26 25 28
3 26 28 29
3 26 29 24
3 26 24 23
3 26 23 30
3 31 25 0
3 31 0 5
3 25 31 32
3 25 32 33
3 25 33 28
3 7 11 17
3 7 17 29
3 7 29 28
3 7 28 34
3 33 34 28
3 34 35 13
3 34 13 7
3 36 37 38
3 36 38 39
3 36 39 40
3 40 39 41
3 40 41 42
3 40 42 43
3 40 43 9
3 40 9 12
3 44 18 21
3 3 2 37
3 3 37 36
3 12 15 45
3 12 45 40
3 43 16 10
3 43 10 9
3 13 35 46
3 13 46 14
3 47 48 46
3 47 46 35
3 47 35 34
3 47 34 49
3 50 37 2
3 50 2 1
3 50 51 52
3 50 52 39
3 50 39 38
3 38 37 50
3 45 15 14
3 45 14 46
3 45 46 48
3 45 48 40
3 23 22 53
3 23 53 54
3 23 54 30
3 54 52 51
3 54 51 26
3 54 26 30
3 53 29 17
3 53 17 16
3 53 16 43
3 53 43 55
3 56 55 43
3 56 43 42
3 54 53 55
3 52 54 55
3 52 55 56
3 52 56 41
3 52 41 39
3 56 42 41
3 57 32 31
3 33 32 57
3 33 57 58
3 33 58 47
3 33 47 49
3 33 49 34
3 5 4 59
3 5 59 57
3 5 57 31
3 58 57 59
3 58 59 48
3 58 48 47
3 3 36 59
3 3 59 4
3 59 36 40
3 59 40 48
3 53 22 24
3 53 24 29
3 44 21 20
3 44 20 60
3 26 51 50
3 26 50 27
3 18 44 60
3 18 60 19
3 50 1 6
3 50 6 27
3 20 19 60

