ply
format ascii 1.0
element vertex 8
property float x
property float y
property float z
property uchar red
property uchar green
property uchar blue
element face 12
property list uchar int vertex_index
end_header
101.184869 87.74839997 13.58639214 200 200 200
101.184869 87.74839997 10.54923686 200 200 200
101.184869 87.7484 10.54923686 200 200 200
101.184869 87.7484 13.58639214 200 200 200
103.751547 87.74839997 13.58639214 200 200 200
103.751547 87.74839997 10.54923686 200 200 200
103.751547 87.7484 10.54923686 200 200 200
103.751547 87.7484 13.58639214 200 200 200
3 0 1 2
3 0 2 3
3 4 5 6
3 4 6 7
3 1 0 4
3 1 4 5
3 1 5 6
3 1 6 2
3 0 4 7
3 0 7 3
3 7 3 2
3 7 2 6

