ply
format ascii 1.0
element vertex 112
property float x
property float y
property float z
property uchar red
property uchar green
property uchar blue
element face 238
property list uchar int vertex_index
end_header
136.0387346 86.46331734 11.883103 200 200 200
136.0387346 86.46181735 11.91664397 200 200 200
136.0387346 86.46064443 11.94287152 200 200 200
136.0387346 86.46064443 10.54830822 200 200 200
136.0387346 86.47372385 11.00636506 200 200 200
136.0387346 86.47844826 11.54476268 200 200 200
136.0387346 86.00465426 10.1838 200 200 200
136.0387346 86.00465426 10.17544904 200 200 200
136.0387346 86.46958573 10.17544904 200 200 200
136.0387346 86.47039077 10.1838 200 200 200
136.0387346 86.46650589 10.1838 200 200 200
136.0387346 86.46470934 10.1838 200 200 200
136.0387346 86.46064443 10.1838 200 200 200
136.0387346 86.45023621 10.1838 200 200 200
136.0387346 86.46526429 12.10497927 200 200 200
136.0387346 86.48597135 11.43528696 200 200 200
136.0387346 86.47422799 12.59474202 200 200 200
136.0387346 86.48494756 11.39943271 200 200 200
136.0387346 86.46816059 10.37237142 200 200 200
136.0387346 86.49047574 10.99055626 200 200 200
136.0387346 86.48674057 11.35933949 200 200 200
136.0387346 86.48655662 11.37750167 200 200 200
136.0387346 86.49047574 10.3921479 200 200 200
136.0387346 86.48692972 13.28874469 200 200 200
136.0387346 86.49047574 11.59303586 200 200 200
136.0387346 86.49047574 12.93863648 200 200 200
136.0387346 86.49047574 11.27581806 200 200 200
136.0387346 86.48391766 13.58613396 200 200 200
136.0387346 86.49047574 13.48249349 200 200 200
136.0387346 86.49047574 13.58613396 200 200 200
136.5248954 86.46913039 10.17544904 200 200 200
136.5248954 86.46913039 10.1838 200 200 200
136.5248954 86.39730872 10.1838 200 200 200
136.5248954 86.00904097 10.1838 200 200 200
136.5248954 86.00823593 10.17544904 200 200 200
136.5248954 86.00465426 10.1838 200 200 200
136.5248954 86.00465426 10.17544904 200 200 200
136.5248954 86.46913039 13.58613396 200 200 200
136.5248954 86.49047574 10.1838 200 200 200
136.5248954 86.49047574 13.58613396 200 200 200
136.241763 86.00465426 10.1838 200 200 200
136.3394769 86.49047574 13.58613396 200 200 200
136.327603 86.49047574 10.1838 200 200 200
136.2205516 86.49047574 10.1838 200 200 200
136.2438838 86.49047574 10.85131229 200 200 200
136.3270335 86.49047574 13.23014171 200 200 200
136.1563104 86.49047574 11.54955553 200 200 200
136.0984371 86.49047574 10.97985533 200 200 200
136.0699901 86.49047574 11.12087545 200 200 200
136.0570706 86.49047574 11.87224957 200 200 200
136.0447506 86.49047574 13.58613396 200 200 200
136.0475344 86.49047574 10.47877309 200 200 200
136.0569585 86.45229189 10.17544904 200 200 200
136.1274022 86.46219213 10.17544904 200 200 200
136.1058687 86.47120529 13.58613396 200 200 200
136.0504226 86.47703288 13.58613396 200 200 200
136.0771076 86.46131423 13.58613396 200 200 200
136.1340848 86.46230877 13.58613396 200 200 200
136.1824771 86.46315346 13.58613396 200 200 200
136.3405493 86.46591262 13.58613396 200 200 200
136.2217146 86.46383836 10.1838 200 200 200
136.1262063 86.46217125 10.1838 200 200 200
136.099775 86.46170989 10.36836888 200 200 200
136.0865603 86.46147923 10.1838 200 200 200
136.164394 86.46283782 11.27089554 200 200 200
136.2446871 86.46423934 10.84152021 200 200 200
136.3148721 86.46546442 12.85097556 200 200 200
136.1825418 86.46315459 11.52436429 200 200 200
136.1597404 86.46275659 11.29578083 200 200 200
136.1229368 86.46211418 11.49259201 200 200 200
136.1110033 86.46190588 11.55640735 200 200 200
136.1091998 86.4618744 11.66440175 200 200 200
136.0970361 86.46166208 12.3927872 200 200 200
136.0805923 86.46137506 10.50232121 200 200 200
136.0938538 86.46160654 10.63526746 200 200 200
136.0896448 86.46153307 10.88730602 200 200 200
136.0535698 86.46090338 10.23142078 200 200 200
136.0834726 86.46142533 11.25690939 200 200 200
136.0488196 86.46082046 10.1838 200 200 200
136.0425731 86.46071143 11.92234496 200 200 200
136.0576 86.46097373 11.84198703 200 200 200
136.0752809 86.46128235 11.74743633 200 200 200
136.1045577 86.46179338 11.59087573 200 200 200
136.0706566 86.46120163 12.02434784 200 200 200
136.0654225 86.46111027 12.33777404 200 200 200
136.0903778 86.46154587 12.79149089 200 200 200
136.0901732 86.46505728 10.63483182 200 200 200
136.0882538 86.46509682 10.61634733 200 200 200
136.0433383 86.46602202 10.1838 200 200 200
136.0870964 86.47244036 11.43936095 200 200 200
136.0704509 86.47096732 11.07211702 200 200 200
136.1577299 86.46366569 11.28541953 200 200 200
136.0977872 86.47111226 11.41606109 200 200 200
136.1064258 86.45939128 10.1838 200 200 200
136.2224411 86.44719764 10.1838 200 200 200
136.223235 86.42901436 10.1838 200 200 200
136.0712711 86.45445061 10.1838 200 200 200
136.0575623 86.45252395 10.1838 200 200 200
136.2242301 86.40622283 10.1838 200 200 200
136.2293252 86.28952689 10.1838 200 200 200
136.0779341 86.4331918 10.1838 200 200 200
136.2212045 86.47552238 10.1838 200 200 200
136.0477006 86.46188238 10.1838 200 200 200
136.0396316 86.48611573 11.3688649 200 200 200
136.0439342 86.48311854 11.4145554 200 200 200
136.0672985 86.47489982 11.48250931 200 200 200
136.1250272 86.47845268 11.11688664 200 200 200
136.1020764 86.46812439 11.46160961 200 200 200
136.0760876 86.46856983 12.92908604 200 200 200
136.071558 86.45790291 10.37737057 200 200 200
136.059499 86.47457871 11.35249589 200 200 200
136.0541888 86.4666319 12.44593939 200 200 200
3 0 1 2
3 0 2 3
3 0 3 4
3 0 4 5
3 6 7 8
3 6 8 9
3 6 9 10
3 6 10 11
3 6 11 12
3 6 12 13
3 0 14 1
3 15 16 14
3 15 14 0
3 15 0 5
3 15 5 17
3 4 17 5
3 4 3 12
3 4 12 11
3 4 11 18
3 10 18 11
3 19 20 21
3 19 21 18
3 19 18 10
3 19 10 9
3 19 9 22
3 23 16 15
3 23 15 24
3 23 24 25
3 21 15 17
3 21 17 4
3 21 4 18
3 21 20 26
3 21 26 24
3 21 24 15
3 27 23 28
3 27 28 29
3 25 28 23
3 30 31 32
3 30 32 33
3 30 33 34
3 35 36 34
3 35 34 33
3 37 31 38
3 37 38 39
3 35 36 7
3 35 7 6
3 35 6 40
3 41 39 38
3 41 38 42
3 41 42 43
3 41 43 44
3 41 44 45
3 45 46 47
3 45 47 48
3 45 48 49
3 45 49 25
3 45 25 28
3 45 28 50
3 45 50 41
3 45 44 46
3 28 29 50
3 49 24 25
3 49 48 26
3 49 26 24
3 22 19 51
3 52 8 7
3 52 7 36
3 52 36 34
3 52 34 30
3 52 30 53
3 54 55 56
3 54 56 57
3 57 58 54
3 37 39 41
3 37 41 59
3 27 55 54
3 27 54 50
3 27 50 29
3 58 59 41
3 58 41 50
3 58 50 54
3 30 31 60
3 30 60 61
3 30 61 53
3 61 62 63
3 64 65 60
3 64 60 61
3 64 61 62
3 60 65 66
3 60 66 59
3 60 59 37
3 60 37 31
3 65 64 67
3 65 67 66
3 67 68 69
3 67 69 70
3 67 70 71
3 67 71 72
3 67 72 58
3 67 58 59
3 67 59 66
3 73 74 68
3 73 68 64
3 73 64 62
3 75 74 73
3 75 73 76
3 77 75 76
3 77 76 78
3 77 78 12
3 77 12 3
3 2 79 80
3 2 80 81
3 2 81 77
3 2 77 3
3 74 75 69
3 74 69 68
3 81 82 77
3 83 81 80
3 70 82 71
3 81 83 72
3 81 72 71
3 81 71 82
3 68 67 64
3 79 84 83
3 79 83 80
3 83 84 85
3 83 85 72
3 85 57 58
3 85 58 72
3 85 56 57
3 62 86 87
3 62 87 88
3 62 88 63
3 89 90 87
3 89 87 86
3 89 86 91
3 89 91 92
3 63 93 61
3 93 61 60
3 93 60 94
3 95 94 60
3 95 60 31
3 95 31 32
3 96 93 63
3 96 63 78
3 96 78 97
3 98 96 93
3 98 93 94
3 98 94 95
3 96 98 99
3 96 99 100
3 96 100 97
3 78 97 100
3 78 100 13
3 78 13 12
3 100 99 40
3 100 40 6
3 100 6 13
3 98 95 32
3 98 32 33
3 98 33 99
3 35 40 99
3 35 99 33
3 61 60 101
3 43 101 42
3 101 60 31
3 101 31 38
3 101 38 42
3 78 63 88
3 78 88 102
3 48 26 20
3 48 20 103
3 48 103 104
3 48 104 105
3 48 105 89
3 48 89 92
3 106 47 48
3 106 48 92
3 106 92 91
3 70 107 89
3 70 89 105
3 70 105 82
3 70 69 107
3 79 2 1
3 55 108 23
3 55 23 27
3 108 55 56
3 108 56 85
3 102 88 9
3 102 9 8
3 102 8 52
3 102 52 97
3 102 97 78
3 76 73 109
3 97 78 76
3 97 76 109
3 87 51 22
3 87 22 9
3 87 9 88
3 91 86 106
3 46 47 106
3 90 103 20
3 90 20 19
3 90 19 51
3 90 51 87
3 90 110 104
3 90 104 103
3 110 90 75
3 110 75 77
3 53 61 93
3 53 93 96
3 53 96 97
3 53 97 52
3 93 62 61
3 96 109 73
3 96 73 62
3 96 62 93
3 97 109 96
3 106 86 62
3 106 62 61
3 106 61 101
3 106 101 44
3 106 44 46
3 14 16 111
3 16 23 108
3 16 108 111
3 79 1 14
3 79 14 111
3 79 111 84
3 84 111 108
3 84 108 85
3 104 110 105
3 110 77 82
3 110 82 105
3 44 101 43
3 90 89 107
3 90 107 69
3 90 69 75

