ply
format ascii 1.0
element vertex 149
property float x
property float y
property float z
property uchar red
property uchar green
property uchar blue
element face 300
property list uchar int vertex_index
end_header
128.8543137 105.0141451 11.3214362 200 200 200
128.8543137 105.0141451 12.04389804 200 200 200
128.8543137 105.0247636 11.4422473 200 200 200
128.8543137 105.0390803 11.60513403 200 200 200
128.8543137 105.0141451 13.01797611 200 200 200
128.8543137 105.0175595 10.75332277 200 200 200
128.8543137 105.0141451 10.71447648 200 200 200
128.8543137 105.0141451 10.75189133 200 200 200
128.8543137 105.0336845 10.93678425 200 200 200
128.8543137 104.9660533 10.16731457 200 200 200
128.8543137 104.9127056 10.16731457 200 200 200
128.8543137 104.9621708 10.73010147 200 200 200
128.8543137 105.0141451 13.43795274 200 200 200
128.8543137 105.031373 13.3024051 200 200 200
128.8543137 105.052308 12.11621272 200 200 200
128.8543137 105.0485768 11.7131799 200 200 200
128.8543137 105.0637457 11.27880392 200 200 200
128.8543137 105.0637457 10.77268602 200 200 200
129.2988113 104.6513324 10.16731457 200 200 200
129.2988113 105.0583943 10.16731457 200 200 200
129.2988113 105.0583943 13.58776143 200 200 200
129.2988113 104.6513324 13.58776143 200 200 200
128.9349374 104.6501443 10.27769422 200 200 200
128.8784814 104.6501443 10.16731457 200 200 200
128.9626097 104.6501443 10.16731457 200 200 200
128.8970196 105.0637457 13.58776143 200 200 200
128.9719524 105.0637457 13.58776143 200 200 200
128.9637296 105.0637457 12.67978846 200 200 200
128.9440098 105.0637457 12.84328655 200 200 200
128.8828426 105.0637457 13.35042793 200 200 200
128.9189491 105.0637457 12.51180135 200 200 200
128.9801397 105.0637457 12.54373104 200 200 200
128.9755971 105.0637457 12.04212947 200 200 200
128.960273 105.0637457 10.35003456 200 200 200
128.9675606 105.0637457 11.15473934 200 200 200
128.8792261 104.6586563 10.16731457 200 200 200
128.9633501 104.6571879 10.16731457 200 200 200
128.90656 104.971084 10.16731457 200 200 200
128.901853 104.9172831 10.16731457 200 200 200
129.0345753 104.9300628 10.16731457 200 200 200
129.0327186 104.9832317 10.16731457 200 200 200
129.0317473 105.011048 10.16731457 200 200 200
129.02993 105.0630876 10.16731457 200 200 200
129.0441536 104.6557775 10.16731457 200 200 200
129.0401769 104.7696546 10.16731457 200 200 200
129.0366192 104.8715343 13.58776143 200 200 200
129.038256 104.8246625 13.58776143 200 200 200
129.0391041 104.8003762 13.58776143 200 200 200
129.0441536 104.6557775 13.58776143 200 200 200
129.02993 105.0630876 13.58776143 200 200 200
129.0322096 104.9978092 13.58776143 200 200 200
129.0264722 105.0006075 13.58776143 200 200 200
128.9836732 105.021482 13.58776143 200 200 200
128.9878619 105.0063778 13.58776143 200 200 200
128.9356849 104.6576708 10.27786818 200 200 200
129.0441536 104.6557775 10.24725935 200 200 200
129.02993 105.0630876 12.13609392 200 200 200
129.02993 105.0630876 11.07892497 200 200 200
129.02993 105.0630876 11.59682913 200 200 200
129.0317473 105.011048 10.48485685 200 200 200
129.0317473 105.011048 10.71687409 200 200 200
129.0329769 104.9758348 10.68983378 200 200 200
129.0319404 105.0055163 11.02866839 200 200 200
129.0348917 104.9210018 12.67361216 200 200 200
129.0337837 104.9527324 12.43314538 200 200 200
129.0325933 104.9868206 11.86179514 200 200 200
129.0379535 104.8333234 11.87150288 200 200 200
129.0323987 104.9923922 11.76840934 200 200 200
129.0317473 105.011048 11.45571992 200 200 200
129.0324976 104.9895601 12.15405023 200 200 200
129.0319622 105.0048936 12.03784704 200 200 200
129.0317473 105.011048 11.69095215 200 200 200
129.0337659 104.9532416 12.9685512 200 200 200
129.0330184 104.974648 12.8063252 200 200 200
129.0323482 104.99384 12.66088004 200 200 200
129.0323374 104.9941482 12.64350981 200 200 200
129.0317473 105.011048 11.99120623 200 200 200
129.0316277 105.0144711 10.52393342 200 200 200
129.0311259 105.0288421 10.68798863 200 200 200
129.030544 105.0455043 10.87819933 200 200 200
129.0315398 105.0169876 11.3561665 200 200 200
129.0418148 104.722751 10.8599537 200 200 200
129.0364624 104.8760247 13.01446678 200 200 200
129.0384431 104.8193036 13.44432245 200 200 200
128.9833208 105.0125633 13.27574215 200 200 200
128.9829954 105.0043261 12.98756388 200 200 200
128.9832944 105.0118938 13.2523184 200 200 200
128.9698443 105.0121285 13.03521177 200 200 200
128.9566615 105.0199497 13.08297413 200 200 200
128.9708844 105.0121104 10.28606036 200 200 200
128.9739183 105.0120574 10.27393633 200 200 200
128.9764885 105.0120126 10.55636807 200 200 200
128.8681607 105.0139034 10.69655678 200 200 200
128.9813774 105.0119272 11.09358981 200 200 200
128.9711248 105.0121062 11.17026911 200 200 200
128.9426701 105.0126029 11.20709279 200 200 200
128.8641551 105.0139733 11.30870021 200 200 200
128.946684 105.0125328 11.35306102 200 200 200
128.8963674 105.0134111 11.72937866 200 200 200
128.9689009 105.012145 12.1609791 200 200 200
128.9819477 105.0119173 11.15626293 200 200 200
128.9896769 105.0117824 12.00559583 200 200 200
128.9437942 105.0125832 12.34875227 200 200 200
128.9732095 105.0120698 12.31765958 200 200 200
128.9902354 105.0117726 12.06696205 200 200 200
128.9582641 105.0123307 12.53772313 200 200 200
128.950252 105.0124705 12.65569664 200 200 200
128.9607458 105.0122873 12.57013325 200 200 200
128.9924611 105.0117338 12.31153555 200 200 200
128.9684332 104.9874285 10.28548989 200 200 200
128.9750054 105.0206066 10.65577053 200 200 200
128.9724876 105.035196 10.82451956 200 200 200
128.8576546 104.9612886 10.71640514 200 200 200
128.9630731 104.9334551 10.2842424 200 200 200
128.9717099 105.0204229 10.28625249 200 200 200
128.990833 105.0102076 12.08503376 200 200 200
128.981317 105.0086226 12.25542187 200 200 200
128.8860972 105.0356363 11.53113063 200 200 200
128.979603 105.0255042 11.31341551 200 200 200
129.0048919 104.9733945 12.51012106 200 200 200
128.9997156 104.9869486 12.35361004 200 200 200
128.9934004 105.0034849 12.16266219 200 200 200
129.023123 104.9908472 11.93449503 200 200 200
128.9885417 104.9850874 12.55368246 200 200 200
128.9644658 105.0058159 12.55714692 200 200 200
128.9749347 104.9948186 12.58993537 200 200 200
128.9604844 105.0051528 12.62843475 200 200 200
128.9272151 105.031626 12.67073897 200 200 200
128.924175 105.0311197 12.72517302 200 200 200
128.934013 105.0161275 11.2566786 200 200 200
128.980526 105.0119421 12.94811547 200 200 200
128.9779547 105.0198725 12.90703839 200 200 200
128.9768314 105.0233371 12.88909272 200 200 200
128.9838191 105.0118846 13.30997816 200 200 200
128.9859209 104.9812928 12.6052679 200 200 200
129.0132339 104.9476661 12.6433862 200 200 200
129.0041444 104.9897105 12.92721103 200 200 200
129.0009021 104.9937022 12.92268604 200 200 200
128.9861669 105.0118436 12.90212145 200 200 200
128.9792902 105.0119637 12.81231498 200 200 200
128.9828219 104.9851082 12.60094285 200 200 200
128.9665587 105.0051307 12.57824579 200 200 200
128.9796505 105.0198663 12.8930271 200 200 200
128.9455123 105.0310423 12.54887314 200 200 200
128.9947328 105.0047273 12.3478269 200 200 200
129.0033141 104.9922712 12.91394706 200 200 200
129.0027706 104.9939473 12.90526561 200 200 200
128.9948062 105.0047957 12.35802778 200 200 200
128.994635 105.0050289 12.34626449 200 200 200
3 0 1 2
3 3 2 1
3 3 1 4
3 5 6 7
3 5 7 0
3 5 0 2
3 5 2 8
3 9 10 11
3 9 11 7
3 9 7 6
3 12 13 14
3 12 14 15
3 12 15 3
3 12 3 4
3 5 8 16
3 5 16 17
3 18 19 20
3 18 20 21
3 22 23 24
3 25 26 27
3 25 27 28
3 25 28 29
3 30 28 27
3 30 27 31
3 30 31 32
3 33 17 16
3 33 16 34
3 24 23 35
3 24 35 36
3 10 9 37
3 10 37 38
3 39 40 41
3 39 41 42
3 39 42 19
3 39 19 18
3 39 18 43
3 39 43 44
3 45 46 47
3 45 47 48
3 45 48 21
3 45 21 20
3 45 20 49
3 45 49 50
3 51 52 53
3 52 26 25
3 36 35 54
3 48 55 43
3 48 43 18
3 48 18 21
3 56 49 20
3 56 20 19
3 56 19 42
3 56 42 57
3 56 57 58
3 59 41 40
3 60 59 40
3 60 40 39
3 60 39 61
3 60 61 62
3 63 64 65
3 63 65 61
3 63 61 39
3 63 39 44
3 63 44 66
3 62 61 65
3 62 65 67
3 60 62 67
3 60 67 68
3 67 65 69
3 67 69 70
3 67 70 71
3 67 71 68
3 64 63 72
3 64 72 73
3 64 73 74
3 64 74 75
3 64 75 69
3 69 75 70
3 74 73 50
3 74 50 49
3 74 49 56
3 76 71 70
3 75 74 56
3 75 56 58
3 75 58 76
3 75 76 70
3 59 77 78
3 59 78 79
3 59 79 57
3 59 57 42
3 59 42 41
3 77 60 68
3 77 68 80
3 77 80 78
3 68 71 80
3 79 78 80
3 80 71 76
3 80 76 58
3 80 58 57
3 80 57 79
3 81 66 44
3 81 44 43
3 81 43 55
3 63 66 82
3 66 81 83
3 66 83 82
3 63 82 83
3 63 83 46
3 63 46 45
3 63 45 72
3 50 73 72
3 50 72 45
3 47 83 81
3 47 81 55
3 47 55 48
3 83 47 46
3 51 84 52
3 85 86 87
3 52 25 29
3 52 29 88
3 52 88 84
3 88 87 86
3 88 86 84
3 89 90 91
3 89 91 92
3 0 7 92
3 0 92 91
3 0 91 59
3 0 59 60
3 0 60 93
3 0 93 94
3 0 94 95
3 0 95 96
3 97 95 94
3 97 98 96
3 97 96 95
3 96 98 1
3 96 1 0
3 99 97 94
3 99 94 100
3 99 100 101
3 98 97 99
3 98 99 102
3 98 102 4
3 98 4 1
3 99 103 104
3 99 104 101
3 102 99 103
3 102 103 105
3 102 105 106
3 102 106 12
3 102 12 4
3 103 105 106
3 103 106 107
3 103 107 108
3 103 108 104
3 6 92 109
3 6 109 37
3 6 37 9
3 92 6 5
3 59 91 110
3 59 110 77
3 34 16 8
3 34 8 110
3 34 110 111
3 36 54 22
3 36 22 24
3 11 112 113
3 11 113 109
3 11 109 92
3 11 92 7
3 90 89 114
3 114 89 92
3 114 92 5
3 114 5 17
3 114 17 33
3 115 116 99
3 115 99 101
3 117 99 101
3 117 101 118
3 64 119 120
3 64 120 121
3 64 121 122
3 64 122 65
3 119 123 120
3 116 115 121
3 124 116 121
3 124 121 120
3 124 120 123
3 124 123 125
3 126 124 125
3 124 105 103
3 124 103 116
3 124 126 106
3 124 106 105
3 105 103 127
3 105 127 128
3 105 128 106
3 77 110 93
3 77 93 60
3 110 8 2
3 110 2 129
3 110 129 94
3 110 94 93
3 85 130 131
3 85 131 132
3 85 132 27
3 85 27 26
3 85 26 52
3 85 52 84
3 85 84 86
3 53 52 84
3 53 84 133
3 134 135 136
3 134 136 137
3 134 137 138
3 134 138 139
3 125 140 134
3 125 134 139
3 125 139 107
3 125 107 141
3 142 143 107
3 142 107 139
3 142 139 138
3 28 30 143
3 28 143 142
3 28 142 132
3 22 54 35
3 22 35 23
3 113 38 37
3 113 37 109
3 119 64 69
3 119 69 144
3 125 141 126
3 107 106 126
3 107 126 141
3 106 128 13
3 106 13 12
3 32 108 107
3 32 107 143
3 32 143 30
3 123 119 135
3 123 135 134
3 123 134 140
3 125 123 140
3 121 144 69
3 121 69 65
3 121 65 122
3 103 99 116
3 15 14 127
3 15 127 103
3 15 103 99
3 15 99 117
3 132 142 138
3 132 138 137
3 132 137 145
3 132 145 146
3 132 146 31
3 132 31 27
3 87 130 85
3 130 87 88
3 130 88 131
3 29 28 132
3 29 132 131
3 29 131 88
3 137 136 145
3 118 100 94
3 118 94 129
3 118 129 117
3 2 3 117
3 2 117 129
3 3 15 117
3 113 112 11
3 113 11 10
3 113 10 38
3 144 147 146
3 144 146 145
3 144 145 136
3 144 136 135
3 144 135 119
3 144 121 115
3 144 115 148
3 147 144 148
3 104 115 101
3 148 115 104
3 148 104 108
3 32 31 146
3 32 146 147
3 32 147 148
3 32 148 108
3 90 114 33
3 90 33 34
3 90 34 111
3 90 111 110
3 90 110 91
3 100 118 101
3 127 14 13
3 127 13 128
3 133 84 51
3 133 51 53

