ply
format ascii 1.0
element vertex 8
property float x
property float y
property float z
property uchar red
property uchar green
property uchar blue
element face 12
property list uchar int vertex_index
end_header
124.5093338 93.80607183 10.17754039 200 200 200
124.9612821 93.79818304 10.17754039 200 200 200
124.9573315 93.34548318 10.17754039 200 200 200
124.5053831 93.35337196 10.17754039 200 200 200
124.5053831 93.35337196 13.58755061 200 200 200
124.9573315 93.34548318 13.58755061 200 200 200
124.9612821 93.79818304 13.58755061 200 200 200
124.5093338 93.80607183 13.58755061 200 200 200
3 0 1 2
3 0 2 3
3 4 5 6
3 4 6 7
3 4 7 0
3 4 0 3
3 4 3 2
3 4 2 5
3 2 1 6
3 2 6 5
3 7 6 1
3 7 1 0

