ply
format ascii 1.0
element vertex 36
property float x
property float y
property float z
property uchar red
property uchar green
property uchar blue
element face 66
property list uchar int vertex_index
end_header
128.6597865 100.2146327 10.85910354 200 200 200
128.6597865 100.2211263 10.50529521 200 200 200
128.6597865 100.2211263 11.51911756 200 200 200
128.6597865 100.2271055 10.17950969 200 200 200
128.6597865 100.272898 10.17950969 200 200 200
128.6597865 100.272898 12.08808363 200 200 200
128.6597865 100.236866 13.11892362 200 200 200
128.6597865 100.2211263 13.56922143 200 200 200
128.6597865 100.2211263 13.57983731 200 200 200
128.6597865 100.2207552 13.57983731 200 200 200
128.6597865 100.2414007 13.57983731 200 200 200
128.9158245 100.272898 12.40789959 200 200 200
128.9158245 100.272898 13.57983731 200 200 200
128.9158245 100.231934 13.57983731 200 200 200
128.893 99.88675001 10.17950969 200 200 200
128.7916396 99.88675001 10.17950969 200 200 200
128.7916396 99.88675001 13.57983731 200 200 200
128.893 99.88675001 13.57983731 200 200 200
128.7284899 100.272898 13.57983731 200 200 200
128.9096969 100.272898 12.40024563 200 200 200
128.893 100.272898 12.37938956 200 200 200
128.7464401 100.272898 12.19632231 200 200 200
128.7284899 100.272898 13.14608785 200 200 200
128.7202922 100.272898 13.57983731 200 200 200
128.7284899 100.272898 12.17390079 200 200 200
128.7845571 100.272898 10.17950969 200 200 200
128.7284899 100.272898 10.17950969 200 200 200
128.893 100.2182848 10.17950969 200 200 200
128.673736 100.231638 10.17950969 200 200 200
128.7577127 100.2589236 10.17950969 200 200 200
128.8590941 100.2294571 13.57983731 200 200 200
128.893 100.2309375 13.57983731 200 200 200
128.8969207 100.2311087 13.57983731 200 200 200
128.893 100.2182848 13.57983731 200 200 200
128.7063899 100.2562445 12.62273669 200 200 200
128.893 100.251017 13.00538344 200 200 200
3 0 1 2
3 1 3 4
3 1 4 5
3 1 5 6
3 1 6 2
3 7 8 9
3 2 6 7
3 8 7 6
3 8 6 10
3 11 12 13
3 14 15 16
3 14 16 17
3 18 12 11
3 18 11 19
3 18 19 20
3 18 20 21
3 18 21 22
3 22 23 18
3 24 22 21
3 24 21 25
3 24 25 26
3 26 4 5
3 26 5 24
3 15 14 27
3 4 3 28
3 4 28 26
3 28 29 25
3 28 25 26
3 30 31 32
3 30 32 13
3 30 13 12
3 30 12 18
3 30 18 8
3 30 8 9
3 16 17 33
3 8 18 23
3 8 23 10
3 14 17 33
3 14 33 27
3 34 24 22
3 2 7 34
3 1 0 29
3 1 29 28
3 1 28 3
3 25 29 0
3 25 0 2
3 25 2 34
3 25 34 21
3 6 34 22
3 6 22 23
3 6 23 10
3 30 31 35
3 30 35 20
3 30 20 21
3 30 21 34
3 30 34 7
3 30 7 9
3 34 6 5
3 34 5 24
3 11 19 32
3 11 32 13
3 19 20 35
3 19 35 31
3 19 31 32
3 27 33 16
3 27 16 15

