ply
format ascii 1.0
element vertex 8
property float x
property float y
property float z
property uchar red
property uchar green
property uchar blue
element face 12
property list uchar int vertex_index
end_header
117.6202579 104.8768084 13.58735772 200 200 200
117.6202579 104.8768084 10.18782728 200 200 200
117.2212427 104.8768084 10.18782728 200 200 200
117.2212427 104.8768084 13.58735772 200 200 200
117.6237433 104.4774184 10.18782728 200 200 200
117.2247586 104.4739366 10.18782728 200 200 200
117.2247586 104.4739366 13.58735772 200 200 200
117.6237433 104.4774184 13.58735772 200 200 200
3 0 1 2
3 0 2 3
3 2 1 4
3 2 4 5
3 0 3 6
3 0 6 7
3 0 7 4
3 0 4 1
3 6 3 2
3 6 2 5
3 7 6 5
3 7 5 4

