ply
format ascii 1.0
element vertex 8
property float x
property float y
property float z
property uchar red
property uchar green
property uchar blue
element face 12
property list uchar int vertex_index
end_header
95.1502183 99.86746278 10.18626993 200 200 200
95.14673588 100.2665083 10.18626993 200 200 200
95.54788167 100.2630076 10.18626993 200 200 200
95.55136409 99.86396203 10.18626993 200 200 200
95.55136409 99.86396203 13.58748307 200 200 200
95.54788167 100.2630076 13.58748307 200 200 200
95.14673588 100.2665083 13.58748307 200 200 200
95.1502183 99.86746278 13.58748307 200 200 200
3 0 1 2
3 0 2 3
3 4 5 6
3 4 6 7
3 4 7 0
3 4 0 3
3 3 2 5
3 3 5 4
3 6 1 0
3 6 0 7
3 5 2 1
3 5 1 6

