ply
format ascii 1.0
element vertex 14
property float x
property float y
property float z
property uchar red
property uchar green
property uchar blue
element face 24
property list uchar int vertex_index
end_header
136.161012 100.311 13.58754922 200 200 200
136.161012 100.311 10.23390478 200 200 200
136.161012 100.3119411 10.23390478 200 200 200
136.161012 100.3119411 13.58754922 200 200 200
136.527603 100.311 13.58754922 200 200 200
136.527603 99.81991088 13.58754922 200 200 200
136.527603 99.81991088 10.23390478 200 200 200
136.527603 100.311 10.23390478 200 200 200
136.527603 100.3119411 10.23390478 200 200 200
136.527603 100.3119411 13.58754922 200 200 200
136.526655 99.81991088 13.58754922 200 200 200
136.526655 99.81991088 10.23390478 200 200 200
136.5180831 100.311 10.23390478 200 200 200
136.5180831 100.311 13.58754922 200 200 200
3 0 1 2
3 0 2 3
3 4 5 6
3 4 6 7
3 4 7 8
3 4 8 9
3 10 5 6
3 10 6 11
3 3 9 8
3 3 8 2
3 1 12 7
3 1 7 8
3 1 8 2
3 12 11 6
3 12 6 7
3 13 4 9
3 13 9 3
3 13 3 0
3 13 10 5
3 13 5 4
3 12 1 0
3 12 0 13
3 11 12 13
3 11 13 10

