ply
format ascii 1.0
element vertex 8
property float x
property float y
property float z
property uchar red
property uchar green
property uchar blue
element face 12
property list uchar int vertex_index
end_header
174.2746047 87.31780377 10.29124169 200 200 200
174.2711333 86.92001894 10.29124169 200 200 200
173.8731485 86.92349211 10.29124169 200 200 200
173.8766199 87.32127693 10.29124169 200 200 200
173.8766199 87.32127693 13.58675831 200 200 200
173.8731485 86.92349211 13.58675831 200 200 200
174.2711333 86.92001894 13.58675831 200 200 200
174.2746047 87.31780377 13.58675831 200 200 200
3 0 1 2
3 0 2 3
3 4 5 6
3 4 6 7
3 2 5 4
3 2 4 3
3 7 6 1
3 7 1 0
3 3 4 7
3 3 7 0
3 6 5 2
3 6 2 1

