ply
format ascii 1.0
element vertex 10
property float x
property float y
property float z
property uchar red
property uchar green
property uchar blue
element face 16
property list uchar int vertex_index
end_header
124.8223397 104.5688929 10.18223176 200 200 200
124.8223397 104.8595338 10.18223176 200 200 200
124.8223397 104.8595338 13.58352624 200 200 200
124.8223397 104.8310996 13.58352624 200 200 200
124.406 104.8595338 10.18223176 200 200 200
124.406 104.8595338 13.58352624 200 200 200
124.8113753 104.4726592 10.18223176 200 200 200
124.406 104.4832743 10.18223176 200 200 200
124.7815894 104.4734392 13.58352624 200 200 200
124.406 104.4832743 13.58352624 200 200 200
3 0 1 2
3 0 2 3
3 4 5 2
3 4 2 1
3 0 6 7
3 0 7 4
3 0 4 1
3 8 3 2
3 8 2 5
3 8 5 9
3 9 5 4
3 9 4 7
3 9 7 6
3 9 6 8
3 0 3 8
3 0 8 6

