ply
format ascii 1.0
element vertex 14
property float x
property float y
property float z
property uchar red
property uchar green
property uchar blue
element face 24
property list uchar int vertex_index
end_header
162.2755813 91.47893111 13.58745119 200 200 200
162.2755813 90.97687189 13.58745119 200 200 200
162.2755813 90.97687189 10.17514481 200 200 200
162.2755813 91.47893111 10.17514481 200 200 200
162.7673997 90.97784687 13.58745119 200 200 200
162.7673997 90.97687189 13.58745119 200 200 200
162.7673997 90.97687189 10.17514481 200 200 200
162.7673997 90.97784687 10.17514481 200 200 200
162.2760798 90.97687189 13.58745119 200 200 200
162.2760798 90.97687189 10.17514481 200 200 200
162.2804612 91.47893111 13.58745119 200 200 200
162.2804612 91.47893111 10.17514481 200 200 200
162.2761631 90.98642143 10.17514481 200 200 200
162.2761631 90.98642143 13.58745119 200 200 200
3 0 1 2
3 0 2 3
3 4 5 6
3 4 6 7
3 8 5 6
3 8 6 9
3 8 9 2
3 8 2 1
3 10 11 3
3 10 3 0
3 12 11 3
3 12 3 2
3 12 2 9
3 12 9 6
3 12 6 7
3 13 10 0
3 13 0 1
3 13 1 8
3 13 8 5
3 13 5 4
3 10 11 12
3 10 12 13
3 12 7 4
3 12 4 13

