ply
format ascii 1.0
element vertex 162
property float x
property float y
property float z
property uchar red
property uchar green
property uchar blue
element face 324
property list uchar int vertex_index
end_header
109.4021739 93.89265346 11.92851778 200 200 200
109.4021739 95.07363207 11.47638813 200 200 200
109.4021739 95.21089771 11.42383692 200 200 200
109.4021739 93.8671059 13.58775822 200 200 200
109.4021739 93.79011545 13.58775822 200 200 200
109.4021739 95.27645086 11.31827602 200 200 200
109.4021739 95.71649885 10.60966238 200 200 200
109.4021739 95.71934559 10.7691883 200 200 200
109.4021739 94.39860945 13.58775822 200 200 200
109.4021739 95.72650371 11.17031566 200 200 200
109.4021739 95.76964299 13.58775822 200 200 200
109.4021739 95.76406641 10.59506302 200 200 200
109.4021739 95.71556949 10.55758275 200 200 200
109.4021739 95.70839215 10.15537878 200 200 200
109.4021739 95.79277681 10.15537878 200 200 200
109.4021739 95.78638921 10.61231493 200 200 200
109.4021739 95.92212864 10.71721951 200 200 200
109.4021739 96.2499008 13.36681939 200 200 200
109.4021739 96.2499008 13.58775822 200 200 200
109.4021739 95.91674485 10.67369874 200 200 200
109.4021739 95.85262541 10.15537878 200 200 200
109.4021739 95.9215061 10.71218711 200 200 200
109.4021739 96.04407353 10.68026063 200 200 200
109.4021739 96.2499008 10.62664655 200 200 200
109.6710161 94.75457691 10.16493195 200 200 200
109.6710161 95.43012282 10.15551469 200 200 200
109.6710161 95.42613334 10.22007133 200 200 200
109.6710161 95.44122333 10.22131033 200 200 200
109.6710161 95.43013122 10.15537878 200 200 200
109.6710161 95.48216672 10.15537878 200 200 200
109.6710161 95.65273447 10.23867684 200 200 200
109.6710161 95.65124802 10.15537878 200 200 200
109.6710161 95.87606646 10.15537878 200 200 200
109.6710161 95.8651001 10.1866421 200 200 200
109.6710161 95.82500682 10.15537878 200 200 200
109.423 96.2499008 13.34614848 200 200 200
109.423 96.2499008 13.58775822 200 200 200
109.423 96.2499008 10.77137192 200 200 200
109.423 96.2499008 10.56464089 200 200 200
109.423 95.2751536 10.15537878 200 200 200
109.423 95.25297912 10.15537878 200 200 200
109.4943591 95.306752 10.15537878 200 200 200
109.4927787 95.31875618 10.15537878 200 200 200
109.5666099 94.75795375 10.15537878 200 200 200
109.5411107 95.34198178 10.15537878 200 200 200
109.5408142 95.34877206 10.15537878 200 200 200
109.423 95.70396544 10.15537878 200 200 200
109.423 95.78499026 10.15537878 200 200 200
109.4426137 95.69979641 10.15537878 200 200 200
109.5720471 95.67228451 10.15537878 200 200 200
109.5472836 95.67754816 10.15537878 200 200 200
109.5953174 95.38282942 10.15537878 200 200 200
109.423 95.85518253 10.15537878 200 200 200
109.583965 95.7212634 10.15537878 200 200 200
109.586229 95.72396147 10.15537878 200 200 200
109.573059 95.67206944 10.15537878 200 200 200
109.6209282 95.66189451 10.15537878 200 200 200
109.5473301 95.87044835 10.15537878 200 200 200
109.6595903 95.81139016 10.15537878 200 200 200
109.6618076 95.88450443 10.15537878 200 200 200
109.6325052 95.7066595 10.15537878 200 200 200
109.423 93.80312902 13.58775822 200 200 200
109.423 93.82709933 13.58775822 200 200 200
109.423 93.9396052 13.58775822 200 200 200
109.423 94.24041997 13.58775822 200 200 200
109.423 95.06303886 13.58775822 200 200 200
109.423 95.76521627 13.58775822 200 200 200
109.423 95.70927797 10.45308288 200 200 200
109.423 95.51113305 10.87594199 200 200 200
109.423 95.27466004 11.25673683 200 200 200
109.423 95.20598624 11.27462505 200 200 200
109.423 95.20798146 11.24233893 200 200 200
109.423 95.20954927 11.21696919 200 200 200
109.423 95.21291435 11.16251644 200 200 200
109.423 95.70642831 10.29339359 200 200 200
109.423 94.65535539 11.30774992 200 200 200
109.423 93.95423286 11.14263959 200 200 200
109.423 94.01417657 10.17264796 200 200 200
109.423 95.9198798 10.67836971 200 200 200
109.423 95.93059825 10.64781312 200 200 200
109.423 95.91655236 10.65147181 200 200 200
109.423 95.76771477 10.56560069 200 200 200
109.423 95.7586606 10.55860329 200 200 200
109.423 95.75467904 10.61957886 200 200 200
109.423 95.90769598 10.7131038 200 200 200
109.423 95.91854692 10.68216951 200 200 200
109.423 96.04940765 10.61686554 200 200 200
109.423 96.01954803 10.75245838 200 200 200
109.423 95.92811635 10.74495122 200 200 200
109.423 95.96159835 11.01560844 200 200 200
109.423 95.92054045 10.68371018 200 200 200
109.423 95.72329892 11.23879008 200 200 200
109.423 95.72637858 11.41136842 200 200 200
109.423 93.94665632 11.26524103 200 200 200
109.423 93.9396052 11.26466209 200 200 200
109.423 93.9396052 10.1736875 200 200 200
109.423 95.7117812 10.59335942 200 200 200
109.423 95.72135587 11.12990527 200 200 200
109.423 94.75758129 11.33182353 200 200 200
109.423 94.76597243 11.3325125 200 200 200
109.423 95.19962461 11.37756713 200 200 200
109.423 95.16800963 11.42847704 200 200 200
109.423 93.9396052 13.4065889 200 200 200
109.423 95.18800969 11.56551636 200 200 200
109.423 95.27751063 11.37451329 200 200 200
109.423 94.60958562 11.31967207 200 200 200
109.423 95.20020558 11.36816601 200 200 200
109.423 94.93598334 11.34647156 200 200 200
109.423 94.89172818 11.36341435 200 200 200
109.423 93.91754109 11.73637526 200 200 200
109.423 93.9396052 11.72792816 200 200 200
109.5072772 94.02342778 10.87511234 200 200 200
109.5254886 94.04001732 10.79080941 200 200 200
109.6410743 94.1453089 10.25575032 200 200 200
109.6589349 94.16157884 10.17307156 200 200 200
109.6569267 94.06300628 10.17442459 200 200 200
109.6510979 93.77690465 10.17835168 200 200 200
109.4337625 94.66382726 11.27349987 200 200 200
109.4466829 94.72894468 11.21806987 200 200 200
109.4353357 94.82814304 11.27959092 200 200 200
109.48828 94.93858873 11.03961425 200 200 200
109.5660442 95.33051021 10.70599834 200 200 200
109.5281683 95.29600761 10.88132986 200 200 200
109.4880645 95.25947544 11.066975 200 200 200
109.4899354 95.2689043 11.05894885 200 200 200
109.4842182 95.70820088 11.12191096 200 200 200
109.5239583 95.69640074 10.93400832 200 200 200
109.4347692 95.21640734 11.31413527 200 200 200
109.4233211 94.93317659 11.34473086 200 200 200
109.4568118 95.10196583 11.20105213 200 200 200
109.4356672 95.21174467 11.30952794 200 200 200
109.4854711 95.74303315 10.44022953 200 200 200
109.481331 95.7154102 10.43476049 200 200 200
109.4774309 95.74453201 10.46331232 200 200 200
109.5836452 95.72473152 10.15838033 200 200 200
109.5097529 95.90504023 10.47230512 200 200 200
109.568291 95.89121801 10.30246901 200 200 200
109.4785824 95.69707181 10.43112969 200 200 200
109.4490901 95.91601498 10.62123214 200 200 200
109.4809994 95.93877068 10.47300237 200 200 200
109.6352364 95.88168636 10.23282506 200 200 200
109.6138241 95.89161239 10.26046321 200 200 200
109.4372112 95.75497182 10.53372413 200 200 200
109.427204 95.21300539 11.20355221 200 200 200
109.4160934 95.27525394 11.27714534 200 200 200
109.4176498 95.2015879 11.29169982 200 200 200
109.423 94.94837202 11.34172864 200 200 200
109.5654438 94.76290878 10.1637068 200 200 200
109.4881776 95.97494805 10.44220705 200 200 200
109.5072324 96.07098186 10.36046004 200 200 200
109.4149318 95.71317824 10.57554457 200 200 200
109.4324755 95.27384524 11.22873755 200 200 200
109.4350049 95.21050364 11.32291279 200 200 200
109.4741603 96.05078744 10.51436999 200 200 200
109.4179183 95.71173451 10.53021394 200 200 200
109.423 95.91447897 10.63471121 200 200 200
109.461412 95.91029974 10.56280194 200 200 200
109.423 95.88995958 10.43650474 200 200 200
109.5037566 95.89065905 10.36200412 200 200 200
109.6055101 93.80942211 10.17741949 200 200 200
109.5924574 94.12004646 10.17295221 200 200 200
109.6451668 94.15297708 10.17304684 200 200 200
3 0 1 2
3 0 2 3
3 0 3 4
3 2 5 6
3 2 6 7
3 2 7 8
3 2 8 3
3 7 9 10
3 7 10 8
3 11 9 7
3 11 7 6
3 11 6 12
3 11 12 13
3 11 13 14
3 9 11 15
3 9 15 16
3 9 16 17
3 9 17 18
3 9 18 10
3 19 15 11
3 19 11 14
3 19 14 20
3 16 21 22
3 16 22 23
3 16 23 17
3 24 25 26
3 27 26 25
3 27 25 28
3 27 28 29
3 30 27 29
3 30 29 31
3 32 33 34
3 35 17 18
3 35 18 36
3 35 37 38
3 35 38 23
3 35 23 17
3 39 40 41
3 39 41 42
3 43 44 45
3 43 45 42
3 43 42 41
3 46 47 14
3 46 14 13
3 46 39 42
3 46 42 48
3 28 29 49
3 28 49 50
3 28 50 48
3 28 48 42
3 28 42 45
3 28 45 51
3 44 51 45
3 47 52 20
3 47 20 14
3 47 46 48
3 47 48 50
3 47 50 53
3 47 53 54
3 53 50 49
3 53 49 55
3 56 55 49
3 56 49 29
3 56 29 31
3 57 52 47
3 57 47 54
3 57 54 58
3 57 58 34
3 57 34 32
3 57 32 59
3 54 53 55
3 54 55 56
3 54 56 60
3 61 62 3
3 61 3 4
3 62 63 64
3 62 64 8
3 62 8 3
3 64 65 66
3 64 66 10
3 64 10 8
3 66 36 18
3 66 18 10
3 67 68 69
3 67 69 70
3 67 70 71
3 67 71 72
3 67 72 73
3 67 73 39
3 67 39 46
3 67 46 74
3 73 75 76
3 73 76 77
3 73 77 40
3 73 40 39
3 78 79 80
3 81 82 83
3 81 83 84
3 81 84 85
3 38 86 87
3 38 87 37
3 88 89 87
3 37 87 89
3 37 89 35
3 90 85 84
3 90 84 91
3 90 91 92
3 90 92 66
3 90 66 36
3 90 36 35
3 90 35 89
3 90 89 88
3 76 93 94
3 76 94 95
3 76 95 77
3 83 96 97
3 84 83 97
3 84 97 91
3 98 75 73
3 98 73 72
3 98 72 99
3 68 69 100
3 68 100 101
3 68 101 102
3 68 102 63
3 68 63 64
3 68 64 103
3 68 103 104
3 98 105 93
3 98 93 76
3 98 76 75
3 101 100 106
3 101 106 107
3 101 107 108
3 92 104 103
3 92 103 65
3 92 65 66
3 109 61 62
3 109 62 102
3 109 102 110
3 102 101 108
3 102 108 110
3 102 62 63
3 65 103 64
3 94 93 111
3 94 111 112
3 94 112 113
3 94 113 114
3 94 114 115
3 94 115 116
3 112 111 117
3 112 117 118
3 117 98 99
3 117 99 119
3 117 119 118
3 118 120 113
3 118 113 112
3 24 114 113
3 24 113 120
3 24 120 121
3 24 121 26
3 118 119 122
3 118 122 121
3 118 121 120
3 26 121 122
3 26 122 123
3 26 123 124
3 26 124 27
3 92 125 126
3 92 126 30
3 92 30 27
3 92 27 124
3 92 124 127
3 92 127 104
3 123 122 119
3 123 119 128
3 123 128 129
3 107 106 130
3 107 130 129
3 107 129 128
3 129 130 123
3 130 127 124
3 130 124 123
3 93 105 117
3 93 117 111
3 98 117 105
3 131 132 133
3 134 131 135
3 134 135 136
3 96 83 133
3 96 133 132
3 96 132 137
3 138 139 79
3 138 79 78
3 33 140 141
3 33 141 59
3 33 59 32
3 90 16 15
3 90 15 81
3 90 81 85
3 142 82 81
3 61 109 0
3 61 0 4
3 143 119 99
3 143 99 72
3 69 144 145
3 69 145 70
3 145 146 71
3 107 146 145
3 107 145 144
3 107 144 2
3 107 2 1
3 107 1 108
3 110 108 1
3 110 1 0
3 110 0 109
3 44 43 147
3 71 146 128
3 71 128 119
3 71 119 143
3 107 128 146
3 86 22 21
3 86 21 80
3 86 80 79
3 22 86 38
3 22 38 23
3 139 148 149
3 139 149 86
3 139 86 79
3 5 144 69
3 5 69 68
3 5 68 150
3 5 150 6
3 5 2 144
3 151 69 68
3 127 152 100
3 127 100 69
3 127 69 151
3 141 140 58
3 141 58 54
3 141 54 134
3 141 134 136
3 33 34 58
3 33 58 140
3 153 148 139
3 153 139 138
3 153 138 88
3 153 88 87
3 153 149 148
3 149 153 87
3 149 87 86
3 74 46 13
3 74 13 12
3 74 12 154
3 74 154 67
3 6 150 154
3 6 154 12
3 31 30 126
3 31 126 97
3 31 97 96
3 31 96 137
3 31 137 56
3 126 125 91
3 126 91 97
3 125 92 91
3 19 155 81
3 19 81 15
3 155 156 135
3 155 135 131
3 155 131 142
3 155 142 81
3 60 56 137
3 60 137 132
3 60 132 131
3 133 142 131
3 82 142 133
3 82 133 83
3 60 131 134
3 60 134 54
3 67 154 150
3 67 150 68
3 43 41 147
3 127 151 68
3 127 68 104
3 130 152 127
3 71 70 145
3 28 51 25
3 72 71 143
3 106 100 152
3 106 152 130
3 52 157 155
3 52 155 19
3 52 19 20
3 78 80 21
3 78 21 16
3 78 16 90
3 157 52 57
3 157 57 158
3 156 155 157
3 156 157 158
3 135 156 158
3 135 158 136
3 136 158 57
3 136 57 59
3 136 59 141
3 78 90 88
3 78 88 138
3 116 159 95
3 116 95 94
3 40 77 160
3 40 160 147
3 40 147 41
3 77 95 159
3 77 159 160
3 160 159 116
3 160 116 115
3 160 115 161
3 114 161 115
3 160 161 147
3 147 161 114
3 147 114 24
3 147 24 25
3 147 25 51
3 147 51 44

