ply
format ascii 1.0
element vertex 8
property float x
property float y
property float z
property uchar red
property uchar green
property uchar blue
element face 12
property list uchar int vertex_index
end_header
162.2049407 82.5959567 13.58742956 200 200 200
162.2049407 82.5959567 10.17694544 200 200 200
162.6039559 82.5959567 10.17694544 200 200 200
162.6039559 82.5959567 13.58742956 200 200 200
162.2059616 82.7129399 10.17694544 200 200 200
162.6050072 82.71642232 10.17694544 200 200 200
162.6050072 82.71642232 13.58742956 200 200 200
162.2059616 82.7129399 13.58742956 200 200 200
3 0 1 2
3 0 2 3
3 2 1 4
3 2 4 5
3 6 7 0
3 6 0 3
3 6 5 4
3 6 4 7
3 0 7 4
3 0 4 1
3 3 2 5
3 3 5 6

