ply
format ascii 1.0
element vertex 8
property float x
property float y
property float z
property uchar red
property uchar green
property uchar blue
element face 12
property list uchar int vertex_index
end_header
109.116 104.8649785 10.17961099 200 200 200
108.568 104.8649785 10.17961099 200 200 200
108.568 104.8649785 13.58781101 200 200 200
109.116 104.8649785 13.58781101 200 200 200
108.568 104.3715431 10.17961099 200 200 200
109.116 104.3667608 10.17961099 200 200 200
109.116 104.3667608 13.58781101 200 200 200
108.568 104.3715431 13.58781101 200 200 200
3 0 1 2
3 0 2 3
3 4 1 0
3 4 0 5
3 6 3 2
3 6 2 7
3 6 7 4
3 6 4 5
3 2 1 4
3 2 4 7
3 6 5 0
3 6 0 3

