ply
format ascii 1.0
element vertex 8
property float x
property float y
property float z
property uchar red
property uchar green
property uchar blue
element face 12
property list uchar int vertex_index
end_header
128.887168 82.5905515 10.75228492 200 200 200
129.2811829 82.5905515 10.75228492 200 200 200
129.2811829 82.5905515 13.58630408 200 200 200
128.887168 82.5905515 13.58630408 200 200 200
129.2801091 82.7136 10.75228492 200 200 200
128.8860941 82.7136 10.75228492 200 200 200
128.8860941 82.7136 13.58630408 200 200 200
129.2801091 82.7136 13.58630408 200 200 200
3 0 1 2
3 0 2 3
3 4 1 0
3 4 0 5
3 6 3 2
3 6 2 7
3 4 5 6
3 4 6 7
3 4 7 2
3 4 2 1
3 3 6 5
3 3 5 0

