ply
format ascii 1.0
element vertex 239
property float x
property float y
property float z
property uchar red
property uchar green
property uchar blue
element face 464
property list uchar int vertex_index
end_header
109.07309039 90.571806137 10.19460894 200 200 200
109.07309039 91.043497018 10.192001652 200 200 200
109.07309039 91.287816677 10.216971084 200 200 200
109.07309039 91.346146223 10.320757155 200 200 200
109.07309039 90.80035879 10.325439906 200 200 200
109.07309039 91.687830717 10.1917 200 200 200
109.07309039 91.687830717 10.323632804 200 200 200
109.07309039 91.4183 10.296086805 200 200 200
109.07309039 91.4183 10.262976146 200 200 200
109.07309039 91.443080995 10.232839075 200 200 200
109.07309039 91.476908674 10.1917 200 200 200
109.07309039 91.273613896 10.1917 200 200 200
109.07309039 91.098069586 10.1917 200 200 200
109.07309039 91.687830717 10.383753579 200 200 200
109.07309039 91.4183 10.383753579 200 200 200
122.12093461 88.514477283 10.168319421 200 200 200
122.12093461 91.687830717 10.168319421 200 200 200
122.12093461 91.687830717 10.1917 200 200 200
122.12093461 90.73 10.1917 200 200 200
122.12093461 88.514477283 10.1917 200 200 200
119.11858518 88.514477283 10.1917 200 200 200
119.14968804 88.514477283 10.168319421 200 200 200
117.74545564 88.514477283 10.168319421 200 200 200
117.57878389 88.514477283 10.1917 200 200 200
115.40744129 88.514477283 10.1917 200 200 200
110.16628407 88.514477283 10.1917 200 200 200
109.59813141 88.514477283 10.2714 200 200 200
115.55248134 88.514477283 10.2714 200 200 200
115.66429677 88.514477283 10.255231042 200 200 200
109.29061538 88.514477283 10.1917 200 200 200
109.30576962 88.514477283 10.242811189 200 200 200
109.31424607 88.514477283 10.2714 200 200 200
115.81188993 91.687830717 10.383753579 200 200 200
115.9705277 91.687830717 10.3615 200 200 200
113.48797276 91.687830717 10.3615 200 200 200
113.48851737 91.687830717 10.383753579 200 200 200
113.33212008 91.687830717 10.383753579 200 200 200
113.48746863 91.687830717 10.3409 200 200 200
113.48576779 91.687830717 10.2714 200 200 200
113.48552349 91.687830717 10.261417465 200 200 200
113.3079042 91.687830717 10.323287083 200 200 200
116.1173777 91.687830717 10.3409 200 200 200
113.13431308 91.687830717 10.383753579 200 200 200
113.48381733 91.687830717 10.1917 200 200 200
113.25520566 91.687830717 10.1917 200 200 200
116.61281823 91.687830717 10.2714 200 200 200
117.1809709 91.687830717 10.1917 200 200 200
113.68567288 91.687830717 10.1917 200 200 200
113.00809446 91.687830717 10.1917 200 200 200
113.01152166 91.687830717 10.383753579 200 200 200
117.38469407 91.687830717 10.1917 200 200 200
119.34048771 91.687830717 10.1917 200 200 200
119.37159057 91.687830717 10.168319421 200 200 200
117.55136581 91.687830717 10.168319421 200 200 200
121.00834201 91.687830717 10.1917 200 200 200
112.13164138 91.687830717 10.1917 200 200 200
112.64975322 91.687830717 10.383753579 200 200 200
111.52338824 91.687830717 10.383753579 200 200 200
117.56785095 91.4183 10.168319421 200 200 200
117.57411759 91.315840955 10.168319421 200 200 200
117.66544743 89.822605351 10.168319421 200 200 200
117.7320951 88.732921114 10.168319421 200 200 200
109.24576538 91.4183 10.383753579 200 200 200
109.47434195 91.4183 10.383753579 200 200 200
112.16260781 91.4183 10.383753579 200 200 200
112.64606011 91.4183 10.383753579 200 200 200
112.86801454 91.4183 10.383753579 200 200 200
112.85408 91.435507751 10.383753579 200 200 200
113.22365015 91.4183 10.383753579 200 200 200
113.22865704 91.4183 10.383753579 200 200 200
113.83153107 91.4183 10.383753579 200 200 200
114.07416175 91.4183 10.383753579 200 200 200
115.82837507 91.4183 10.383753579 200 200 200
113.23186655 91.426661061 10.383753579 200 200 200
113.03124711 91.595029714 10.383753579 200 200 200
112.92157878 91.352153564 10.383753579 200 200 200
113.09154549 91.311348007 10.383753579 200 200 200
113.02867881 91.219895814 10.383753579 200 200 200
113.11339404 91.306102614 10.383753579 200 200 200
113.09235222 91.141265578 10.383753579 200 200 200
113.11510097 91.20052815 10.383753579 200 200 200
113.15206347 91.296818869 10.383753579 200 200 200
113.18269937 91.3766282 10.383753579 200 200 200
109.99878842 91.253018081 10.1917 200 200 200
110.00708827 91.117316165 10.1917 200 200 200
112.99908309 90.616627662 10.1917 200 200 200
112.89387966 90.746543295 10.1917 200 200 200
112.87355353 90.771644014 10.1917 200 200 200
112.7869376 90.878605953 10.1917 200 200 200
112.4663075 91.274551803 10.1917 200 200 200
110.32661146 91.25587895 10.1917 200 200 200
113.52041722 89.972832571 10.1917 200 200 200
113.32002944 90.22029127 10.1917 200 200 200
110.02577279 90.811825733 10.1917 200 200 200
110.0422396 90.542594704 10.1917 200 200 200
113.84861162 89.269000044 10.1917 200 200 200
113.84597787 89.570797984 10.1917 200 200 200
109.39750529 90.962660001 10.1917 200 200 200
110.12419196 89.202679975 10.1917 200 200 200
115.18383936 88.822238954 10.1917 200 200 200
115.08319943 88.855912614 10.1917 200 200 200
109.07918492 91.272594021 10.1917 200 200 200
113.83632478 90.676933776 10.1917 200 200 200
113.83807631 90.476228268 10.1917 200 200 200
114.00208647 90.448782363 10.1917 200 200 200
113.84314554 89.895352056 10.1917 200 200 200
114.52271271 89.732201777 10.1917 200 200 200
115.16345119 88.850300868 10.1917 200 200 200
113.23412187 91.28125242 10.1917 200 200 200
113.11694197 91.175743182 10.1917 200 200 200
113.24451556 90.575556328 10.1917 200 200 200
113.83100552 91.286461347 10.1917 200 200 200
113.02783596 91.095511783 10.1917 200 200 200
112.9820492 91.054285198 10.1917 200 200 200
113.38632865 91.4183 10.1917 200 200 200
113.21895011 91.4183 10.1917 200 200 200
113.10866138 91.306069424 10.1917 200 200 200
113.09868132 91.280070448 10.1917 200 200 200
113.09616172 91.273506648 10.1917 200 200 200
113.09477379 91.280036347 10.1917 200 200 200
113.15174262 91.4183 10.1917 200 200 200
113.06538496 91.4183 10.1917 200 200 200
112.34990269 91.4183 10.1917 200 200 200
113.82985498 91.4183 10.1917 200 200 200
117.54873867 89.005714395 10.1917 200 200 200
117.49624014 89.864061241 10.1917 200 200 200
117.44327727 90.73 10.1917 200 200 200
119.27350965 90.73 10.1917 200 200 200
120.20462453 90.73 10.1917 200 200 200
117.40733388 91.317671505 10.1917 200 200 200
117.4011792 91.4183 10.1917 200 200 200
109.98867938 91.4183 10.1917 200 200 200
109.08623879 91.474590256 10.1917 200 200 200
109.40547649 91.4183 10.1917 200 200 200
117.19745604 91.4183 10.1917 200 200 200
109.26906894 91.4183 10.220950936 200 200 200
109.20979856 91.4183 10.233660747 200 200 200
109.3317479 91.4183 10.236652909 200 200 200
109.43145262 91.4183 10.239099275 200 200 200
109.6181346 91.4183 10.243679725 200 200 200
109.29384195 91.4183 10.30150319 200 200 200
109.44102963 91.4183 10.2714 200 200 200
110.74790932 91.4183 10.2714 200 200 200
109.45109911 91.4183 10.305361668 200 200 200
112.56491308 91.4183 10.2714 200 200 200
113.83055054 91.4183 10.2714 200 200 200
116.62930337 91.4183 10.2714 200 200 200
111.73908748 91.4183 10.3615 200 200 200
112.27726062 91.4183 10.374704675 200 200 200
112.85200536 91.4183 10.377819301 200 200 200
109.46774387 91.4183 10.3615 200 200 200
113.90090508 91.4183 10.3409 200 200 200
116.13386284 91.4183 10.3409 200 200 200
113.83100619 91.4183 10.323611097 200 200 200
113.83115708 91.4183 10.3409 200 200 200
113.58616726 91.4183 10.2714 200 200 200
113.22160472 91.4183 10.300172881 200 200 200
113.22260141 91.4183 10.3409 200 200 200
113.22090057 91.4183 10.2714 200 200 200
113.98419071 91.4183 10.3615 200 200 200
115.98701284 91.4183 10.3615 200 200 200
113.83133686 91.4183 10.3615 200 200 200
113.22310555 91.4183 10.3615 200 200 200
113.22332428 91.4183 10.3704378 200 200 200
109.55615364 89.200810512 10.2714 200 200 200
109.43248977 91.222704948 10.2714 200 200 200
109.44069865 91.088490502 10.2714 200 200 200
109.47373193 90.548399018 10.2714 200 200 200
114.54356165 88.852057193 10.2714 200 200 200
113.8509233 89.083810815 10.2714 200 200 200
113.84433864 89.838338417 10.2714 200 200 200
113.65040643 90.07782515 10.2714 200 200 200
113.83311132 91.124863399 10.2714 200 200 200
115.53475914 88.782745957 10.2714 200 200 200
113.24543437 90.577924809 10.2714 200 200 200
113.10845247 91.222374328 10.2714 200 200 200
113.15979009 91.356113549 10.2714 200 200 200
113.83235328 91.211725334 10.2714 200 200 200
111.3409118 91.275932146 10.2714 200 200 200
112.67080194 91.287537927 10.2714 200 200 200
112.81480091 91.109713717 10.2714 200 200 200
112.86126629 91.052333658 10.2714 200 200 200
112.96435244 90.925032661 10.2714 200 200 200
112.98467857 90.899931942 10.2714 200 200 200
113.00341042 90.876799987 10.2714 200 200 200
109.42849898 91.378656325 10.234975227 200 200 200
109.67478858 91.334011579 10.236455529 200 200 200
110.08104729 91.260369343 10.238897311 200 200 200
113.09667609 90.71372839 10.257022484 200 200 200
113.15309189 90.691958467 10.2714 200 200 200
109.91193817 91.263461677 10.2714 200 200 200
109.43791854 91.347044179 10.2714 200 200 200
109.7749025 91.265967514 10.297738186 200 200 200
109.44421569 91.325910886 10.295750622 200 200 200
113.22765029 90.663187616 10.290401142 200 200 200
113.30874395 90.631894915 10.31106779 200 200 200
112.67595744 90.740095287 10.315174723 200 200 200
113.18262554 91.37846459 10.306996145 200 200 200
113.20437535 91.399753032 10.3409 200 200 200
113.21759055 91.4126879 10.3615 200 200 200
113.13842223 91.333290305 10.314733886 200 200 200
113.11353996 91.207022284 10.373631165 200 200 200
113.10623995 91.237391975 10.326293897 200 200 200
113.06684071 91.098168406 10.361360496 200 200 200
113.04993306 91.069605933 10.346519574 200 200 200
109.18037726 91.090367255 10.307901573 200 200 200
109.17835543 91.320356223 10.306211932 200 200 200
109.17801697 91.270723062 10.21779861 200 200 200
109.17876943 91.174705568 10.208004098 200 200 200
109.18100068 90.920785382 10.209760832 200 200 200
113.11754681 91.18453981 10.330372701 200 200 200
113.17715201 90.905293143 10.344355283 200 200 200
113.17189076 90.930517325 10.349976589 200 200 200
113.14672954 91.048129591 10.3409 200 200 200
113.23493632 90.628255967 10.282616491 200 200 200
113.16110544 90.982225711 10.3615 200 200 200
113.20383481 90.78119972 10.3615 200 200 200
109.72722452 91.255998655 10.229769193 200 200 200
113.57841741 90.466887509 10.3615 200 200 200
113.35776731 90.652034977 10.3615 200 200 200
109.78364316 91.172060355 10.222575006 200 200 200
109.4279409 91.107471173 10.273026796 200 200 200
109.247047 91.259477364 10.218343029 200 200 200
109.41755009 91.231700665 10.219687737 200 200 200
109.42618308 91.245479763 10.246775465 200 200 200
109.43387335 91.257754175 10.270905198 200 200 200
109.43403105 91.258005873 10.2714 200 200 200
109.4398482 91.26729062 10.289652479 200 200 200
109.17797709 91.264874451 10.20738027 200 200 200
113.33283748 90.633082802 10.320355343 200 200 200
112.83897231 91.310199491 10.340539677 200 200 200
112.83751655 91.298124896 10.336375623 200 200 200
113.07093749 91.045651091 10.347114966 200 200 200
113.14553361 90.960576762 10.349229468 200 200 200
112.96981428 91.160978671 10.344248526 200 200 200
112.84892451 91.298849343 10.340821782 200 200 200
112.94845036 91.305169587 10.379611148 200 200 200
113.00867314 91.199872261 10.37032741 200 200 200
113.42855375 90.637801914 10.357251962 200 200 200
3 0 1 2
3 0 2 3
3 0 3 4
3 5 6 7
3 5 7 8
3 5 8 9
3 5 9 10
3 11 2 1
3 11 1 12
3 6 13 14
3 6 14 7
3 15 16 17
3 15 17 18
3 15 18 19
3 20 21 22
3 20 22 23
3 15 21 20
3 15 20 19
3 24 25 26
3 24 26 27
3 24 27 28
3 25 29 30
3 25 30 31
3 25 31 26
3 32 33 34
3 32 34 35
3 36 35 34
3 36 34 37
3 36 37 38
3 36 38 39
3 36 39 40
3 33 41 37
3 33 37 34
3 40 42 36
3 43 44 40
3 43 40 39
3 45 46 47
3 45 47 39
3 45 39 38
3 38 37 41
3 38 41 45
3 40 44 48
3 40 48 49
3 40 49 42
3 43 39 47
3 50 51 52
3 50 52 53
3 16 52 51
3 16 51 54
3 16 54 17
3 48 55 56
3 48 56 49
3 6 57 56
3 6 56 55
3 6 55 5
3 6 13 57
3 21 52 53
3 21 53 58
3 21 58 59
3 21 59 60
3 21 60 61
3 21 61 22
3 16 52 21
3 16 21 15
3 57 13 14
3 57 14 62
3 57 62 63
3 57 63 64
3 57 64 65
3 57 65 66
3 57 66 67
3 57 67 56
3 68 69 70
3 68 70 71
3 68 71 72
3 68 72 32
3 68 32 35
3 68 35 73
3 56 67 74
3 56 74 49
3 66 75 76
3 66 76 74
3 66 74 67
3 76 75 77
3 76 77 78
3 77 79 80
3 77 80 81
3 77 81 78
3 76 78 82
3 76 82 68
3 76 68 73
3 76 73 36
3 76 36 42
3 76 42 74
3 73 35 36
3 49 74 42
3 81 82 78
3 83 84 85
3 83 85 86
3 83 86 87
3 83 87 88
3 83 88 89
3 83 89 90
3 91 92 85
3 91 85 84
3 91 84 93
3 93 94 95
3 93 95 96
3 93 96 91
3 97 29 25
3 97 25 98
3 97 98 94
3 97 94 93
3 98 25 24
3 98 24 99
3 98 99 100
3 95 94 98
3 95 98 100
3 11 12 101
3 102 103 104
3 105 106 104
3 105 104 103
3 106 105 96
3 106 96 95
3 106 95 100
3 106 100 107
3 108 109 110
3 108 110 103
3 108 103 102
3 108 102 111
3 103 110 92
3 103 92 91
3 103 91 105
3 96 105 91
3 109 112 86
3 109 86 85
3 109 85 110
3 92 110 85
3 87 86 112
3 87 112 113
3 87 113 88
3 108 114 115
3 108 115 116
3 108 116 117
3 108 117 118
3 108 118 109
3 118 119 89
3 118 89 88
3 118 88 113
3 118 113 112
3 118 112 109
3 120 121 119
3 120 119 117
3 120 117 116
3 119 118 117
3 89 119 121
3 89 121 122
3 120 116 115
3 114 108 111
3 114 111 123
3 23 124 125
3 23 125 126
3 23 126 127
3 23 127 20
3 127 128 18
3 127 18 19
3 127 19 20
3 18 128 54
3 18 54 17
3 129 130 50
3 129 50 51
3 129 51 127
3 129 127 126
3 128 127 51
3 128 51 54
3 47 43 115
3 47 115 114
3 43 44 120
3 43 120 115
3 120 44 48
3 120 48 121
3 131 122 55
3 131 55 5
3 131 5 10
3 131 10 132
3 131 132 133
3 55 122 121
3 55 121 48
3 134 46 47
3 134 47 114
3 134 114 123
3 135 136 137
3 135 137 138
3 135 138 139
3 135 139 131
3 135 131 133
3 8 7 140
3 8 140 137
3 8 137 136
3 141 142 139
3 141 139 138
3 140 143 141
3 140 141 138
3 140 138 137
3 142 144 122
3 142 122 131
3 142 131 139
3 145 146 134
3 145 134 123
3 14 62 140
3 14 140 7
3 141 143 147
3 141 147 148
3 141 148 65
3 141 65 66
3 141 66 149
3 141 149 144
3 141 144 142
3 150 147 143
3 62 63 150
3 62 150 143
3 62 143 140
3 151 152 146
3 151 146 145
3 151 145 153
3 154 151 153
3 155 156 157
3 155 157 154
3 155 154 153
3 155 153 145
3 158 156 155
3 150 63 64
3 150 64 148
3 150 148 147
3 148 64 65
3 151 159 160
3 151 160 152
3 151 154 161
3 151 161 159
3 72 160 159
3 72 159 71
3 161 70 71
3 161 71 159
3 154 157 162
3 154 162 161
3 163 69 70
3 163 70 161
3 163 161 162
3 68 69 163
3 164 26 31
3 164 31 165
3 164 165 166
3 164 166 167
3 164 168 27
3 164 27 26
3 169 168 164
3 169 164 167
3 170 169 167
3 170 167 166
3 170 166 171
3 168 169 170
3 168 170 172
3 168 172 173
3 171 174 175
3 171 175 176
3 171 176 158
3 171 158 155
3 171 155 177
3 171 177 172
3 171 172 170
3 178 179 180
3 178 180 181
3 178 181 182
3 178 182 183
3 178 183 184
3 145 177 155
3 23 22 61
3 23 61 124
3 59 129 126
3 59 126 125
3 59 125 60
3 60 125 124
3 60 124 61
3 130 129 59
3 130 59 58
3 50 130 58
3 50 58 53
3 185 186 187
3 185 187 188
3 185 188 189
3 185 189 190
3 185 190 191
3 190 192 193
3 190 193 191
3 194 195 196
3 194 196 192
3 194 192 190
3 194 190 189
3 135 133 132
3 136 135 132
3 136 132 10
3 136 10 9
3 136 9 8
3 156 158 176
3 156 176 197
3 198 157 156
3 198 156 197
3 82 68 163
3 82 163 199
3 82 199 198
3 82 198 197
3 82 197 200
3 157 198 199
3 157 199 162
3 162 199 163
3 201 81 82
3 201 82 200
3 201 200 202
3 203 201 202
3 203 202 204
3 81 201 80
3 203 79 80
3 203 80 201
3 205 206 207
3 205 207 208
3 205 208 209
3 28 27 168
3 28 168 100
3 28 100 99
3 175 210 197
3 175 197 176
3 168 173 107
3 168 107 100
3 211 212 213
3 211 213 210
3 211 210 175
3 211 175 174
3 211 174 214
3 211 214 194
3 212 215 216
3 83 90 89
3 83 89 179
3 83 179 178
3 83 178 187
3 83 187 217
3 102 172 177
3 102 177 145
3 102 145 123
3 102 123 111
3 216 215 218
3 216 218 219
3 99 24 28
3 107 173 172
3 107 172 102
3 107 102 104
3 107 104 106
3 146 45 46
3 146 46 134
3 41 45 146
3 41 146 152
3 33 41 152
3 33 152 160
3 160 72 32
3 160 32 33
3 205 209 0
3 205 0 4
3 84 83 217
3 84 217 220
3 220 93 84
3 221 166 165
3 3 206 205
3 3 205 4
3 208 207 222
3 186 185 223
3 186 223 220
3 186 220 217
3 187 186 217
3 220 223 97
3 220 97 93
3 188 187 178
3 188 178 184
3 97 223 224
3 97 224 30
3 97 30 29
3 225 165 31
3 225 31 30
3 225 30 224
3 185 191 226
3 185 226 225
3 185 225 224
3 185 224 223
3 225 226 165
3 193 227 226
3 193 226 191
3 165 226 227
3 165 227 221
3 222 207 228
3 11 101 228
3 11 228 207
3 11 207 2
3 2 207 206
3 2 206 3
3 196 195 229
3 227 196 229
3 227 229 171
3 227 171 166
3 227 166 221
3 193 192 196
3 193 196 227
3 122 144 179
3 122 179 89
3 189 188 184
3 214 195 194
3 174 171 229
3 174 229 195
3 174 195 214
3 230 231 179
3 230 179 144
3 230 144 149
3 231 180 179
3 194 189 184
3 194 184 183
3 194 183 232
3 194 232 233
3 194 233 211
3 204 232 183
3 204 183 182
3 234 204 182
3 234 182 181
3 231 230 235
3 235 230 149
3 235 149 66
3 235 66 75
3 235 75 236
3 231 235 234
3 231 234 181
3 231 181 180
3 237 234 235
3 237 235 236
3 238 218 215
3 238 215 212
3 211 233 212
3 204 234 237
3 204 237 203
3 237 77 79
3 237 79 203
3 237 236 75
3 237 75 77
3 210 213 212
3 210 212 233
3 210 233 232
3 210 202 200
3 210 200 197
3 202 210 232
3 202 232 204
3 218 238 219
3 219 238 212
3 219 212 216
3 0 209 208
3 0 208 1
3 222 228 208
3 228 101 12
3 228 12 1
3 228 1 208

