ply
format ascii 1.0
element vertex 12
property float x
property float y
property float z
property uchar red
property uchar green
property uchar blue
element face 20
property list uchar int vertex_index
end_header
129.1102802 92.5973079 13.4636294 200 200 200
129.1102802 92.5973079 10.1936476 200 200 200
129.1102802 93.0637597 10.1936476 200 200 200
129.1102802 93.0352219 13.4636294 200 200 200
129.1102802 93.0667621 10.1936476 200 200 200
129.1102802 93.0667621 13.4636294 200 200 200
129.11 92.5973079 10.1936476 200 200 200
129.11 92.5973079 13.4636294 200 200 200
129.11 93.0667621 10.1936476 200 200 200
129.11 93.0667621 13.4636294 200 200 200
129.11 93.06375725 10.1936476 200 200 200
129.11 93.03521946 13.4636294 200 200 200
3 0 1 2
3 0 2 3
3 2 4 5
3 2 5 3
3 0 1 6
3 0 6 7
3 8 9 5
3 8 5 4
3 2 10 6
3 2 6 1
3 10 2 4
3 10 4 8
3 7 0 3
3 7 3 11
3 11 3 5
3 11 5 9
3 10 11 7
3 10 7 6
3 11 10 8
3 11 8 9

