ply
format ascii 1.0
element vertex 66
property float x
property float y
property float z
property uchar red
property uchar green
property uchar blue
element face 128
property list uchar int vertex_index
end_header
87.31481953 95.43529705 11.36078968 200 200 200
87.31481953 95.43529705 10.71930251 200 200 200
87.31481953 95.6321586 10.65036374 200 200 200
87.31481953 95.95532595 10.18231331 200 200 200
87.31481953 95.95532595 10.21302385 200 200 200
87.31481953 95.75229627 10.21681586 200 200 200
87.31481953 95.50378256 10.22145737 200 200 200
87.31481953 95.43529705 10.22273648 200 200 200
87.31481953 95.43529705 10.19202595 200 200 200
86.81637909 95.43529705 13.57503156 200 200 200
86.81637909 95.43529705 12.25602509 200 200 200
86.87690191 95.43529705 13.57392072 200 200 200
86.81637909 95.43529705 11.7024355 200 200 200
86.89886957 95.43529705 13.49868091 200 200 200
86.88763899 95.43529705 13.57372365 200 200 200
86.90230346 95.43529705 13.5734545 200 200 200
87.19209336 95.43529705 11.53935901 200 200 200
87.26924612 95.43529705 11.02382417 200 200 200
87.19209336 95.43529705 11.963773 200 200 200
87.06020559 95.43529705 13.57055637 200 200 200
87.19209336 95.43529705 12.85595759 200 200 200
87.13354826 95.43529705 13.56921024 200 200 200
87.19209336 95.43529705 13.5681357 200 200 200
87.19209336 95.43529705 10.224989 200 200 200
86.81637909 95.43529705 10.23188486 200 200 200
86.81637909 95.43529705 10.20117432 200 200 200
87.16576623 95.95532595 13.55890627 200 200 200
87.18755514 95.95532595 13.55850636 200 200 200
87.18755514 95.95532595 11.38757499 200 200 200
87.16576623 95.95532595 11.53316852 200 200 200
87.25490035 95.95532595 10.21412361 200 200 200
87.16576623 95.95532595 10.18504904 200 200 200
87.16576623 95.95532595 10.21575957 200 200 200
87.16682756 95.95532595 10.21574009 200 200 200
87.18155768 95.95532595 10.21546974 200 200 200
87.18755514 95.95532595 10.21535966 200 200 200
87.16576623 95.95532595 10.40785634 200 200 200
87.17210424 95.95532595 10.33064066 200 200 200
87.18755514 95.95532595 11.03458755 200 200 200
87.18954791 95.72697684 10.94218201 200 200 200
87.11087907 95.70264449 11.98841092 200 200 200
87.19093973 95.56749003 11.50077503 200 200 200
86.81543795 95.54314044 10.22988793 200 200 200
86.81205671 95.93059216 10.22271351 200 200 200
86.81205671 95.93059216 10.19200298 200 200 200
86.81584167 95.49687823 10.23074456 200 200 200
86.81580167 95.50146245 10.45933491 200 200 200
86.8157313 95.50952612 10.86142621 200 200 200
86.81205671 95.93059216 13.56586021 200 200 200
87.18967433 95.7124911 10.21985622 200 200 200
87.18773789 95.93438499 10.21574742 200 200 200
87.18851462 95.84538033 11.41966549 200 200 200
87.18945882 95.73718575 11.4512449 200 200 200
87.18815628 95.88644161 11.40768068 200 200 200
87.18915691 95.77178064 13.56190505 200 200 200
87.18940202 95.74369474 11.77581317 200 200 200
86.88704696 95.44719735 13.57351226 200 200 200
86.99214313 95.66591935 13.56749823 200 200 200
86.91196958 95.93757875 13.56389592 200 200 200
87.01306705 95.59502089 13.56843837 200 200 200
87.01959933 95.57288695 13.56873187 200 200 200
87.07408114 95.63679495 13.5665383 200 200 200
87.05481752 95.70206762 13.56567276 200 200 200
86.98382926 95.94260367 13.56248316 200 200 200
86.96933618 95.94159021 12.85052458 200 200 200
87.1250724 95.95248035 11.80608126 200 200 200
3 0 1 2
3 3 4 5
3 3 5 6
3 3 6 7
3 3 7 8
3 9 10 11
3 10 12 13
3 10 13 14
3 10 14 11
3 14 13 15
3 13 16 17
3 13 17 18
3 13 18 19
3 13 19 15
3 18 20 21
3 18 21 19
3 20 22 21
3 7 23 24
3 7 24 25
3 7 25 8
3 24 23 16
3 24 16 13
3 24 13 12
3 0 20 18
3 0 18 17
3 0 17 1
3 26 27 28
3 26 28 29
3 30 4 3
3 30 3 31
3 30 31 32
3 30 32 33
3 30 33 34
3 30 34 35
3 36 37 33
3 36 33 32
3 35 34 37
3 35 37 36
3 35 36 29
3 35 29 28
3 35 28 38
3 34 33 37
3 39 40 41
3 42 43 44
3 42 44 25
3 42 25 24
3 42 24 45
3 45 46 47
3 45 47 42
3 12 46 45
3 12 45 24
3 47 46 12
3 47 12 10
3 43 42 47
3 43 47 10
3 43 10 9
3 43 9 48
3 39 49 50
3 41 16 23
3 41 23 49
3 41 49 39
3 51 52 39
3 51 39 50
3 51 50 35
3 51 35 38
3 38 28 53
3 38 53 51
3 54 22 20
3 54 20 55
3 54 55 51
3 54 51 53
3 27 54 53
3 27 53 28
3 25 44 31
3 25 31 3
3 25 3 8
3 14 56 11
3 57 58 48
3 57 48 9
3 57 9 11
3 57 11 56
3 57 56 59
3 60 15 19
3 14 15 60
3 14 60 59
3 14 59 56
3 61 60 19
3 61 19 21
3 59 60 61
3 59 61 62
3 59 62 57
3 63 58 57
3 63 57 62
3 27 26 63
3 27 63 62
3 27 62 61
3 27 61 54
3 61 21 22
3 61 22 54
3 32 31 44
3 32 44 43
3 58 64 36
3 58 36 32
3 58 32 43
3 58 43 48
3 36 64 65
3 36 65 29
3 65 64 58
3 65 58 63
3 29 65 63
3 29 63 26
3 20 0 2
3 20 2 51
3 20 51 55
3 17 16 41
3 40 52 41
3 41 52 51
3 41 51 2
3 41 2 1
3 41 1 17
3 23 7 6
3 23 6 50
3 23 50 49
3 6 5 30
3 6 30 35
3 6 35 50
3 5 4 30
3 40 39 52

