ply
format ascii 1.0
element vertex 8
property float x
property float y
property float z
property uchar red
property uchar green
property uchar blue
element face 12
property list uchar int vertex_index
end_header
145.062 82.28461415 13.58782292 200 200 200
144.612 82.28461415 13.58782292 200 200 200
144.612 82.28461415 10.17766108 200 200 200
145.062 82.28461415 10.17766108 200 200 200
144.612 82.757 10.17766108 200 200 200
145.062 82.757 10.17766108 200 200 200
144.612 82.757 13.58782292 200 200 200
145.062 82.757 13.58782292 200 200 200
3 0 1 2
3 0 2 3
3 4 5 3
3 4 3 2
3 6 1 0
3 6 0 7
3 3 5 7
3 3 7 0
3 5 4 6
3 5 6 7
3 1 6 4
3 1 4 2

