ply
format ascii 1.0
element vertex 27
property float x
property float y
property float z
property uchar red
property uchar green
property uchar blue
element face 52
property list uchar int vertex_index
end_header
162.6068064 86.46891933 10.37362542 200 200 200
162.2475599 86.46891933 10.1878461 200 200 200
162.3300896 86.46891933 10.17420597 200 200 200
162.6068064 86.46891933 10.17420597 200 200 200
162.1627389 86.46891933 10.20186493 200 200 200
162.1627389 86.46891933 10.17420597 200 200 200
162.2211836 86.46891933 10.17420597 200 200 200
162.6145418 86.91207867 12.92424076 200 200 200
162.1704743 86.91207867 12.99763421 200 200 200
162.1704743 86.91207867 13.58693403 200 200 200
162.6145418 86.91207867 13.58693403 200 200 200
162.6145418 86.91207867 12.75768475 200 200 200
162.1704743 86.91207867 12.52804145 200 200 200
162.6145418 86.91207867 10.17420597 200 200 200
162.1704743 86.91207867 10.17420597 200 200 200
162.162837 86.47453747 10.17420597 200 200 200
162.5216158 86.47393463 10.17420597 200 200 200
162.1628811 86.47706526 10.17420597 200 200 200
162.6069329 86.47616874 10.17420597 200 200 200
162.606881 86.47319053 10.17420597 200 200 200
162.1628811 86.47706526 13.58693403 200 200 200
162.606881 86.47319053 13.58693403 200 200 200
162.2576515 86.47623821 10.23237208 200 200 200
162.1628811 86.47706526 10.18780467 200 200 200
162.606881 86.47319053 10.39660313 200 200 200
162.1628811 86.47706526 10.25325532 200 200 200
162.6114125 86.73279991 11.79322081 200 200 200
3 0 1 2
3 0 2 3
3 4 5 6
3 4 6 1
3 7 8 9
3 7 9 10
3 7 11 12
3 7 12 8
3 13 14 12
3 13 12 11
3 15 6 5
3 16 17 14
3 16 14 13
3 16 13 18
3 18 19 16
3 16 19 3
3 16 3 2
3 10 9 20
3 10 20 21
3 17 16 22
3 17 22 23
3 22 24 21
3 22 21 20
3 22 20 25
3 15 5 4
3 15 4 25
3 15 25 23
3 23 12 14
3 23 14 17
3 12 23 25
3 12 25 8
3 20 9 8
3 20 8 25
3 3 19 24
3 3 24 0
3 18 13 11
3 18 11 26
3 24 19 18
3 24 18 26
3 24 26 7
3 24 7 10
3 24 10 21
3 11 7 26
3 23 22 1
3 23 1 6
3 23 6 15
3 0 24 22
3 0 22 1
3 22 16 2
3 22 2 1
3 25 4 1
3 25 1 22

