ply
format ascii 1.0
element vertex 100
property float x
property float y
property float z
property uchar red
property uchar green
property uchar blue
element face 196
property list uchar int vertex_index
end_header
155.9219822 96.4905 12.86673304 200 200 200
155.9219822 96.77694993 11.27204056 200 200 200
155.9219822 96.77694993 12.55760149 200 200 200
155.9219822 96.7354 13.19797144 200 200 200
155.9219822 96.71019788 13.58638798 200 200 200
155.9219822 96.4905 13.58638798 200 200 200
155.9219822 96.4905 10.19625602 200 200 200
155.9219822 96.77694993 10.19625602 200 200 200
155.9219822 96.7354 13.58638798 200 200 200
155.5847449 96.77694993 10.90710536 200 200 200
155.6053691 96.77694993 10.82962441 200 200 200
155.4893186 96.77694993 10.19625602 200 200 200
154.9278476 96.77694993 10.19625602 200 200 200
155.5970767 96.77694993 10.92045003 200 200 200
155.6930903 96.77694993 10.5500976 200 200 200
155.7051565 96.77694993 10.45474453 200 200 200
155.6281774 96.77694993 10.95410511 200 200 200
155.6403052 96.77694993 10.96722892 200 200 200
155.7378665 96.77694993 10.19625602 200 200 200
155.754093 96.77694993 10.31479213 200 200 200
155.7848234 96.77694993 10.19625602 200 200 200
155.7852706 96.77694993 10.19625602 200 200 200
153.9394869 96.58483224 10.19625602 200 200 200
153.9387762 96.59221293 10.19625602 200 200 200
154.3082985 96.72306758 10.19625602 200 200 200
154.3431242 96.7354 10.19625602 200 200 200
154.7140915 96.7354 10.19625602 200 200 200
154.4681492 96.68759369 10.19625602 200 200 200
154.4641478 96.67527854 10.19625602 200 200 200
153.9446502 96.53120922 10.19625602 200 200 200
154.4041096 96.4905 10.19625602 200 200 200
153.9485701 96.4905 10.19625602 200 200 200
155.804854 96.4905 10.19625602 200 200 200
155.6664464 96.4905 10.19625602 200 200 200
155.736933 96.77320598 10.19625602 200 200 200
155.7963866 96.71697358 10.19625602 200 200 200
155.838361 96.4905 10.19625602 200 200 200
155.8810616 96.4905 10.19625602 200 200 200
154.3084061 96.7354 10.19625602 200 200 200
155.4581294 96.76590527 10.19625602 200 200 200
154.779623 96.748138 10.19625602 200 200 200
153.9485701 96.4905 13.58638798 200 200 200
154.1387057 96.4905 13.58638798 200 200 200
154.2480802 96.60376042 13.58638798 200 200 200
154.249229 96.7354 13.58638798 200 200 200
154.0161035 96.7354 13.58638798 200 200 200
153.9273586 96.71078889 13.58638798 200 200 200
154.2470917 96.4905 13.58638798 200 200 200
154.3752031 96.7354 13.58638798 200 200 200
154.2727133 96.4905 13.58638798 200 200 200
154.3508837 96.51818155 13.58638798 200 200 200
154.4214622 96.7354 13.58638798 200 200 200
154.3418894 96.4905 13.58638798 200 200 200
155.3015743 96.4905 13.58638798 200 200 200
154.9642899 96.7354 13.58638798 200 200 200
153.9485701 96.4905 10.24422921 200 200 200
154.4031847 96.4905 10.24665037 200 200 200
154.3856109 96.4905 11.20417697 200 200 200
154.2904721 96.4905 11.10122424 200 200 200
153.9485701 96.4905 10.73124125 200 200 200
153.9485701 96.4905 11.81731333 200 200 200
154.2493203 96.4905 13.45871625 200 200 200
154.1182496 96.4905 12.74337244 200 200 200
155.2898691 96.4905 12.18270344 200 200 200
154.9836681 96.4905 11.85135364 200 200 200
154.689922 96.4905 10.24817747 200 200 200
155.6592228 96.4905 10.25333972 200 200 200
155.5344665 96.4905 11.23921963 200 200 200
155.3101184 96.4905 12.20461585 200 200 200
155.5070471 96.4905 11.45589979 200 200 200
155.4719626 96.4905 11.73315334 200 200 200
155.3383378 96.4905 12.23515295 200 200 200
155.3999949 96.4905 12.30187404 200 200 200
153.94445 96.53328828 10.23550486 200 200 200
153.939993 96.57957576 10.22606704 200 200 200
153.9434574 96.54359694 10.43011327 200 200 200
153.9389429 96.59048197 10.22384331 200 200 200
153.9419613 96.55913485 10.72344031 200 200 200
154.308251 96.72288035 10.19888259 200 200 200
154.2946628 96.66929821 10.95053322 200 200 200
154.2856502 96.69559385 11.47999215 200 200 200
154.272007 96.7354 12.28148354 200 200 200
154.5836107 96.70878701 10.20321543 200 200 200
154.4672409 96.68542488 10.20734713 200 200 200
154.7161733 96.7354 10.1985088 200 200 200
155.5346905 96.7354 11.08425217 200 200 200
155.5578621 96.74569853 11.05199404 200 200 200
155.5687508 96.75053797 11.03683542 200 200 200
155.5722704 96.7538198 11.02237391 200 200 200
155.5692035 96.75073916 11.03620525 200 200 200
154.464138 96.67598258 10.20925101 200 200 200
155.3730389 96.7354 10.2020071 200 200 200
154.2254523 96.6476809 10.90597086 200 200 200
154.6805343 96.7354 10.19831899 200 200 200
154.343173 96.7354 10.19652229 200 200 200
154.4836638 96.7354 10.19727051 200 200 200
154.470885 96.7354 10.89353533 200 200 200
154.3356627 96.7354 11.95688993 200 200 200
154.4633156 96.7354 11.30596169 200 200 200
154.5062958 96.7354 11.08679674 200 200 200
3 0 1 2
3 0 2 3
3 0 3 4
3 0 4 5
3 0 6 7
3 0 7 1
3 3 8 4
3 9 10 11
3 9 11 12
3 9 13 14
3 9 14 15
3 9 15 10
3 13 16 17
3 13 17 14
3 2 1 17
3 2 17 16
3 10 15 18
3 10 18 11
3 15 14 19
3 15 19 20
3 15 20 18
3 19 14 17
3 19 17 1
3 19 1 7
3 19 7 21
3 19 21 20
3 22 23 24
3 22 24 25
3 22 25 26
3 22 26 27
3 27 28 29
3 27 29 22
3 28 30 31
3 28 31 29
3 18 20 32
3 18 32 33
3 18 33 34
3 20 21 35
3 20 35 36
3 20 36 32
3 35 37 36
3 21 7 6
3 21 6 37
3 21 37 35
3 25 24 38
3 18 34 39
3 18 39 11
3 11 39 40
3 11 40 12
3 41 42 43
3 41 43 44
3 41 44 45
3 41 45 46
3 47 43 42
3 48 43 47
3 48 47 49
3 48 49 50
3 48 50 51
3 52 50 49
3 53 4 8
3 53 8 54
3 53 54 50
3 53 50 52
3 5 4 53
3 43 48 44
3 54 51 50
3 55 31 30
3 55 30 56
3 56 57 58
3 56 58 59
3 56 59 55
3 60 59 58
3 60 58 61
3 60 61 62
3 47 42 62
3 47 62 61
3 42 41 60
3 42 60 62
3 63 64 65
3 63 65 66
3 63 66 67
3 68 63 67
3 68 67 69
3 68 69 70
3 68 70 71
3 70 72 71
3 56 65 64
3 56 64 57
3 64 63 68
3 64 68 71
3 64 71 72
3 64 72 0
3 64 0 5
3 64 5 53
3 58 57 52
3 58 52 49
3 58 49 61
3 57 64 53
3 57 53 52
3 47 61 49
3 66 33 32
3 66 32 67
3 69 67 32
3 69 32 36
3 70 69 36
3 70 36 37
3 72 70 37
3 72 37 6
3 72 6 0
3 22 29 73
3 22 73 74
3 29 31 55
3 29 55 73
3 73 75 74
3 59 75 73
3 59 73 55
3 23 22 74
3 23 74 76
3 75 77 76
3 75 76 74
3 77 75 59
3 77 59 60
3 41 46 77
3 41 77 60
3 24 78 79
3 24 79 80
3 24 80 81
3 24 81 38
3 66 34 33
3 82 83 27
3 82 27 26
3 82 26 84
3 40 84 85
3 40 85 86
3 40 86 9
3 40 9 12
3 87 88 13
3 87 13 9
3 87 9 86
3 89 88 87
3 13 88 89
3 13 89 16
3 56 90 83
3 56 83 82
3 56 82 84
3 56 84 91
3 56 91 65
3 39 34 66
3 39 66 65
3 39 65 91
3 40 39 91
3 40 91 84
3 92 80 79
3 80 92 77
3 80 77 46
3 80 46 45
3 80 45 81
3 81 45 44
3 93 84 26
3 93 26 25
3 93 25 94
3 93 94 95
3 96 94 25
3 96 25 38
3 96 38 81
3 96 81 97
3 96 97 98
3 96 98 99
3 96 95 94
3 95 96 99
3 95 99 93
3 54 8 3
3 54 3 85
3 54 85 84
3 54 84 93
3 54 93 99
3 48 51 98
3 48 98 97
3 51 54 99
3 51 99 98
3 44 48 97
3 44 97 81
3 16 89 87
3 16 87 86
3 16 86 85
3 16 85 3
3 16 3 2
3 78 24 23
3 78 23 76
3 79 78 76
3 79 76 77
3 79 77 92
3 83 90 28
3 83 28 27
3 56 30 28
3 56 28 90

