ply
format ascii 1.0
element vertex 46
property float x
property float y
property float z
property uchar red
property uchar green
property uchar blue
element face 84
property list uchar int vertex_index
end_header
117.5985667 82.6611255 13.58769618 200 200 200
117.5985667 82.70075143 10.18692982 200 200 200
117.5985667 82.70804885 10.18692982 200 200 200
117.5985667 82.70804885 13.58769618 200 200 200
117.1709763 82.28424518 13.58769618 200 200 200
117.1629753 82.28424518 13.58769618 200 200 200
117.1629753 82.28424518 12.99382311 200 200 200
117.1638096 82.28424518 12.92167589 200 200 200
117.1642915 82.28424518 12.88000283 200 200 200
117.1629753 82.28424518 12.85833206 200 200 200
117.1629753 82.28424518 11.14887655 200 200 200
117.1629753 82.28424518 10.18692982 200 200 200
117.1740985 82.28424518 10.18692982 200 200 200
117.1679712 82.31979246 10.18692982 200 200 200
117.2172013 82.36334762 10.18692982 200 200 200
117.2171805 82.3609675 10.18692982 200 200 200
117.212627 82.32856707 10.18692982 200 200 200
117.2200554 82.69039101 10.18692982 200 200 200
117.2201518 82.7014436 10.18692982 200 200 200
117.5416416 82.70705522 10.18692982 200 200 200
117.3283217 82.46165873 10.18692982 200 200 200
117.2169411 82.33352992 10.18692982 200 200 200
117.2181823 82.47576311 10.18692982 200 200 200
117.4207067 82.54339406 10.18692982 200 200 200
117.5633038 82.70743333 10.18692982 200 200 200
117.2168528 82.32341337 13.58769618 200 200 200
117.5233741 82.70673636 13.58769618 200 200 200
117.2171235 82.35443525 13.58769618 200 200 200
117.5017119 82.70635824 13.58769618 200 200 200
117.2173399 82.37922553 13.58769618 200 200 200
117.2200554 82.69039101 13.58769618 200 200 200
117.217491 82.39654156 13.58769618 200 200 200
117.2201518 82.7014436 13.58769618 200 200 200
117.1642997 82.29366833 13.58769618 200 200 200
117.1845093 82.31691692 13.58769618 200 200 200
117.2039274 82.36379629 13.58769618 200 200 200
117.1684139 82.32294263 13.58769618 200 200 200
117.2170799 82.34944187 11.37113176 200 200 200
117.2171805 82.3609675 12.22889371 200 200 200
117.2171805 82.3609675 10.38961948 200 200 200
117.2169791 82.3378807 12.35567103 200 200 200
117.1647141 82.29661699 11.9285821 200 200 200
117.1654071 82.30154814 12.23935647 200 200 200
117.1633334 82.2867932 12.66684651 200 200 200
117.165092 82.28553883 12.90802425 200 200 200
117.2153097 82.34765615 11.38997611 200 200 200
3 0 1 2
3 0 2 3
3 4 5 6
3 4 6 7
3 4 7 8
3 6 9 7
3 10 11 12
3 13 14 15
3 13 15 16
3 13 16 12
3 13 12 11
3 17 18 19
3 17 19 20
3 17 20 21
3 17 21 15
3 17 15 14
3 17 14 22
3 15 21 16
3 23 24 2
3 23 2 1
3 24 23 20
3 24 20 19
3 25 0 3
3 25 3 26
3 25 26 27
3 28 29 27
3 28 27 26
3 30 31 29
3 30 29 28
3 30 28 32
3 33 34 35
3 33 35 36
3 33 5 4
3 33 4 34
3 28 19 18
3 28 18 32
3 28 26 24
3 28 24 19
3 26 3 2
3 26 2 24
3 37 38 39
3 29 38 37
3 29 37 40
3 29 40 27
3 38 29 31
3 38 31 22
3 38 22 14
3 38 14 39
3 31 30 17
3 31 17 22
3 27 40 25
3 30 32 18
3 30 18 17
3 13 11 10
3 13 10 41
3 9 6 33
3 9 33 36
3 9 36 42
3 9 42 43
3 33 6 5
3 8 7 44
3 40 37 20
3 40 20 23
3 25 40 23
3 25 23 1
3 25 1 0
3 37 39 45
3 13 41 45
3 13 45 39
3 13 39 14
3 9 43 44
3 9 44 7
3 42 35 34
3 42 34 44
3 42 44 43
3 34 4 8
3 34 8 44
3 20 37 21
3 37 45 16
3 37 16 21
3 12 16 45
3 12 45 41
3 12 41 10
3 35 42 36

