ply
format ascii 1.0
element vertex 88
property float x
property float y
property float z
property uchar red
property uchar green
property uchar blue
element face 176
property list uchar int vertex_index
end_header
124.9373214 100.1621099 10.17999878 200 200 200
124.9373214 100.299657 10.17524828 200 200 200
124.9373214 100.299657 11.27209877 200 200 200
124.8703238 99.84831902 10.19118206 200 200 200
124.8601728 99.84831902 10.57036333 200 200 200
124.5281813 99.84831902 10.66890258 200 200 200
124.5281813 99.84831902 10.19294807 200 200 200
124.8820337 100.299657 13.58461847 200 200 200
124.9082109 100.299657 13.58461847 200 200 200
124.9227223 100.299657 13.03401054 200 200 200
124.9008665 100.299657 12.87004297 200 200 200
124.5124202 100.299657 13.22973977 200 200 200
124.5124202 100.299657 13.58461847 200 200 200
124.8754132 100.299657 13.58461847 200 200 200
124.8878971 100.299657 13.11829352 200 200 200
124.5124202 100.299657 10.64553644 200 200 200
124.9190236 100.299657 11.95559434 200 200 200
124.5124202 100.299657 10.17744146 200 200 200
124.5183761 100.1291009 13.58461847 200 200 200
124.7310878 100.1272446 13.58461847 200 200 200
124.8416514 100.1408201 13.58461847 200 200 200
124.5191454 100.1070724 13.58461847 200 200 200
124.563636 100.1066841 13.58461847 200 200 200
124.8338943 100.1043256 13.58461847 200 200 200
124.8385665 100.1263066 13.58461847 200 200 200
124.8597528 100.1040999 13.58461847 200 200 200
124.8622594 100.1260998 13.58461847 200 200 200
124.885904 100.1038717 13.58461847 200 200 200
124.891695 99.99296618 10.54135694 200 200 200
124.8490716 99.97785804 10.18681784 200 200 200
124.8978886 99.97742168 10.18658093 200 200 200
124.8961878 99.98169019 10.28400227 200 200 200
124.8720818 100.0421909 11.66482481 200 200 200
124.8855906 100.0782027 12.49229895 200 200 200
124.9218958 100.0036711 10.79256593 200 200 200
124.7192567 100.0465939 11.73512186 200 200 200
124.7422208 100.0459323 11.72455878 200 200 200
124.5222383 100.0185035 11.0523911 200 200 200
124.5218937 100.0283702 11.27829904 200 200 200
124.5929911 100.0349351 11.44286331 200 200 200
124.6149297 100.0495997 11.78311063 200 200 200
124.9079654 100.0857271 12.66910119 200 200 200
124.9065825 100.0656782 12.63490302 200 200 200
124.8841008 100.0566044 12.45545784 200 200 200
124.9063252 100.0619487 12.62854129 200 200 200
124.8839504 100.0544243 12.45173905 200 200 200
124.9220385 100.0023685 10.78152141 200 200 200
124.8801078 100.0623128 12.63164221 200 200 200
124.5148879 100.2289921 10.74779488 200 200 200
124.5171175 100.1651427 10.18206296 200 200 200
124.5210579 100.0523042 11.82629011 200 200 200
124.5206749 100.0632742 10.98760374 200 200 200
124.523556 99.98076775 10.18839753 200 200 200
124.5209277 100.0560336 11.91167694 200 200 200
124.5243241 99.95877224 10.18915323 200 200 200
124.5229618 99.99778446 11.08237339 200 200 200
124.5224578 100.0122173 11.41282698 200 200 200
124.5221078 100.0222385 11.32936619 200 200 200
124.5216096 100.0365072 11.73665939 200 200 200
124.5196926 100.0914024 13.22583979 200 200 200
124.5201735 100.077632 12.91055429 200 200 200
124.5220806 100.0230183 11.66012535 200 200 200
124.5250929 99.93675653 11.17068635 200 200 200
124.5229217 99.99893274 11.52346665 200 200 200
124.8981184 99.97849832 10.18654256 200 200 200
124.856886 99.97344924 10.18692977 200 200 200
124.7225582 99.95700027 10.18819122 200 200 200
124.8886729 99.95551541 10.18738508 200 200 200
124.8927234 99.95323016 10.1874431 200 200 200
124.8702878 100.0129861 11.49995566 200 200 200
124.8596195 100.0397611 12.11104817 200 200 200
124.687189 100.0182614 11.58417813 200 200 200
124.8089576 100.0147531 11.52816658 200 200 200
124.8568329 100.0467549 12.27066931 200 200 200
124.5316443 100.0852996 13.0884568 200 200 200
124.6614813 100.0190021 11.5960033 200 200 200
124.6115241 100.0204414 11.61898278 200 200 200
124.8873444 100.1610588 12.0384953 200 200 200
124.8764577 100.1134291 12.0669845 200 200 200
124.8747762 100.0860554 11.91245254 200 200 200
124.892628 99.95691731 10.22028315 200 200 200
124.891799 99.98894608 10.50555143 200 200 200
124.8709304 100.0234477 11.55901435 200 200 200
124.5661273 100.0427529 11.75881866 200 200 200
124.7662004 100.0579897 11.78572859 200 200 200
124.6796579 100.0144746 11.56496695 200 200 200
124.6338976 100.0258726 11.64310205 200 200 200
124.726476 100.0588447 11.65659716 200 200 200
3 0 1 2
3 3 4 5
3 3 5 6
3 7 8 9
3 7 9 10
3 11 12 13
3 11 13 14
3 15 11 14
3 15 14 16
3 1 17 15
3 1 15 16
3 1 16 2
3 13 12 18
3 13 18 19
3 13 19 20
3 21 22 19
3 21 19 18
3 22 23 24
3 22 24 19
3 19 24 20
3 23 25 26
3 23 26 24
3 27 8 7
3 27 7 26
3 27 26 25
3 28 29 30
3 28 30 31
3 28 32 24
3 28 24 26
3 28 26 33
3 28 33 34
3 35 36 37
3 35 37 38
3 35 38 39
3 39 35 40
3 41 33 10
3 41 10 9
3 33 41 42
3 33 42 43
3 42 44 45
3 42 45 43
3 33 26 7
3 33 7 10
3 33 43 46
3 33 46 34
3 47 43 45
3 48 15 17
3 48 17 49
3 38 50 11
3 38 11 15
3 38 15 48
3 38 48 51
3 52 37 51
3 52 51 48
3 52 48 49
3 50 53 18
3 50 18 12
3 50 12 11
3 52 54 55
3 52 55 37
3 38 37 55
3 38 55 56
3 38 56 57
3 58 50 38
3 58 38 57
3 18 53 59
3 18 59 21
3 53 50 58
3 53 58 60
3 53 60 59
3 61 60 58
3 55 54 6
3 55 6 5
3 55 5 62
3 63 56 55
3 63 55 62
3 64 30 29
3 64 29 49
3 64 49 17
3 64 17 1
3 64 1 0
3 29 52 49
3 54 52 29
3 54 29 65
3 54 65 66
3 65 67 66
3 6 54 66
3 6 66 67
3 6 67 68
3 6 68 3
3 69 70 71
3 69 71 72
3 70 73 23
3 70 23 22
3 70 22 74
3 70 74 75
3 70 75 71
3 21 59 74
3 21 74 22
3 60 74 59
3 61 76 75
3 61 75 74
3 61 74 60
3 73 47 25
3 73 25 23
3 27 25 47
3 27 47 45
3 27 45 44
3 9 8 27
3 9 27 44
3 9 44 42
3 9 42 41
3 64 0 2
3 64 2 16
3 64 16 77
3 64 77 28
3 64 28 31
3 14 78 77
3 14 77 16
3 77 78 79
3 77 79 32
3 77 32 28
3 14 13 20
3 14 20 79
3 14 79 78
3 64 31 30
3 79 20 24
3 79 24 32
3 69 80 81
3 69 81 82
3 73 70 69
3 73 69 82
3 68 80 69
3 68 69 4
3 68 4 3
3 58 57 39
3 58 39 40
3 58 40 83
3 84 36 35
3 62 5 4
3 62 4 69
3 62 69 72
3 62 72 71
3 62 71 85
3 40 35 86
3 40 86 83
3 83 86 76
3 83 76 61
3 83 61 58
3 71 75 85
3 76 63 62
3 76 62 85
3 76 85 75
3 29 28 81
3 29 81 65
3 65 81 80
3 65 80 67
3 81 28 34
3 81 34 46
3 67 80 68
3 39 38 51
3 39 51 87
3 35 39 87
3 35 87 84
3 57 56 63
3 57 63 76
3 57 76 86
3 57 86 35
3 57 35 39
3 46 43 47
3 46 47 73
3 46 73 82
3 46 82 81
3 87 51 37
3 87 37 36
3 87 36 84

