ply
format ascii 1.0
element vertex 48
property float x
property float y
property float z
property uchar red
property uchar green
property uchar blue
element face 92
property list uchar int vertex_index
end_header
98.71152522 91.4168 13.54486117 200 200 200
98.71152522 91.4168 13.51131564 200 200 200
98.71152522 91.32372307 13.51208594 200 200 200
98.71152522 91.32372307 13.58680714 200 200 200
98.71152522 91.4168 13.58680714 200 200 200
98.71152522 91.4168 12.3154515 200 200 200
98.71152522 91.4168 10.17603086 200 200 200
98.71152522 91.32372307 10.17603086 200 200 200
101.2866218 91.4168 13.43800943 200 200 200
101.2866218 91.4168 13.5763653 200 200 200
101.2866218 91.4168 13.58680714 200 200 200
101.2866218 91.32372307 13.58680714 200 200 200
101.2866218 91.32372307 10.17603086 200 200 200
101.2866218 91.4168 10.17603086 200 200 200
101.2866218 91.4168 10.18441958 200 200 200
101.2866218 91.4168 13.36922706 200 200 200
101.2866218 91.4168 13.41673328 200 200 200
101.2866218 91.56172848 13.37590459 200 200 200
101.2866218 91.55930575 13.37658712 200 200 200
101.2866218 91.55985421 13.37581824 200 200 200
100.6703221 91.32372307 13.58680714 200 200 200
100.6672846 91.32372307 13.51750158 200 200 200
100.5208356 91.32372307 10.17603086 200 200 200
99.56900724 91.4168 10.17603086 200 200 200
99.85882248 91.4168 10.17603086 200 200 200
100.5126924 91.4168 10.17603086 200 200 200
100.662179 91.4168 13.58680714 200 200 200
98.98338494 91.4168 13.58680714 200 200 200
100.5129662 91.4168 10.18227727 200 200 200
101.0312149 91.4168 13.3933546 200 200 200
100.6521798 91.4168 13.35865962 200 200 200
99.85644764 91.4168 10.18045932 200 200 200
99.58132856 91.4168 10.69348717 200 200 200
99.85488607 91.4168 10.18337126 200 200 200
99.99140081 91.4168 13.29817521 200 200 200
99.64848656 91.4168 13.51391016 200 200 200
100.0008987 91.4168 13.51488601 200 200 200
99.99984247 91.4168 13.49078536 200 200 200
99.99233705 91.4168 13.31953706 200 200 200
100.653116 91.4168 13.38002147 200 200 200
100.9168283 91.4168 13.40416038 200 200 200
100.655257 91.4168 13.42887026 200 200 200
100.6591067 91.4168 13.51670864 200 200 200
100.6613861 91.4168 13.56871607 200 200 200
100.0029049 91.4168 13.56066011 200 200 200
99.64949679 91.4168 13.55633646 200 200 200
99.34533005 91.4168 13.55261524 200 200 200
101.2828258 91.55957448 13.37616395 200 200 200
3 0 1 2
3 0 2 3
3 0 3 4
3 5 6 7
3 5 7 2
3 5 2 1
3 8 9 10
3 8 10 11
3 8 11 12
3 8 12 13
3 8 13 14
3 8 14 15
3 8 15 16
3 17 18 16
3 17 16 15
3 17 15 19
3 20 21 22
3 20 22 12
3 20 12 11
3 21 20 3
3 21 3 2
3 21 2 7
3 21 7 22
3 6 23 24
3 6 24 25
3 6 25 22
3 6 22 7
3 25 13 12
3 25 12 22
3 4 3 20
3 4 20 26
3 4 26 27
3 20 11 10
3 20 10 26
3 14 13 25
3 14 25 28
3 29 15 14
3 29 14 28
3 29 28 30
3 31 24 23
3 31 23 32
3 31 32 33
3 24 31 28
3 24 28 25
3 33 34 30
3 33 30 28
3 33 28 31
3 32 35 36
3 32 36 37
3 32 37 38
3 32 38 34
3 32 34 33
3 39 40 29
3 39 29 30
3 40 8 16
3 40 16 29
3 34 38 39
3 34 39 30
3 41 40 39
3 41 42 43
3 41 43 9
3 41 9 8
3 41 8 40
3 37 41 39
3 37 39 38
3 42 41 37
3 42 37 36
3 23 6 5
3 23 5 32
3 1 35 32
3 1 32 5
3 44 43 42
3 44 42 36
3 35 45 44
3 35 44 36
3 10 9 43
3 10 43 26
3 46 27 26
3 46 26 43
3 46 43 44
3 46 44 45
3 0 46 45
3 0 45 35
3 0 35 1
3 0 4 27
3 0 27 46
3 16 18 47
3 16 47 29
3 18 17 47
3 15 29 47
3 15 47 19
3 17 19 47

