ply
format ascii 1.0
element vertex 8
property float x
property float y
property float z
property uchar red
property uchar green
property uchar blue
element face 12
property list uchar int vertex_index
end_header
117.5960232 99.87570168 10.17830516 200 200 200
117.5960232 100.2740168 10.17830516 200 200 200
117.5960232 100.2740168 13.58742384 200 200 200
117.5960232 99.87570168 13.58742384 200 200 200
117.1964683 100.2705299 10.17830516 200 200 200
117.1929919 99.87218447 10.17830516 200 200 200
117.1964683 100.2705299 13.58742384 200 200 200
117.1929919 99.87218447 13.58742384 200 200 200
3 0 1 2
3 0 2 3
3 4 1 0
3 4 0 5
3 6 7 3
3 6 3 2
3 6 2 1
3 6 1 4
3 0 3 7
3 0 7 5
3 5 7 6
3 5 6 4

