ply
format ascii 1.0
element vertex 21
property float x
property float y
property float z
property uchar red
property uchar green
property uchar blue
element face 38
property list uchar int vertex_index
end_header
109.0520962 82.60461782 13.58779473 200 200 200
109.0520962 82.74754389 13.58779473 200 200 200
109.0520962 82.74754389 10.20333609 200 200 200
109.0520962 82.60461782 10.20208677 200 200 200
109.404 82.28421111 13.58779473 200 200 200
109.286 82.28421111 13.58779473 200 200 200
109.286 82.28421111 10.19351241 200 200 200
109.404 82.28421111 10.1905997 200 200 200
109.053 82.28421111 13.58779473 200 200 200
109.053 82.28421111 10.19926377 200 200 200
109.053 82.74754389 10.20331378 200 200 200
109.053 82.74754389 13.58779473 200 200 200
109.053 82.60457045 13.58779473 200 200 200
109.286 82.59235944 13.58779473 200 200 200
109.404 82.58617532 13.58779473 200 200 200
109.053 82.60457045 10.20206405 200 200 200
109.286 82.59235944 10.19620595 200 200 200
109.355819 82.58870038 10.19445055 200 200 200
109.404 82.58617532 10.19323918 200 200 200
109.404 82.46908347 10.19221568 200 200 200
109.404 82.58617532 10.90937625 200 200 200
3 0 1 2
3 0 2 3
3 4 5 6
3 4 6 7
3 5 8 9
3 5 9 6
3 10 2 1
3 10 1 11
3 0 12 11
3 0 11 1
3 13 12 8
3 13 8 5
3 14 13 5
3 14 5 4
3 9 15 16
3 9 16 6
3 17 18 19
3 16 17 19
3 16 19 7
3 16 7 6
3 15 3 2
3 15 2 10
3 3 15 12
3 3 12 0
3 12 13 16
3 12 16 15
3 17 20 18
3 16 13 14
3 16 14 20
3 16 20 17
3 9 8 12
3 9 12 15
3 15 10 11
3 15 11 12
3 19 18 20
3 7 19 20
3 7 20 14
3 7 14 4

