ply
format ascii 1.0
element vertex 8
property float x
property float y
property float z
property uchar red
property uchar green
property uchar blue
element face 12
property list uchar int vertex_index
end_header
169.7691871 82.59125569 13.58634137 200 200 200
169.3751722 82.59125569 13.58634137 200 200 200
169.3751722 82.59125569 10.75067263 200 200 200
169.7691871 82.59125569 10.75067263 200 200 200
169.7702211 82.70973634 10.75067263 200 200 200
169.3762361 82.7131746 10.75067263 200 200 200
169.3762361 82.7131746 13.58634137 200 200 200
169.7702211 82.70973634 13.58634137 200 200 200
3 0 1 2
3 0 2 3
3 4 3 2
3 4 2 5
3 6 1 0
3 6 0 7
3 4 5 6
3 4 6 7
3 5 2 1
3 5 1 6
3 0 3 4
3 0 4 7

