ply
format ascii 1.0
element vertex 79
property float x
property float y
property float z
property uchar red
property uchar green
property uchar blue
element face 158
property list uchar int vertex_index
end_header
107.3608828 87.90435525 12.13833353 200 200 200
107.3608828 87.8529 11.86202565 200 200 200
107.3608828 87.8529 13.58565823 200 200 200
107.3608828 87.9568 13.58565823 200 200 200
107.3608828 87.9568 13.13595323 200 200 200
107.3608828 87.9568 12.41995492 200 200 200
107.3608828 87.71822837 11.13885679 200 200 200
107.3608828 87.72525853 11.17660784 200 200 200
107.3608828 87.73817176 10.26560877 200 200 200
107.3608828 87.71822837 10.26560877 200 200 200
109.3288462 87.8529 11.08880504 200 200 200
109.3288462 87.9568 11.35650073 200 200 200
109.3288462 87.9568 13.58565823 200 200 200
109.3288462 87.8529 13.58565823 200 200 200
109.3288462 87.80877339 10.97511396 200 200 200
109.3288462 87.8529 11.05988033 200 200 200
109.3288462 87.9568 11.25947024 200 200 200
109.3288462 87.71822837 10.8011787 200 200 200
109.3288462 87.71822837 10.74182702 200 200 200
109.3288462 87.9568 10.40311908 200 200 200
109.3288462 87.8529 10.26560877 200 200 200
109.3288462 87.92366065 10.26560877 200 200 200
109.3288462 87.9568 10.26560877 200 200 200
108.4337722 87.71822837 10.39717281 200 200 200
108.3518254 87.71822837 10.8011787 200 200 200
108.2499297 87.71822837 10.8011787 200 200 200
107.390206 87.71822837 10.8011787 200 200 200
107.3647051 87.71822837 11.09484039 200 200 200
107.4367137 87.71822837 10.26560877 200 200 200
107.4048287 87.71822837 10.8011787 200 200 200
107.4780047 87.71822837 10.26560877 200 200 200
107.4561069 87.75981728 10.26560877 200 200 200
107.3720485 87.75246313 10.26560877 200 200 200
107.4505183 87.8529 10.26560877 200 200 200
108.5200478 87.8529 10.26560877 200 200 200
107.5085698 87.76440718 10.26560877 200 200 200
107.5316939 87.9568 10.26560877 200 200 200
109.0143758 87.8529 10.26560877 200 200 200
107.4872864 87.8529 13.58565823 200 200 200
107.568462 87.9568 13.58565823 200 200 200
107.9053411 87.9568 13.58565823 200 200 200
107.5035905 87.8529 13.58565823 200 200 200
109.0614555 87.8529 13.58565823 200 200 200
107.5395078 87.9568 10.97118345 200 200 200
107.540407 87.9568 11.05237662 200 200 200
108.0544199 87.9568 10.86577437 200 200 200
109.1406898 87.9568 10.47142554 200 200 200
107.5335339 87.9568 10.43175214 200 200 200
108.7089354 87.9568 11.11779993 200 200 200
109.076856 87.9568 11.25947024 200 200 200
107.5427005 87.9568 11.25947024 200 200 200
108.6143048 87.9568 11.25947024 200 200 200
108.9638707 87.9568 11.25947024 200 200 200
107.5277883 87.9568 11.05695758 200 200 200
107.3945817 87.9568 12.03188743 200 200 200
107.5601775 87.9568 12.83759165 200 200 200
108.3485462 87.75118221 10.8644824 200 200 200
108.6529433 87.8529 11.05988033 200 200 200
108.7425174 87.8529 10.86303523 200 200 200
107.431001 87.8529 11.05456334 200 200 200
107.4587949 87.8529 11.01295355 200 200 200
107.4560599 87.8529 10.76599252 200 200 200
107.4592624 87.8529 11.05517164 200 200 200
107.3815702 87.8529 11.62379538 200 200 200
107.8359522 87.8529 10.5139562 200 200 200
107.4666343 87.8529 11.0012172 200 200 200
107.7780712 87.8529 10.53496873 200 200 200
107.4593145 87.8529 11.05988033 200 200 200
107.5174095 87.8529 10.62959681 200 200 200
108.4598777 87.8529 11.48415461 200 200 200
109.2537281 87.8529 11.05988033 200 200 200
107.45793 87.85117479 11.05656623 200 200 200
107.3665347 87.73283827 11.15222426 200 200 200
107.5260474 87.93937172 10.98527171 200 200 200
107.4610374 87.85519823 11.05331386 200 200 200
107.3857305 87.88612112 11.75427924 200 200 200
107.4548011 87.8529 10.65232558 200 200 200
107.4134084 87.79570028 10.95000076 200 200 200
107.4680527 87.86898353 10.71425273 200 200 200
3 0 1 2
3 0 2 3
3 0 3 4
3 4 5 0
3 6 7 8
3 6 8 9
3 10 11 12
3 10 12 13
3 14 15 16
3 14 16 11
3 14 11 10
3 14 17 18
3 19 16 15
3 19 15 20
3 19 20 21
3 21 22 19
3 23 18 17
3 23 17 24
3 23 24 25
3 26 27 6
3 26 6 9
3 26 9 28
3 27 26 29
3 28 30 29
3 28 29 26
3 31 28 9
3 31 9 8
3 31 8 32
3 33 34 35
3 33 35 31
3 33 31 32
3 35 30 28
3 35 28 31
3 33 36 22
3 33 22 21
3 33 21 34
3 37 34 21
3 37 21 20
3 3 2 38
3 3 38 39
3 40 39 38
3 40 38 41
3 40 41 42
3 40 42 13
3 40 13 12
3 43 44 45
3 43 45 46
3 43 46 19
3 43 19 22
3 43 22 36
3 43 36 47
3 48 46 45
3 48 49 16
3 48 16 19
3 48 19 46
3 50 51 48
3 50 48 45
3 50 45 44
3 52 49 48
3 52 48 51
3 53 54 5
3 53 5 4
3 53 4 55
3 53 55 50
3 53 50 44
3 53 44 43
3 51 50 55
3 55 39 40
3 55 40 52
3 55 52 51
3 39 55 4
3 39 4 3
3 16 49 11
3 40 12 11
3 40 11 49
3 40 49 52
3 56 57 58
3 56 58 23
3 56 23 25
3 59 60 61
3 62 60 59
3 62 59 63
3 34 37 58
3 34 58 64
3 62 65 66
3 62 66 64
3 62 64 58
3 62 58 57
3 62 57 67
3 65 68 66
3 1 63 62
3 1 62 67
3 1 67 38
3 1 38 2
3 41 38 67
3 41 67 57
3 41 57 69
3 20 15 70
3 20 70 58
3 20 58 37
3 13 42 69
3 13 69 57
3 13 57 70
3 13 70 10
3 42 41 69
3 70 15 14
3 56 24 17
3 56 17 14
3 56 14 70
3 56 70 57
3 24 56 25
3 62 71 29
3 62 29 30
3 62 30 35
3 62 35 68
3 62 68 65
3 71 62 63
3 71 63 72
3 29 71 72
3 29 72 27
3 73 53 43
3 73 74 75
3 73 75 54
3 73 54 53
3 63 75 74
3 63 74 62
3 35 34 64
3 35 64 66
3 35 66 68
3 32 76 33
3 32 8 7
3 32 7 72
3 32 72 77
3 32 77 61
3 32 61 76
3 76 78 47
3 76 47 36
3 76 36 33
3 43 47 78
3 43 78 73
3 78 76 61
3 74 73 78
3 74 78 61
3 74 61 60
3 62 74 60
3 72 63 59
3 72 59 61
3 72 61 77
3 6 27 72
3 6 72 7
3 75 0 5
3 75 5 54
3 75 63 1
3 75 1 0
3 70 14 18
3 70 18 23
3 70 23 58
3 14 10 70

