ply
format ascii 1.0
element vertex 8
property float x
property float y
property float z
property uchar red
property uchar green
property uchar blue
element face 12
property list uchar int vertex_index
end_header
107.0922643 93.5031712 10.17242272 200 200 200
107.0922643 93.5031712 10.1692 200 200 200
107.0922643 96.2337 10.1692 200 200 200
107.0922643 96.2337 10.17242272 200 200 200
112.4747217 96.2337 10.17242272 200 200 200
112.4747217 93.5031712 10.17242272 200 200 200
112.4747217 93.5031712 10.1692 200 200 200
112.4747217 96.2337 10.1692 200 200 200
3 0 1 2
3 0 2 3
3 4 5 6
3 4 6 7
3 0 5 6
3 0 6 1
3 0 5 4
3 0 4 3
3 2 1 6
3 2 6 7
3 7 4 3
3 7 3 2

