ply
format ascii 1.0
element vertex 61
property float x
property float y
property float z
property uchar red
property uchar green
property uchar blue
element face 118
property list uchar int vertex_index
end_header
103.1588135 96.4798 13.58702354 200 200 200
103.1588135 96.51461471 13.58702354 200 200 200
103.1588135 96.4823997 10.17654846 200 200 200
103.1588135 96.4798 10.17654846 200 200 200
105.2021715 96.4798 11.58253661 200 200 200
105.2021715 96.62274771 12.57156002 200 200 200
105.2021715 96.62274771 13.58702354 200 200 200
105.2021715 96.4798 13.58702354 200 200 200
105.2021715 96.4798 10.26427311 200 200 200
105.2021715 96.62274771 10.26092729 200 200 200
104.1117735 96.76039767 11.71272629 200 200 200
103.9130738 96.76039767 11.38267658 200 200 200
103.9130738 96.76039767 13.58702354 200 200 200
104.1281309 96.76039767 13.58702354 200 200 200
103.846523 96.76039767 13.58702354 200 200 200
103.9130738 96.76039767 10.66869558 200 200 200
103.8298771 96.76039767 10.18016138 200 200 200
103.7521856 96.76039767 13.58702354 200 200 200
103.9130738 96.76039767 10.18486256 200 200 200
103.6161834 96.67184865 10.17654846 200 200 200
103.6889506 96.66291395 10.17654846 200 200 200
103.2468747 96.4798 10.17654846 200 200 200
103.7237885 96.65863638 10.17654846 200 200 200
103.7211121 96.65217506 10.17654846 200 200 200
103.6497119 96.4798 10.17654846 200 200 200
103.6615785 96.69065192 10.17654846 200 200 200
103.7468444 96.71429823 10.17654846 200 200 200
103.7526804 96.72838761 10.17654846 200 200 200
103.75194 96.7266 10.17654846 200 200 200
103.4262427 96.6253876 13.58702354 200 200 200
103.1691008 96.4798 13.58702354 200 200 200
103.5172702 96.62401658 13.58702354 200 200 200
103.4507505 96.63218419 13.58702354 200 200 200
104.1305796 96.4798 13.58702354 200 200 200
104.1299776 96.54878545 13.58702354 200 200 200
103.8878695 96.57851264 13.58702354 200 200 200
104.691818 96.4798 13.58702354 200 200 200
105.0067391 96.68624753 13.58702354 200 200 200
104.1295151 96.60178046 13.58702354 200 200 200
103.7116981 96.70455129 13.58702354 200 200 200
103.7912032 96.7266 13.58702354 200 200 200
104.1284258 96.7266 13.58702354 200 200 200
104.8825469 96.7266 13.58702354 200 200 200
104.1010383 96.4798 10.2020515 200 200 200
105.1680033 96.4798 10.26234238 200 200 200
105.0218219 96.4798 11.28296733 200 200 200
104.9524717 96.70388006 12.71813335 200 200 200
104.7973837 96.75427118 10.23497556 200 200 200
104.8825469 96.7266 11.59854724 200 200 200
104.8825469 96.7266 12.75917909 200 200 200
103.4937517 96.64410947 12.60868719 200 200 200
103.611839 96.67086436 10.26285022 200 200 200
103.6446555 96.68595878 10.42179492 200 200 200
103.7912032 96.7266 10.1787671 200 200 200
104.5056811 96.7266 10.21914002 200 200 200
103.7521731 96.65512153 10.17823465 200 200 200
104.0998564 96.61206809 10.19888886 200 200 200
104.110002 96.7266 11.47594518 200 200 200
103.8735656 96.74944111 11.24124566 200 200 200
103.7912032 96.7266 10.94640513 200 200 200
103.8239072 96.7266 11.00072811 200 200 200
3 0 1 2
3 0 2 3
3 4 5 6
3 4 6 7
3 4 8 9
3 4 9 5
3 10 11 12
3 10 12 13
3 14 12 11
3 14 11 15
3 16 17 14
3 16 14 15
3 16 15 18
3 19 20 21
3 19 21 3
3 19 3 2
3 20 22 23
3 20 23 24
3 20 24 21
3 22 20 19
3 22 19 25
3 22 25 26
3 27 28 26
3 27 26 25
3 29 1 0
3 29 0 30
3 29 30 31
3 29 31 32
3 31 30 33
3 31 33 34
3 31 34 35
3 36 34 33
3 36 7 6
3 36 6 37
3 36 37 38
3 36 38 34
3 14 17 29
3 14 29 32
3 14 32 39
3 32 31 39
3 40 39 31
3 40 31 35
3 40 35 38
3 40 38 41
3 34 38 35
3 37 42 41
3 37 41 38
3 12 14 39
3 12 39 40
3 40 41 13
3 40 13 12
3 0 3 21
3 0 21 30
3 33 43 44
3 33 44 45
3 33 45 36
3 8 4 45
3 8 45 44
3 7 36 45
3 7 45 4
3 43 33 30
3 43 30 21
3 43 21 24
3 46 5 9
3 46 9 47
3 46 47 48
3 37 6 5
3 37 5 46
3 49 46 48
3 42 37 46
3 42 46 49
3 19 2 1
3 19 1 29
3 19 29 50
3 19 50 51
3 51 52 25
3 51 25 19
3 52 51 50
3 16 27 25
3 16 25 52
3 16 52 50
3 16 50 29
3 16 29 17
3 26 53 54
3 26 54 55
3 26 55 22
3 53 26 28
3 28 27 16
3 28 16 18
3 28 18 53
3 44 43 56
3 54 47 9
3 54 9 8
3 54 8 44
3 54 44 56
3 54 56 55
3 43 24 23
3 43 23 55
3 43 55 56
3 55 23 22
3 41 57 10
3 41 10 13
3 18 15 58
3 18 58 59
3 18 59 53
3 58 15 11
3 48 54 53
3 48 53 59
3 48 59 60
3 48 60 57
3 48 57 49
3 41 42 49
3 41 49 57
3 48 47 54
3 58 60 59
3 57 60 58
3 57 58 11
3 57 11 10

