ply
format ascii 1.0
element vertex 8
property float x
property float y
property float z
property uchar red
property uchar green
property uchar blue
element face 12
property list uchar int vertex_index
end_header
153.5570897 104.8817183 13.58768448 200 200 200
154.1031104 104.8817183 13.58768448 200 200 200
154.1031104 104.8817183 10.17723852 200 200 200
153.5570897 104.8817183 10.17723852 200 200 200
154.0987513 104.3822176 10.17723852 200 200 200
153.5527722 104.3869823 10.17723852 200 200 200
153.5527722 104.3869823 13.58768448 200 200 200
154.0987513 104.3822176 13.58768448 200 200 200
3 0 1 2
3 0 2 3
3 2 4 5
3 2 5 3
3 0 6 7
3 0 7 1
3 5 4 7
3 5 7 6
3 7 4 2
3 7 2 1
3 3 5 6
3 3 6 0

