ply
format ascii 1.0
element vertex 8
property float x
property float y
property float z
property uchar red
property uchar green
property uchar blue
element face 12
property list uchar int vertex_index
end_header
147.6572282 87.75740005 13.58742058 200 200 200
147.6572282 87.75740005 10.29929242 200 200 200
147.6572282 87.7574 10.29929242 200 200 200
147.6572282 87.7574 13.58742058 200 200 200
151.9875778 87.7574 10.29929242 200 200 200
151.9875778 87.75740005 10.29929242 200 200 200
151.9875778 87.75740005 13.58742058 200 200 200
151.9875778 87.7574 13.58742058 200 200 200
3 0 1 2
3 0 2 3
3 4 5 6
3 4 6 7
3 6 5 1
3 6 1 0
3 2 1 5
3 2 5 4
3 7 6 0
3 7 0 3
3 2 4 7
3 2 7 3

