ply
format ascii 1.0
element vertex 8
property float x
property float y
property float z
property uchar red
property uchar green
property uchar blue
element face 12
property list uchar int vertex_index
end_header
145.0820624 96.483 10.19371728 200 200 200
145.0820624 96.48299997 10.19371728 200 200 200
145.0820624 96.48299997 13.58723072 200 200 200
145.0820624 96.483 13.58723072 200 200 200
147.4770356 96.483 13.58723072 200 200 200
147.4770356 96.48299997 13.58723072 200 200 200
147.4770356 96.48299997 10.19371728 200 200 200
147.4770356 96.483 10.19371728 200 200 200
3 0 1 2
3 0 2 3
3 4 5 6
3 4 6 7
3 2 1 6
3 2 6 5
3 6 1 0
3 6 0 7
3 4 3 2
3 4 2 5
3 4 7 0
3 4 0 3

