ply
format ascii 1.0
element vertex 17
property float x
property float y
property float z
property uchar red
property uchar green
property uchar blue
element face 30
property list uchar int vertex_index
end_header
77.53188801 99.84092725 13.58551059 200 200 200
77.53188801 99.86171877 13.58551059 200 200 200
77.53188801 99.86171877 11.89260391 200 200 200
77.53188801 99.84092725 11.30537814 200 200 200
77.53188801 99.84092725 10.21462941 200 200 200
77.53188801 99.80917823 10.21462941 200 200 200
77.53188801 99.80917823 10.40867389 200 200 200
77.53188801 99.86171877 10.21462941 200 200 200
77.97219799 99.85630321 12.19444665 200 200 200
77.97219799 99.85630321 10.21462941 200 200 200
77.97219799 99.86171877 10.21462941 200 200 200
77.97219799 99.86171877 12.34740101 200 200 200
77.57294396 99.80917823 10.21462941 200 200 200
77.886914 99.86171877 10.21462941 200 200 200
77.71023866 99.86171877 13.58551059 200 200 200
77.82352761 99.85111153 10.21462941 200 200 200
77.60026144 99.8433149 13.58551059 200 200 200
3 0 1 2
3 0 2 3
3 3 4 5
3 3 5 6
3 2 7 4
3 2 4 3
3 8 9 10
3 8 10 11
3 5 12 6
3 11 10 13
3 11 13 2
3 11 2 1
3 11 1 14
3 2 13 7
3 15 12 5
3 15 5 4
3 7 13 15
3 7 15 4
3 13 10 9
3 13 9 15
3 1 0 16
3 1 16 14
3 3 6 12
3 3 12 15
3 11 14 16
3 11 16 8
3 16 0 3
3 16 3 15
3 16 15 9
3 16 9 8

