ply
format ascii 1.0
element vertex 10
property float x
property float y
property float z
property uchar red
property uchar green
property uchar blue
element face 16
property list uchar int vertex_index
end_header
95.54494622 104.4591448 10.19034595 200 200 200
95.54649767 104.4591448 10.19034595 200 200 200
95.54649767 104.4591448 13.58703505 200 200 200
95.54494622 104.4591448 13.58703505 200 200 200
95.55002617 104.8634702 10.19034595 200 200 200
95.14661084 104.8634702 10.19034595 200 200 200
95.14661084 104.8634702 13.58703505 200 200 200
95.55002617 104.8634702 13.58703505 200 200 200
95.14320477 104.4731739 10.19034595 200 200 200
95.14320477 104.4731739 13.58703505 200 200 200
3 0 1 2
3 0 2 3
3 4 5 6
3 4 6 7
3 4 1 0
3 4 0 8
3 4 8 5
3 9 3 2
3 9 2 7
3 9 7 6
3 3 9 8
3 3 8 0
3 5 8 9
3 5 9 6
3 7 2 1
3 7 1 4

