ply
format ascii 1.0
element vertex 456
property float x
property float y
property float z
property uchar red
property uchar green
property uchar blue
element face 974
property list uchar int vertex_index
end_header
102.9581451 93.45191229 13.38377235 200 200 200
102.9581451 93.3329 13.38377235 200 200 200
102.9581451 93.3329 12.83539157 200 200 200
102.9581451 93.38904909 12.83337191 200 200 200
102.9581451 93.33009908 10.16446365 200 200 200
102.9581451 93.3329 10.18898718 200 200 200
102.9581451 93.3329 12.7189085 200 200 200
102.9581451 93.27337108 12.72045399 200 200 200
102.9581451 93.27337108 10.16446365 200 200 200
102.9581451 93.3329 10.16446365 200 200 200
105.2409339 93.33047241 13.01786448 200 200 200
105.2409339 93.3329 12.99942509 200 200 200
105.2409339 93.3329 13.01572335 200 200 200
105.2409339 93.3329 12.86223809 200 200 200
105.2409339 93.29611737 12.90763054 200 200 200
105.2409339 93.27384672 12.71263917 200 200 200
105.2409339 93.3329 12.71110604 200 200 200
105.2409339 93.27337108 12.93570113 200 200 200
105.2409339 93.27337108 12.71265152 200 200 200
105.2409339 93.4579978 12.70785826 200 200 200
105.2409339 93.27337108 10.16446365 200 200 200
105.2409339 93.3329 10.16446365 200 200 200
104.7201158 93.27337108 12.92408967 200 200 200
104.7620158 93.27337108 13.0505841 200 200 200
104.9094368 93.27337108 13.01522071 200 200 200
105.1115863 93.27337108 12.96672905 200 200 200
104.7201158 93.27337108 12.71443165 200 200 200
104.4219218 93.27337108 10.16446365 200 200 200
104.4219218 93.27337108 10.36964625 200 200 200
104.4219218 93.27337108 12.1379669 200 200 200
104.4916298 93.27337108 12.71521261 200 200 200
104.6507472 93.27337108 12.71466875 200 200 200
103.106329 93.27337108 12.7199475 200 200 200
103.1295833 93.27337108 12.71986802 200 200 200
103.2562335 93.27337108 12.71943513 200 200 200
103.3203988 93.27337108 11.04828033 200 200 200
103.3760441 93.27337108 12.71902563 200 200 200
103.3945363 93.27337108 10.69262424 200 200 200
103.3967302 93.27337108 10.45220949 200 200 200
103.4302516 93.27337108 12.71884035 200 200 200
103.4068588 93.27337108 10.37311569 200 200 200
103.4308842 93.27337108 12.71883819 200 200 200
103.4308842 93.27337108 10.37303357 200 200 200
104.3952082 93.27337108 10.36973756 200 200 200
104.3952082 93.27337108 11.56263422 200 200 200
104.3952082 93.27337108 11.97668208 200 200 200
104.3952082 93.27337108 12.71554217 200 200 200
104.4198254 93.27337108 12.71545803 200 200 200
104.4219218 93.27337108 12.71545087 200 200 200
104.4658211 93.27337108 12.74361871 200 200 200
104.6518858 93.27337108 12.71810606 200 200 200
103.4222567 93.27337108 10.25287404 200 200 200
103.4335783 93.27337108 10.16446365 200 200 200
103.6504873 93.27337108 10.37105642 200 200 200
103.6482854 93.27337108 10.2540973 200 200 200
103.6479413 93.27337108 10.23581772 200 200 200
103.6477126 93.27337108 10.22367115 200 200 200
103.6505104 93.27337108 10.3722829 200 200 200
104.2116592 93.27337108 10.50441699 200 200 200
104.223445 93.27337108 10.37032464 200 200 200
104.2415388 93.27337108 10.16446365 200 200 200
104.1869666 93.27337108 10.16446365 200 200 200
104.1807549 93.27337108 10.32624415 200 200 200
104.1884215 93.27337108 10.37044435 200 200 200
104.1875062 93.27337108 10.77921555 200 200 200
104.2142648 93.27337108 10.93348712 200 200 200
104.2223491 93.27337108 10.56604754 200 200 200
104.1526939 93.27337108 10.16446365 200 200 200
104.1705618 93.27337108 10.26747785 200 200 200
104.4121824 93.57322892 12.70769927 200 200 200
104.4096465 93.57322892 12.76506399 200 200 200
104.6522056 93.57322892 12.70687889 200 200 200
104.4245387 93.57322892 12.70765704 200 200 200
103.4677939 93.57322892 12.71092715 200 200 200
103.433501 93.57322892 12.71104436 200 200 200
103.4326496 93.57322892 12.71104727 200 200 200
103.4611293 93.57322892 12.92729865 200 200 200
103.8168182 93.57322892 12.9026086 200 200 200
103.7530028 93.57322892 12.70995232 200 200 200
103.5733801 93.57322892 12.71056626 200 200 200
103.4722542 93.57322892 12.7109119 200 200 200
103.8441736 93.57322892 12.90070973 200 200 200
104.0136946 93.57322892 12.860045 200 200 200
104.0136946 93.57322892 12.70906129 200 200 200
103.8479626 93.57322892 12.70962775 200 200 200
104.4053177 93.57322892 12.70772274 200 200 200
104.3211087 93.57322892 12.70801056 200 200 200
104.2289942 93.57322892 12.7083254 200 200 200
104.4245387 93.57322892 12.42817814 200 200 200
103.433501 93.57322892 12.21293215 200 200 200
103.3682278 93.57322892 12.22188222 200 200 200
104.4245387 93.57322892 11.83410885 200 200 200
104.395002 93.57322892 10.95716859 200 200 200
104.4245387 93.57322892 11.12745689 200 200 200
104.4245387 93.57322892 10.71340904 200 200 200
104.4232312 93.57322892 10.70587122 200 200 200
104.4245387 93.57322892 10.36185243 200 200 200
104.4120163 93.57322892 10.36189523 200 200 200
104.4223735 93.57322892 10.70092618 200 200 200
104.3635969 93.57322892 10.36206073 200 200 200
104.4245387 93.57322892 10.16446365 200 200 200
104.3293234 93.57322892 10.16446365 200 200 200
103.0254855 93.57322892 12.26887805 200 200 200
103.0254855 93.57322892 11.22488125 200 200 200
102.9777305 93.57322892 12.30518477 200 200 200
102.9704013 93.57322892 12.47098347 200 200 200
103.0254855 93.57322892 12.57888705 200 200 200
104.2530111 93.57322892 10.3624387 200 200 200
104.2918224 93.57322892 10.36230605 200 200 200
104.2704118 93.57322892 10.16446365 200 200 200
103.5224001 93.57322892 10.16446365 200 200 200
103.4967169 93.57322892 10.36502368 200 200 200
103.5292211 93.57322892 10.36491258 200 200 200
103.4886251 93.57322892 10.42821182 200 200 200
103.4866203 93.57322892 10.64790596 200 200 200
103.5344321 93.57322892 10.64171299 200 200 200
103.5341203 93.57322892 10.62515254 200 200 200
103.4403929 93.29637702 10.16446365 200 200 200
103.4512115 93.3329 10.16446365 200 200 200
103.1104259 93.3329 10.16446365 200 200 200
103.0233882 93.3329 10.16446365 200 200 200
103.4757353 93.41569094 10.16446365 200 200 200
103.6225467 93.3329 10.16446365 200 200 200
103.7231717 93.3329 10.16446365 200 200 200
103.9020785 93.3329 10.16446365 200 200 200
104.2598079 93.46310266 10.16446365 200 200 200
104.2588999 93.45367339 10.16446365 200 200 200
104.0756969 93.3329 10.16446365 200 200 200
104.2022491 93.35749923 10.16446365 200 200 200
103.8163867 93.30171078 10.16446365 200 200 200
103.8527127 93.28955629 10.16446365 200 200 200
104.2472708 93.3329 10.16446365 200 200 200
104.2508035 93.3329 10.16446365 200 200 200
104.4238496 93.49426819 10.16446365 200 200 200
104.187759 93.3329 10.16446365 200 200 200
104.4224413 93.3329 10.16446365 200 200 200
104.2469223 93.32928071 10.16446365 200 200 200
104.2434886 93.32607879 10.16446365 200 200 200
104.1782128 93.31669368 10.16446365 200 200 200
104.5626711 93.3329 10.16446365 200 200 200
104.4222727 93.31357699 10.16446365 200 200 200
104.2465931 93.32586171 10.16446365 200 200 200
103.2382634 93.3329 13.38377235 200 200 200
103.3157557 93.42690572 13.38377235 200 200 200
103.527539 93.3329 13.38377235 200 200 200
103.5254613 93.41224167 13.38377235 200 200 200
104.6601001 93.3329 13.38377235 200 200 200
103.3310898 93.44550752 13.38377235 200 200 200
103.5249452 93.43195184 13.38377235 200 200 200
104.4520679 93.3329 12.66650397 200 200 200
104.4224413 93.3329 12.42116886 200 200 200
104.4224413 93.3329 11.93152812 200 200 200
104.4224413 93.3329 11.51748026 200 200 200
104.4224413 93.3329 10.368099 200 200 200
104.4224413 93.3329 10.33375005 200 200 200
104.4577773 93.3329 12.71378283 200 200 200
104.5798744 93.3329 12.71336551 200 200 200
104.5798744 93.3329 12.99942509 200 200 200
104.5798744 93.3329 12.82495067 200 200 200
104.4914262 93.3329 12.77079861 200 200 200
104.5671564 93.3329 12.99942509 200 200 200
104.5875776 93.3329 13.06107593 200 200 200
104.5746556 93.3329 13.02206504 200 200 200
104.5798744 93.3329 13.02081317 200 200 200
104.6690359 93.3329 12.99942509 200 200 200
104.451905 93.3329 12.7466019 200 200 200
103.9007428 93.3329 12.7466019 200 200 200
104.3136865 93.3329 12.99942509 200 200 200
104.4320194 93.3329 13.07187396 200 200 200
104.4137201 93.3329 13.06067027 200 200 200
104.2115706 93.3329 13.10916193 200 200 200
104.5816744 93.3329 13.33575655 200 200 200
104.8630268 93.3329 13.33575655 200 200 200
104.6316367 93.3329 13.19408887 200 200 200
104.1793177 93.3329 13.08941519 200 200 200
103.4950285 93.3329 13.13691496 200 200 200
103.5212154 93.3329 13.33575655 200 200 200
104.3986308 93.3329 12.71398499 200 200 200
104.3622107 93.3329 12.71410947 200 200 200
104.2207558 93.3329 12.71459296 200 200 200
104.0531147 93.3329 12.71516595 200 200 200
103.6910119 93.3329 12.7164036 200 200 200
103.592197 93.3329 12.72995281 200 200 200
103.6193904 93.3329 12.7466019 200 200 200
104.4486162 93.3329 12.74458834 200 200 200
103.0233882 93.3329 10.22893201 200 200 200
103.1053577 93.3329 10.27911751 200 200 200
103.0233882 93.3329 12.13341212 200 200 200
102.9975121 93.3329 12.71877395 200 200 200
103.4397613 93.3329 12.71726236 200 200 200
103.4385901 93.3329 12.71726636 200 200 200
103.3942586 93.3329 12.71741789 200 200 200
103.3201381 93.3329 12.71767123 200 200 200
103.128711 93.3329 12.71832551 200 200 200
103.0233882 93.3329 12.79061267 200 200 200
102.9934275 93.3329 12.81117587 200 200 200
102.991828 93.3329 12.81227367 200 200 200
103.4441068 93.3329 12.75025851 200 200 200
103.4707746 93.3329 12.7466019 200 200 200
103.5707381 93.3329 12.71681469 200 200 200
104.201055 93.3329 10.24111872 200 200 200
103.7805783 93.3329 10.33777183 200 200 200
103.7913384 93.3329 10.37025608 200 200 200
103.8863174 93.3329 10.36993144 200 200 200
104.0517266 93.3329 10.33698839 200 200 200
104.1514234 93.3329 10.36902532 200 200 200
104.2031033 93.3329 10.66697596 200 200 200
104.2272563 93.3329 10.39217741 200 200 200
104.223198 93.3329 10.36878 200 200 200
103.7643063 93.3329 10.28864731 200 200 200
103.7674629 93.3329 10.298177 200 200 200
103.6252237 93.3329 10.30666241 200 200 200
103.6264316 93.3329 10.37081972 200 200 200
103.6945645 93.3329 10.37058684 200 200 200
104.0010245 93.3329 10.36953938 200 200 200
103.4297597 93.3329 10.3319805 200 200 200
103.4246978 93.3329 10.37150924 200 200 200
103.4149736 93.3329 10.44744538 200 200 200
103.4124522 93.3329 10.46713493 200 200 200
103.3972086 93.3329 12.39415301 200 200 200
103.4314037 93.3329 12.65380151 200 200 200
103.438409 93.3329 12.70699441 200 200 200
103.4040214 93.3329 10.53297017 200 200 200
103.4005643 93.3329 10.55996735 200 200 200
103.2798236 93.3329 11.5028293 200 200 200
103.124168 93.3329 12.71834104 200 200 200
103.0233882 93.3329 12.7186855 200 200 200
103.4013259 93.3329 10.6031754 200 200 200
103.4093817 93.3329 11.06020483 200 200 200
103.3471533 93.3329 12.01407465 200 200 200
103.4314037 93.3329 12.30956288 200 200 200
104.248395 93.3329 10.22719087 200 200 200
104.2429612 93.3329 10.36871245 200 200 200
104.2678178 93.3329 10.36862749 200 200 200
104.3622107 93.3329 10.36830486 200 200 200
104.2293146 93.3329 10.36875909 200 200 200
104.2393771 93.3329 10.46205795 200 200 200
104.251714 93.3329 10.9472317 200 200 200
104.2587483 93.3329 10.9877865 200 200 200
104.2615711 93.3329 10.85948312 200 200 200
104.4224413 93.3329 12.71390361 200 200 200
104.3622107 93.3329 11.92240404 200 200 200
103.0420562 93.3329 12.99942509 200 200 200
103.4769214 93.3329 12.99942509 200 200 200
102.9582731 93.3329 12.83530372 200 200 200
103.2137516 93.3329 13.33575655 200 200 200
103.1253441 93.3329 13.16257651 200 200 200
104.0323341 93.3329 12.99942509 200 200 200
104.4239123 93.50146095 10.3637178 200 200 200
104.4224755 93.33680912 10.36799739 200 200 200
104.4240781 93.5204577 10.88996632 200 200 200
104.4242801 93.54360038 10.81253757 200 200 200
104.4232946 93.43067575 11.1903508 200 200 200
104.4243665 93.55350622 11.15408381 200 200 200
104.4243756 93.55454679 11.18996192 200 200 200
104.4243451 93.55105195 11.20165464 200 200 200
104.4229754 93.39409835 12.71231295 200 200 200
104.4230224 93.39947968 12.71217308 200 200 200
104.423889 93.49878801 12.70959189 200 200 200
104.4227705 93.37061862 12.71292323 200 200 200
104.3854359 93.29100076 12.71511787 200 200 200
104.4220564 93.28879119 12.71505007 200 200 200
104.4850212 93.28499211 12.71493349 200 200 200
104.6448217 93.27535027 12.71463762 200 200 200
104.0403823 93.31182015 12.71575674 200 200 200
104.1972966 93.30235246 12.71546621 200 200 200
103.4407056 93.34800265 12.71686704 200 200 200
103.4393119 93.34808674 12.71686962 200 200 200
103.4317454 93.37205202 12.66418066 200 200 200
103.4324334 93.45089606 12.48733006 200 200 200
103.4593952 93.53344931 12.29856141 200 200 200
103.4506429 93.44660546 12.49445208 200 200 200
103.4315403 93.34855566 12.71688401 200 200 200
103.4172577 93.41793821 12.56329735 200 200 200
103.4233889 93.42320295 12.55065393 200 200 200
103.4194263 93.41106986 12.5783978 200 200 200
103.0247134 93.48475746 11.55933559 200 200 200
102.9859336 93.379244 12.81465223 200 200 200
102.9933656 93.33328283 12.81120458 200 200 200
104.2279344 93.31890211 10.36912722 200 200 200
104.2450593 93.32826242 10.18454412 200 200 200
104.2228623 93.31612977 10.42379706 200 200 200
104.2305566 93.34549615 10.36842783 200 200 200
104.2332391 93.35573436 10.34912407 200 200 200
104.2318824 93.35894282 10.3680742 200 200 200
104.4921542 93.32634314 12.71383556 200 200 200
104.6157324 93.31767915 12.71363811 200 200 200
104.4602333 93.32858109 12.71388656 200 200 200
104.4224268 93.33123168 12.71394697 200 200 200
103.6705906 93.3329 12.7164734 200 200 200
103.6735049 93.32569509 12.71665049 200 200 200
104.0335176 93.30045485 12.71607527 200 200 200
103.4309262 93.27818713 12.71871301 200 200 200
104.3942128 93.27516676 12.71549895 200 200 200
104.1875463 93.28965601 12.71582916 200 200 200
104.4440436 93.37062823 12.71285027 200 200 200
104.4363242 93.37062474 12.71287675 200 200 200
104.446995 93.35186037 12.71332744 200 200 200
104.4406854 93.39198217 12.71230736 200 200 200
104.4909423 93.37064941 12.71268943 200 200 200
103.6700797 93.33416298 12.71644235 200 200 200
103.6253855 93.33685968 12.7165251 200 200 200
103.439557 93.33980297 12.71708384 200 200 200
103.3996379 93.35048054 12.71694308 200 200 200
103.1342351 93.36649407 12.71743447 200 200 200
103.1282133 93.3668574 12.71744562 200 200 200
103.1284992 93.34735313 12.71795101 200 200 200
103.342699 93.35391605 12.7170485 200 200 200
104.249662 93.37054046 12.71351694 200 200 200
104.2721523 93.39982649 12.71267975 200 200 200
103.6493419 93.38543212 12.71518219 200 200 200
103.8642305 93.37036643 12.71483884 200 200 200
104.2298434 93.34473356 12.71425467 200 200 200
104.2240042 93.33712997 12.71447204 200 200 200
103.7929706 93.33693535 12.71595034 200 200 200
103.668981 93.33687936 12.71637559 200 200 200
103.6653389 93.34588352 12.71615427 200 200 200
103.6554739 93.37027217 12.71555481 200 200 200
104.2952388 93.45372058 12.71120165 200 200 200
104.2915377 93.42506929 12.71195814 200 200 200
104.3029111 93.43987929 12.71153477 200 200 200
103.4479265 93.39955321 12.71550401 200 200 200
103.4438116 93.3701766 12.71628074 200 200 200
103.4425962 93.36149985 12.71651016 200 200 200
103.4333071 93.55100904 12.71162189 200 200 200
103.4357487 93.46849838 12.71375568 200 200 200
103.4389073 93.36175847 12.71651606 200 200 200
103.43166 93.36226658 12.71652764 200 200 200
103.4377679 93.40026543 12.71552024 200 200 200
103.4386583 93.37017427 12.71629842 200 200 200
103.1391145 93.38277674 12.71699506 200 200 200
103.1279686 93.38355817 12.71701287 200 200 200
104.3569357 93.51022784 12.70952373 200 200 200
104.3375655 93.33718125 12.71408256 200 200 200
104.3607381 93.33555663 12.71404553 200 200 200
104.3413233 93.37058185 12.71320257 200 200 200
104.3596831 93.37059014 12.7131396 200 200 200
104.3371461 93.37811777 12.7130212 200 200 200
104.4189265 93.40121828 12.71214195 200 200 200
104.3090413 93.44786175 12.71130658 200 200 200
103.4314037 93.3329 10.37148631 200 200 200
103.4318853 93.38808379 10.44302901 200 200 200
103.4316048 93.35594901 10.37088723 200 200 200
103.4315773 93.35279588 10.37096919 200 200 200
103.4320213 93.40367141 11.78032481 200 200 200
103.4322023 93.42440824 11.62525206 200 200 200
103.4324869 93.45702199 12.68670607 200 200 200
103.0254335 93.56727244 12.28223869 200 200 200
103.0237395 93.37316101 12.71763905 200 200 200
103.0234569 93.34077501 12.79028224 200 200 200
103.0237936 93.37935221 12.78866358 200 200 200
103.0239643 93.39892056 12.78784251 200 200 200
103.0243544 93.44361624 12.78596712 200 200 200
103.0247439 93.4882556 12.71464754 200 200 200
103.1208298 93.36501905 12.72257933 200 200 200
102.9890603 93.38448263 12.81231783 200 200 200
102.9998073 93.40248877 12.80429406 200 200 200
103.4202798 93.37660018 11.33004572 200 200 200
104.3101107 93.42689096 11.93132631 200 200 200
103.6335123 93.3153946 10.37124999 200 200 200
103.635077 93.3115262 10.37134507 200 200 200
103.6499414 93.27477765 10.37224833 200 200 200
103.6006716 93.39658506 10.36925438 200 200 200
103.5997263 93.40039277 10.40075634 200 200 200
103.5677397 93.48506239 10.51879709 200 200 200
103.5458748 93.54293975 10.59948584 200 200 200
103.6081397 93.3781222 10.36970819 200 200 200
104.2493842 93.53644442 10.3634061 200 200 200
104.248955 93.5320921 10.36352056 200 200 200
103.7411866 93.3496513 10.3699926 200 200 200
103.6456256 93.38156989 10.36949055 200 200 200
104.2451305 93.49330373 10.36454065 200 200 200
104.239028 93.43141279 10.36616831 200 200 200
103.7671107 93.34099235 10.37012879 200 200 200
104.2378371 93.41933497 10.36648595 200 200 200
104.1620344 93.35106334 10.3685175 200 200 200
103.4424013 93.36287871 10.37067042 200 200 200
103.4334343 93.36205398 10.37072248 200 200 200
104.2595837 93.51804407 10.36384894 200 200 200
104.2797074 93.42963042 10.36607555 200 200 200
104.2993152 93.38539533 10.36715696 200 200 200
104.3216035 93.40615742 10.36654175 200 200 200
104.3575195 93.34136314 10.36810118 200 200 200
104.2763118 93.34705656 10.36823093 200 200 200
104.2388727 93.35973139 10.36802983 200 200 200
104.259429 93.3482402 10.3682579 200 200 200
104.5651293 93.32348516 13.07093803 200 200 200
104.3248953 93.34047688 13.07262717 200 200 200
104.2629751 93.37045691 13.05048305 200 200 200
104.4294509 93.37217813 13.03740906 200 200 200
104.4605765 93.37249994 13.03496464 200 200 200
104.2402067 93.38148075 13.04234052 200 200 200
103.8936598 93.5492691 12.91840715 200 200 200
104.4282034 93.38259412 13.02830877 200 200 200
103.4855862 93.3998411 13.07852853 200 200 200
103.4805976 93.4352078 13.04768149 200 200 200
104.3374585 93.4324984 10.6892893 200 200 200
104.3193785 93.41017139 10.53659749 200 200 200
104.334482 93.42756543 10.68888139 200 200 200
104.3215849 93.40619087 10.68711395 200 200 200
104.3215892 93.40618313 10.68740685 200 200 200
104.3267449 93.41357336 10.71081697 200 200 200
104.3219324 93.40556403 10.71081697 200 200 200
104.2230347 93.34849447 10.31487977 200 200 200
104.2183266 93.39100222 10.55742637 200 200 200
104.3282382 93.4231355 10.66792808 200 200 200
104.3377789 93.42990452 10.69994518 200 200 200
104.3362297 93.47465352 10.95309279 200 200 200
104.2984811 93.4478712 10.82641378 200 200 200
104.3622107 93.3329 11.17023203 200 200 200
104.3622107 93.3329 11.58427989 200 200 200
104.3299538 93.39109304 10.78663569 200 200 200
104.3215912 93.4061795 10.68718892 200 200 200
104.328936 93.39292925 11.18857962 200 200 200
104.3181483 93.41239067 11.06029403 200 200 200
104.3212577 93.40678121 10.72333365 200 200 200
103.0371784 93.390731 12.89648576 200 200 200
104.2239472 93.28632835 10.94530611 200 200 200
104.3089747 93.42894025 10.95120268 200 200 200
104.3421901 93.4373031 10.70025109 200 200 200
103.922008 93.35760008 13.14814055 200 200 200
104.0621906 93.36288594 13.10799039 200 200 200
104.4253902 93.34928655 13.21128814 200 200 200
104.6306708 93.34160017 13.26967207 200 200 200
104.2668325 93.3329 10.62034693 200 200 200
104.3215228 93.40608798 10.68710544 200 200 200
104.3012088 93.37890328 10.66230888 200 200 200
104.7079109 93.29056151 13.04234852 200 200 200
104.7093103 93.27795772 12.9328525 200 200 200
104.6520443 93.30226568 12.97929307 200 200 200
104.6964802 93.29419335 13.04060859 200 200 200
104.5954071 93.32630673 13.02522374 200 200 200
104.6337203 93.31413369 13.03105559 200 200 200
104.5846682 93.32971875 13.02358911 200 200 200
104.4300461 93.37884598 13.00005328 200 200 200
104.4883828 93.36031099 13.00893301 200 200 200
104.4919846 93.32622393 13.05013492 200 200 200
104.5871486 93.32981228 13.0228787 200 200 200
104.3446559 93.32120565 13.08825266 200 200 200
104.351802 93.32093807 13.09028509 200 200 200
104.3642787 93.32140853 13.08671161 200 200 200
104.2121422 93.3329 10.30503986 200 200 200
104.1996024 93.29251005 10.36990925 200 200 200
104.2728274 93.36686767 10.53955436 200 200 200
103.5023622 93.39339642 13.20462994 200 200 200
103.4400892 93.41485366 10.44088661 200 200 200
103.4180296 93.34287207 10.44664731 200 200 200
104.4915912 93.33141402 12.75788907 200 200 200
104.8097258 93.3329 12.96567635 200 200 200
104.4281072 93.39732129 12.97771851 200 200 200
104.5220672 93.35743767 13.00439868 200 200 200
103.4991578 93.41091339 13.1837814 200 200 200
103.4273116 93.31347644 10.30616903 200 200 200
103.4580569 93.44422015 10.36850513 200 200 200
103.4303047 93.35161039 10.37100431 200 200 200
103.4434734 93.36548364 12.75192739 200 200 200
3 0 1 2
3 0 2 3
3 4 5 6
3 4 6 7
3 4 7 8
3 4 9 5
3 10 11 12
3 13 14 15
3 13 15 16
3 17 18 15
3 17 15 14
3 13 16 19
3 20 21 16
3 20 16 15
3 20 15 18
3 22 23 24
3 22 24 25
3 22 25 17
3 22 17 18
3 22 18 26
3 18 20 27
3 18 27 28
3 18 28 29
3 18 29 30
3 18 30 31
3 18 31 26
3 32 33 34
3 32 34 35
3 36 37 38
3 36 38 35
3 36 35 34
3 36 39 37
3 40 38 37
3 40 37 39
3 40 39 41
3 40 41 42
3 29 28 43
3 29 43 44
3 29 44 45
3 29 45 46
3 29 46 47
3 29 47 48
3 30 48 47
3 30 47 49
3 30 49 50
3 30 50 31
3 29 48 30
3 38 40 51
3 38 51 52
3 38 52 8
3 38 8 7
3 38 7 32
3 38 32 35
3 53 54 55
3 53 55 56
3 53 56 51
3 53 51 40
3 53 40 42
3 53 42 57
3 58 59 60
3 58 60 61
3 58 61 62
3 58 62 63
3 64 65 66
3 64 66 58
3 61 67 68
3 61 68 62
3 69 70 71
3 69 71 72
3 73 74 75
3 73 75 76
3 73 76 77
3 73 77 78
3 73 78 79
3 73 79 80
3 77 81 82
3 77 82 83
3 77 83 84
3 77 84 78
3 83 82 70
3 83 70 69
3 83 69 85
3 83 85 86
3 83 86 87
3 88 69 72
3 89 90 75
3 89 75 74
3 88 91 85
3 88 85 69
3 92 93 94
3 92 94 95
3 96 97 98
3 96 98 95
3 96 95 94
3 99 97 96
3 99 96 100
3 99 100 101
3 102 103 104
3 102 104 105
3 102 105 106
3 107 108 99
3 107 99 101
3 107 101 109
3 107 109 110
3 107 110 111
3 107 111 112
3 113 114 115
3 113 115 116
3 113 116 112
3 113 112 111
3 117 4 8
3 117 8 52
3 4 117 118
3 4 118 119
3 4 119 120
3 4 120 9
3 121 118 122
3 121 122 123
3 110 121 123
3 110 123 124
3 110 124 125
3 110 125 109
3 125 126 101
3 125 101 109
3 125 124 127
3 125 127 128
3 125 128 126
3 124 129 130
3 124 130 127
3 126 131 132
3 126 132 133
3 126 133 100
3 126 100 101
3 131 126 128
3 131 128 134
3 127 134 128
3 133 132 135
3 131 136 132
3 137 136 131
3 137 131 134
3 137 134 138
3 137 138 67
3 137 67 61
3 139 135 140
3 139 140 27
3 139 27 20
3 139 20 21
3 61 60 141
3 61 141 137
3 142 143 0
3 142 0 1
3 143 142 144
3 143 144 145
3 146 145 144
3 147 143 145
3 147 145 148
3 139 149 150
3 139 150 151
3 139 151 152
3 139 152 153
3 139 153 154
3 139 154 135
3 155 149 139
3 155 139 21
3 155 21 16
3 155 16 156
3 157 158 159
3 157 159 160
3 11 12 161
3 11 161 162
3 11 162 163
3 11 163 164
3 160 162 163
3 160 163 157
3 165 166 167
3 165 167 160
3 165 160 159
3 168 169 170
3 168 170 171
3 168 171 172
3 168 172 173
3 174 175 176
3 174 176 171
3 174 171 170
3 176 144 146
3 176 146 171
3 177 178 179
3 177 179 180
3 177 180 181
3 177 181 182
3 177 182 183
3 177 183 166
3 177 166 165
3 177 165 184
3 185 120 119
3 185 119 186
3 187 185 186
3 120 185 5
3 120 5 9
3 185 187 188
3 185 188 6
3 185 6 5
3 189 190 191
3 189 191 192
3 189 192 193
3 189 193 194
3 189 194 195
3 189 195 196
3 189 196 197
3 189 197 198
3 189 198 182
3 189 182 199
3 200 134 127
3 200 127 201
3 200 201 202
3 200 202 203
3 200 203 204
3 205 206 207
3 205 207 208
3 209 210 124
3 209 124 123
3 122 211 209
3 122 209 123
3 211 212 213
3 211 213 210
3 211 210 209
3 214 204 203
3 186 119 118
3 186 118 215
3 186 215 216
3 186 216 217
3 186 217 218
3 215 211 122
3 215 122 118
3 190 191 219
3 190 219 220
3 190 220 221
3 187 186 218
3 187 218 222
3 187 222 223
3 187 223 224
3 187 224 225
3 187 225 226
3 223 222 227
3 222 218 217
3 222 217 228
3 222 228 227
3 229 224 223
3 229 223 227
3 192 193 225
3 192 225 224
3 192 224 229
3 219 229 227
3 219 227 228
3 191 192 229
3 191 229 219
3 220 219 228
3 220 228 230
3 195 194 226
3 195 226 188
3 132 231 154
3 132 154 135
3 231 232 233
3 231 233 234
3 231 234 153
3 231 153 154
3 235 232 236
3 235 236 207
3 237 238 239
3 150 240 177
3 150 177 178
3 150 178 241
3 242 243 197
3 242 197 196
3 242 196 244
3 1 142 245
3 1 245 246
3 1 246 242
3 1 242 244
3 1 244 2
3 183 247 167
3 183 167 166
3 197 243 247
3 197 247 183
3 197 183 198
3 247 243 175
3 247 175 174
3 198 183 182
3 242 246 175
3 242 175 243
3 246 245 176
3 246 176 175
3 245 142 144
3 245 144 176
3 135 154 140
3 154 153 28
3 154 28 27
3 154 27 140
3 96 100 133
3 96 133 248
3 248 133 135
3 248 135 154
3 248 154 249
3 249 154 153
3 250 251 94
3 250 94 96
3 250 96 248
3 252 250 248
3 252 248 249
3 253 254 93
3 253 93 94
3 253 94 251
3 255 253 251
3 255 251 250
3 255 250 252
3 255 252 152
3 255 152 151
3 256 257 258
3 256 258 88
3 256 88 91
3 256 91 254
3 256 254 255
3 256 255 151
3 256 151 150
3 254 253 255
3 252 249 153
3 252 153 152
3 240 150 256
3 240 256 259
3 72 88 258
3 260 261 262
3 260 262 263
3 260 263 50
3 260 50 49
3 260 49 182
3 260 182 181
3 260 181 264
3 260 264 265
3 266 267 268
3 266 268 269
3 266 269 270
3 266 270 271
3 268 272 267
3 90 273 274
3 90 274 269
3 90 269 89
3 275 274 273
3 104 276 103
3 104 105 277
3 104 277 278
3 104 278 195
3 104 195 188
3 104 188 187
3 104 187 276
3 59 279 280
3 59 280 141
3 59 141 60
3 281 279 59
3 281 59 58
3 281 207 206
3 281 206 64
3 281 64 58
3 282 283 284
3 207 282 235
3 31 263 285
3 31 285 286
3 31 286 26
3 287 285 263
3 287 263 262
3 287 262 261
3 287 261 288
3 7 6 188
3 7 188 226
3 7 226 225
3 7 225 32
3 181 289 290
3 181 290 291
3 181 291 264
3 289 199 290
3 292 39 36
3 292 36 191
3 292 191 190
3 32 225 193
3 32 193 33
3 39 292 41
3 192 34 33
3 192 33 193
3 36 34 192
3 36 192 191
3 293 260 265
3 293 265 294
3 47 46 293
3 294 265 264
3 294 264 291
3 261 260 178
3 261 178 177
3 261 177 288
3 295 296 297
3 298 257 256
3 298 256 296
3 298 296 295
3 258 257 298
3 155 156 299
3 155 299 295
3 155 295 297
3 156 16 19
3 156 19 71
3 156 71 72
3 156 72 258
3 156 258 298
3 156 298 299
3 295 299 298
3 181 300 289
3 189 199 289
3 189 289 300
3 189 300 301
3 189 301 266
3 189 266 302
3 267 272 303
3 267 303 191
3 267 191 190
3 267 190 189
3 267 189 302
3 304 305 306
3 192 307 304
3 192 304 306
3 192 306 193
3 192 191 303
3 192 303 307
3 308 309 78
3 308 78 79
3 308 79 310
3 308 310 311
3 312 308 311
3 300 181 180
3 300 180 179
3 300 179 313
3 300 313 314
3 300 314 315
3 316 314 313
3 316 313 312
3 316 312 311
3 316 311 317
3 315 314 316
3 311 310 317
3 318 83 84
3 318 84 319
3 318 319 320
3 319 84 78
3 319 78 309
3 318 87 83
3 79 80 321
3 79 321 310
3 300 315 301
3 322 323 316
3 322 316 317
3 316 323 266
3 316 266 301
3 316 301 315
3 321 322 317
3 321 317 310
3 74 324 325
3 74 325 73
3 326 327 324
3 326 324 325
3 326 325 328
3 326 328 329
3 80 73 325
3 80 325 328
3 80 328 321
3 323 322 329
3 323 329 326
3 267 266 323
3 267 323 326
3 329 322 321
3 329 321 328
3 305 304 330
3 305 330 331
3 330 304 307
3 330 307 303
3 330 303 272
3 330 272 327
3 332 85 86
3 333 334 335
3 333 335 308
3 333 308 312
3 178 334 333
3 178 333 313
3 178 313 179
3 240 259 336
3 240 336 335
3 240 335 334
3 240 334 177
3 337 336 259
3 337 259 256
3 337 256 338
3 337 338 339
3 337 339 320
3 339 338 332
3 177 334 178
3 320 319 309
3 320 309 337
3 333 312 313
3 335 337 309
3 335 309 308
3 336 337 335
3 339 318 320
3 318 339 332
3 318 332 86
3 318 86 87
3 292 230 340
3 292 340 42
3 292 42 41
3 341 342 343
3 341 343 344
3 341 344 345
3 340 230 344
3 340 344 343
3 344 345 269
3 344 269 268
3 344 268 220
3 344 220 230
3 74 89 269
3 74 269 346
3 74 346 324
3 346 324 327
3 346 327 272
3 346 272 268
3 347 102 103
3 347 103 276
3 226 348 347
3 226 347 276
3 226 276 187
3 348 226 194
3 348 194 349
3 348 349 350
3 348 350 351
3 348 351 352
3 348 352 353
3 102 347 348
3 102 348 353
3 102 353 106
3 195 278 196
3 354 349 194
3 354 194 193
3 354 193 306
3 354 306 305
3 244 196 278
3 244 278 277
3 3 2 244
3 3 244 277
3 3 277 355
3 354 305 331
3 354 331 351
3 354 351 350
3 354 350 349
3 352 351 356
3 221 230 292
3 221 292 190
3 271 270 345
3 271 345 344
3 221 302 266
3 221 266 271
3 221 271 344
3 221 344 230
3 345 344 357
3 357 344 230
3 357 230 228
3 256 150 149
3 256 149 297
3 256 297 296
3 149 155 297
3 358 332 338
3 358 338 256
3 358 256 150
3 358 150 241
3 359 212 211
3 359 211 56
3 359 56 55
3 360 359 55
3 360 55 54
3 53 361 360
3 53 360 54
3 361 53 57
3 116 112 362
3 116 362 363
3 116 363 364
3 116 364 365
3 115 116 365
3 366 363 362
3 42 340 212
3 42 212 359
3 42 359 360
3 42 360 361
3 42 361 57
3 43 28 153
3 43 153 234
3 362 112 107
3 362 107 367
3 362 367 368
3 362 368 369
3 362 369 370
3 368 371 372
3 368 372 373
3 368 373 369
3 372 374 203
3 372 203 202
3 372 202 373
3 374 284 375
3 374 375 214
3 374 214 203
3 284 375 205
3 284 205 208
3 284 208 282
3 366 362 370
3 366 370 369
3 366 369 213
3 366 213 212
3 376 343 342
3 376 342 377
3 343 376 366
3 343 366 212
3 343 212 340
3 371 368 367
3 371 367 378
3 371 378 108
3 371 108 99
3 371 99 379
3 371 379 374
3 371 374 372
3 367 107 108
3 367 108 378
3 380 381 382
3 380 382 383
3 235 282 384
3 235 384 379
3 235 379 99
3 235 99 97
3 235 97 380
3 235 380 385
3 235 385 232
3 380 383 385
3 374 379 384
3 374 384 284
3 382 234 233
3 382 233 383
3 383 233 232
3 383 232 385
3 210 129 124
3 369 210 213
3 12 10 386
3 12 386 168
3 12 168 161
3 161 168 387
3 161 387 388
3 161 388 389
3 161 389 390
3 389 388 391
3 389 391 392
3 389 392 393
3 393 390 389
3 388 387 394
3 388 394 395
3 388 395 391
3 77 81 392
3 392 391 395
3 392 395 76
3 392 76 77
3 137 141 280
3 396 397 380
3 396 380 97
3 396 97 98
3 396 398 399
3 396 399 397
3 400 401 402
3 200 204 403
3 283 403 204
3 283 204 214
3 283 214 375
3 283 375 284
3 375 284 404
3 284 384 405
3 284 405 398
3 284 398 406
3 284 406 407
3 284 407 408
3 284 408 404
3 43 234 409
3 43 409 44
3 45 44 409
3 45 409 410
3 46 45 410
3 46 410 241
3 46 241 178
3 46 178 260
3 46 260 293
3 411 382 381
3 411 381 397
3 411 397 399
3 411 399 412
3 411 412 400
3 411 400 402
3 411 402 413
3 411 413 410
3 411 410 409
3 414 413 402
3 414 402 415
3 382 411 409
3 382 409 234
3 410 413 414
3 410 414 358
3 410 358 241
3 353 352 356
3 353 356 355
3 353 355 277
3 353 277 105
3 353 105 106
3 355 356 147
3 355 147 143
3 355 143 416
3 65 64 206
3 65 206 237
3 65 237 417
3 404 206 205
3 404 205 375
3 92 93 254
3 92 254 414
3 92 414 418
3 92 418 407
3 404 408 418
3 404 418 237
3 404 237 206
3 238 237 418
3 238 418 414
3 408 407 418
3 237 239 417
3 92 407 406
3 92 406 419
3 92 419 95
3 402 401 415
3 171 420 421
3 171 421 422
3 171 422 423
3 171 423 172
3 66 65 417
3 66 417 239
3 66 239 424
3 412 425 400
3 414 254 91
3 414 91 85
3 414 85 332
3 414 332 358
3 424 239 415
3 424 415 401
3 424 401 400
3 424 400 425
3 424 425 426
3 239 238 414
3 239 414 415
3 263 31 50
3 427 428 429
3 427 429 430
3 429 431 432
3 429 432 430
3 22 428 427
3 22 427 23
3 160 433 162
3 161 390 393
3 161 393 434
3 161 434 435
3 161 435 162
3 392 434 393
3 436 386 10
3 436 10 11
3 436 11 164
3 436 164 437
3 436 437 433
3 167 436 433
3 167 433 160
3 247 438 439
3 247 439 440
3 247 440 436
3 247 436 167
3 158 157 163
3 158 163 437
3 158 437 431
3 158 431 429
3 158 429 428
3 158 428 22
3 158 22 26
3 158 26 286
3 134 200 138
3 68 67 138
3 68 138 200
3 68 200 441
3 62 68 441
3 62 441 208
3 62 208 442
3 63 62 442
3 281 442 208
3 281 208 207
3 281 58 63
3 281 63 442
3 424 236 281
3 424 281 58
3 424 58 66
3 441 200 403
3 403 283 282
3 403 282 208
3 403 208 441
3 95 419 396
3 95 396 98
3 419 406 398
3 419 398 396
3 412 399 425
3 236 443 405
3 236 405 384
3 236 384 282
3 236 282 207
3 443 426 425
3 443 425 399
3 443 399 398
3 443 398 405
3 426 443 236
3 426 236 424
3 291 290 199
3 291 199 182
3 291 182 49
3 291 49 47
3 291 47 293
3 291 293 294
3 247 174 438
3 439 438 174
3 439 174 170
3 420 171 146
3 420 146 145
3 420 145 444
3 416 143 0
3 416 0 3
3 416 3 355
3 445 113 114
3 270 269 345
3 345 357 446
3 345 446 341
3 357 228 217
3 357 217 446
3 346 269 274
3 346 274 275
3 127 130 201
3 285 447 159
3 285 159 158
3 285 158 286
3 285 287 288
3 285 288 177
3 285 177 184
3 285 184 165
3 285 165 447
3 159 447 165
3 14 448 13
3 14 17 25
3 14 25 432
3 14 432 431
3 14 431 437
3 14 437 164
3 14 164 448
3 25 24 427
3 25 427 430
3 25 430 432
3 427 24 23
3 437 163 162
3 437 162 433
3 436 440 439
3 436 439 170
3 436 170 169
3 449 82 70
3 71 19 13
3 71 13 448
3 71 448 450
3 71 450 449
3 71 449 70
3 163 450 448
3 163 448 164
3 450 163 162
3 450 162 435
3 450 435 434
3 450 434 449
3 82 449 434
3 82 434 392
3 82 392 81
3 444 451 421
3 444 421 420
3 118 117 452
3 118 452 215
3 117 52 51
3 117 51 452
3 110 111 453
3 110 453 121
3 121 453 377
3 121 377 215
3 121 215 118
3 216 215 377
3 216 377 342
3 216 342 454
3 445 377 453
3 445 453 111
3 445 111 113
3 454 342 341
3 454 341 446
3 217 216 454
3 217 454 446
3 215 452 51
3 215 51 56
3 215 56 211
3 376 377 445
3 376 445 114
3 376 114 115
3 376 115 365
3 376 365 364
3 376 364 363
3 376 363 366
3 386 436 169
3 386 169 168
3 172 423 173
3 422 421 387
3 422 387 168
3 422 168 173
3 422 173 423
3 451 394 387
3 451 387 421
3 330 327 326
3 330 326 455
3 330 455 394
3 330 394 451
3 330 451 148
3 330 148 147
3 330 147 356
3 330 356 351
3 330 351 331
3 267 302 221
3 267 221 220
3 267 220 268
3 325 324 346
3 268 267 326
3 268 326 329
3 268 329 328
3 268 328 325
3 268 325 346
3 324 346 275
3 324 275 273
3 324 273 90
3 324 90 75
3 328 325 324
3 328 324 75
3 328 75 76
3 328 76 395
3 329 328 395
3 329 395 394
3 329 394 455
3 148 451 444
3 148 444 145
3 326 329 455
3 130 129 210
3 130 210 201
3 373 201 210
3 373 210 369
3 373 202 201
3 280 136 137
3 136 280 231
3 136 231 132
3 279 232 231
3 279 231 280
3 279 281 236
3 279 236 232
3 397 381 380

