ply
format ascii 1.0
element vertex 8
property float x
property float y
property float z
property uchar red
property uchar green
property uchar blue
element face 12
property list uchar int vertex_index
end_header
98.38692523 96.4745 10.18951981 200 200 200
98.38692523 96.47449998 10.18951981 200 200 200
98.38692523 96.47449998 13.58778319 200 200 200
98.38692523 96.4745 13.58778319 200 200 200
100.7243038 96.4745 10.18951981 200 200 200
100.7243038 96.4745 13.58778319 200 200 200
100.7243038 96.47449998 13.58778319 200 200 200
100.7243038 96.47449998 10.18951981 200 200 200
3 0 1 2
3 0 2 3
3 4 5 6
3 4 6 7
3 7 6 2
3 7 2 1
3 7 1 0
3 7 0 4
3 3 2 6
3 3 6 5
3 3 5 4
3 3 4 0

