ply
format ascii 1.0
element vertex 8
property float x
property float y
property float z
property uchar red
property uchar green
property uchar blue
element face 12
property list uchar int vertex_index
end_header
117.6542273 95.20632273 10.18300645 200 200 200
117.6542273 95.75390596 10.18300645 200 200 200
117.6542273 95.75390596 13.58646655 200 200 200
117.6542273 95.20632273 13.58646655 200 200 200
117.1243532 95.2155717 10.18300645 200 200 200
117.1291312 95.76307154 10.18300645 200 200 200
117.1291312 95.76307154 13.58646655 200 200 200
117.1243532 95.2155717 13.58646655 200 200 200
3 0 1 2
3 0 2 3
3 0 4 5
3 0 5 1
3 6 7 3
3 6 3 2
3 6 5 4
3 6 4 7
3 4 0 3
3 4 3 7
3 1 5 6
3 1 6 2

