ply
format ascii 1.0
element vertex 8
property float x
property float y
property float z
property uchar red
property uchar green
property uchar blue
element face 12
property list uchar int vertex_index
end_header
136.041077 82.28834337 13.58673197 200 200 200
136.041077 82.28834337 10.18206103 200 200 200
136.4400922 82.28834337 10.18206103 200 200 200
136.4400922 82.28834337 13.58673197 200 200 200
136.0375493 82.69257943 10.18206103 200 200 200
136.4365341 82.69606132 10.18206103 200 200 200
136.4365341 82.69606132 13.58673197 200 200 200
136.0375493 82.69257943 13.58673197 200 200 200
3 0 1 2
3 0 2 3
3 2 1 4
3 2 4 5
3 6 7 0
3 6 0 3
3 6 5 4
3 6 4 7
3 4 1 0
3 4 0 7
3 5 6 3
3 5 3 2

