ply
format ascii 1.0
element vertex 14
property float x
property float y
property float z
property uchar red
property uchar green
property uchar blue
element face 24
property list uchar int vertex_index
end_header
162.5987179 104.4710457 10.17726356 200 200 200
162.5987179 104.4710457 10.17368323 200 200 200
162.5987179 104.8747263 10.17368323 200 200 200
162.5987179 104.8747263 10.17726356 200 200 200
162.586 104.8747263 10.28084291 200 200 200
162.186 104.8747263 13.53859016 200 200 200
162.186 104.8747263 13.58678077 200 200 200
162.586 104.8747263 13.58678077 200 200 200
162.186 104.8747263 10.17368323 200 200 200
162.186 104.4746474 10.17368323 200 200 200
162.186 104.4746474 13.58678077 200 200 200
162.586 104.4711567 13.58678077 200 200 200
162.586 104.4711567 10.28084291 200 200 200
162.186 104.4746474 13.53859016 200 200 200
3 0 1 2
3 0 2 3
3 4 5 6
3 4 6 7
3 4 3 2
3 4 2 8
3 4 8 5
3 8 2 1
3 8 1 9
3 10 11 7
3 10 7 6
3 0 3 4
3 0 4 12
3 11 12 4
3 11 4 7
3 12 13 9
3 12 9 1
3 12 1 0
3 10 13 12
3 10 12 11
3 8 9 13
3 8 13 5
3 10 6 5
3 10 5 13

