ply
format ascii 1.0
element vertex 8
property float x
property float y
property float z
property uchar red
property uchar green
property uchar blue
element face 12
property list uchar int vertex_index
end_header
104.3689817 87.7504 10.19324425 200 200 200
104.3689817 87.7504 13.58777375 200 200 200
104.3689817 87.75039996 13.58777375 200 200 200
104.3689817 87.75039996 10.19324425 200 200 200
106.8440393 87.7504 10.19324425 200 200 200
106.8440393 87.7504 13.58777375 200 200 200
106.8440393 87.75039996 13.58777375 200 200 200
106.8440393 87.75039996 10.19324425 200 200 200
3 0 1 2
3 0 2 3
3 4 5 6
3 4 6 7
3 6 7 3
3 6 3 2
3 0 3 7
3 0 7 4
3 5 1 2
3 5 2 6
3 1 0 4
3 1 4 5

