ply
format ascii 1.0
element vertex 21
property float x
property float y
property float z
property uchar red
property uchar green
property uchar blue
element face 38
property list uchar int vertex_index
end_header
169.7437951 86.88464385 13.58628331 200 200 200
169.7437951 86.88464385 13.30309994 200 200 200
169.7437951 86.89656346 13.58628331 200 200 200
169.7775113 86.9994885 13.58628331 200 200 200
169.7775113 86.88464385 13.58628331 200 200 200
169.7775113 86.88464385 10.85783117 200 200 200
169.7775113 86.88464385 10.70500869 200 200 200
169.7775113 86.9264471 10.70500869 200 200 200
169.7775113 87.04772428 13.58628331 200 200 200
169.7775113 87.33005115 10.70500869 200 200 200
169.7775113 87.33005115 13.58628331 200 200 200
169.7752491 86.88464385 10.97576161 200 200 200
169.7752491 86.88464385 11.66334613 200 200 200
169.7752491 86.88464385 13.58628331 200 200 200
169.7752491 86.88464385 10.70500869 200 200 200
169.7713621 87.33005115 10.70500869 200 200 200
169.7713621 87.33005115 13.58628331 200 200 200
169.7749337 86.92079103 10.70500869 200 200 200
169.7745561 86.96406235 13.58628331 200 200 200
169.7743082 86.99246002 13.58628331 200 200 200
169.7738952 87.03978947 13.58628331 200 200 200
3 0 1 2
3 3 4 5
3 5 6 7
3 5 7 8
3 5 8 3
3 7 9 10
3 7 10 8
3 11 12 13
3 11 13 4
3 11 4 5
3 12 1 0
3 12 0 13
3 5 6 14
3 5 14 11
3 15 16 10
3 15 10 9
3 17 7 9
3 17 9 15
3 6 7 17
3 6 17 14
3 2 0 13
3 2 13 18
3 19 18 13
3 19 13 4
3 19 4 3
3 3 8 20
3 3 20 19
3 20 8 10
3 20 10 16
3 17 15 16
3 17 16 20
3 11 14 17
3 11 17 20
3 11 20 19
3 19 18 12
3 19 12 11
3 2 1 12
3 2 12 18

