ply
format ascii 1.0
element vertex 8
property float x
property float y
property float z
property uchar red
property uchar green
property uchar blue
element face 12
property list uchar int vertex_index
end_header
100.6887481 96.477 13.58752166 200 200 200
100.6887481 96.477 10.20155834 200 200 200
100.6887481 96.47700002 10.20155834 200 200 200
100.6887481 96.47700002 13.58752166 200 200 200
103.1656059 96.477 13.58752166 200 200 200
103.1656059 96.477 10.20155834 200 200 200
103.1656059 96.47700002 10.20155834 200 200 200
103.1656059 96.47700002 13.58752166 200 200 200
3 0 1 2
3 0 2 3
3 4 5 6
3 4 6 7
3 3 7 6
3 3 6 2
3 1 5 6
3 1 6 2
3 0 4 7
3 0 7 3
3 0 4 5
3 0 5 1

