ply
format ascii 1.0
element vertex 8
property float x
property float y
property float z
property uchar red
property uchar green
property uchar blue
element face 12
property list uchar int vertex_index
end_header
174.3049171 93.3596265 10.54133993 200 200 200
173.8489345 93.3556472 10.54133993 200 200 200
173.8450224 93.80393009 10.54133993 200 200 200
174.301005 93.80790939 10.54133993 200 200 200
173.8450224 93.80393009 13.58698607 200 200 200
173.8489345 93.3556472 13.58698607 200 200 200
174.3049171 93.3596265 13.58698607 200 200 200
174.301005 93.80790939 13.58698607 200 200 200
3 0 1 2
3 0 2 3
3 4 5 6
3 4 6 7
3 3 2 4
3 3 4 7
3 1 5 4
3 1 4 2
3 0 3 7
3 0 7 6
3 1 0 6
3 1 6 5

