ply
format ascii 1.0
element vertex 8
property float x
property float y
property float z
property uchar red
property uchar green
property uchar blue
element face 12
property list uchar int vertex_index
end_header
192.2175344 101.05974 13.58743289 200 200 200
190.2192415 101.05974 13.58743289 200 200 200
190.2018015 99.06132296 13.58743289 200 200 200
192.2000944 99.06132296 13.58743289 200 200 200
192.2052743 99.05609766 13.4378 200 200 200
190.2069814 99.05609766 13.4378 200 200 200
190.2244214 101.0545147 13.4378 200 200 200
192.2227142 101.0545147 13.4378 200 200 200
3 0 1 2
3 0 2 3
3 4 5 6
3 4 6 7
3 6 1 0
3 6 0 7
3 6 5 2
3 6 2 1
3 7 0 3
3 7 3 4
3 2 5 4
3 2 4 3

