ply
format ascii 1.0
element vertex 8
property float x
property float y
property float z
property uchar red
property uchar green
property uchar blue
element face 12
property list uchar int vertex_index
end_header
104.614 104.8454221 10.18576516 200 200 200
104.066 104.8454221 10.18576516 200 200 200
104.066 104.8454221 13.58736484 200 200 200
104.614 104.8454221 13.58736484 200 200 200
104.614 104.3646288 10.18576516 200 200 200
104.066 104.3550634 10.18576516 200 200 200
104.066 104.3550634 13.58736484 200 200 200
104.614 104.3646288 13.58736484 200 200 200
3 0 1 2
3 0 2 3
3 1 0 4
3 1 4 5
3 2 6 7
3 2 7 3
3 0 3 7
3 0 7 4
3 1 5 6
3 1 6 2
3 7 6 5
3 7 5 4

