ply
format ascii 1.0
element vertex 8
property float x
property float y
property float z
property uchar red
property uchar green
property uchar blue
element face 12
property list uchar int vertex_index
end_header
96.302278525 91.239613668 13.654199998 200 200 200
96.302278525 91.239613668 13.6542 200 200 200
96.302278525 94.213678332 13.6542 200 200 200
96.302278525 94.213678332 13.654199998 200 200 200
109.20311547 91.239613668 13.6542 200 200 200
109.20311547 91.239613668 13.654199998 200 200 200
109.20311547 94.213678332 13.654199998 200 200 200
109.20311547 94.213678332 13.6542 200 200 200
3 0 1 2
3 0 2 3
3 4 5 6
3 4 6 7
3 1 0 5
3 1 5 4
3 7 6 3
3 7 3 2
3 3 6 5
3 3 5 0
3 4 7 2
3 4 2 1

