ply
format ascii 1.0
element vertex 57
property float x
property float y
property float z
property uchar red
property uchar green
property uchar blue
element face 116
property list uchar int vertex_index
end_header
86.55196456 104.275752 10.19143624 200 200 200
86.55196456 104.2331312 10.19059393 200 200 200
86.55196456 104.1594596 10.18913798 200 200 200
86.55196456 104.1258828 10.18847441 200 200 200
86.55196456 104.0290781 10.18656128 200 200 200
86.55196456 104.0290781 10.18427805 200 200 200
86.55196456 104.4466698 10.18427805 200 200 200
86.55196456 104.4466698 10.19481405 200 200 200
86.55196456 104.2921536 10.19176038 200 200 200
86.55196456 104.4713659 10.18427805 200 200 200
86.55196456 104.4713659 10.19530211 200 200 200
86.55196456 104.4713659 13.58693395 200 200 200
86.55196456 104.4466698 13.58693395 200 200 200
86.98999444 104.4428472 12.17838224 200 200 200
86.98999444 104.4428472 10.20226363 200 200 200
86.98999444 104.4615783 10.20263381 200 200 200
86.98999444 104.0290781 10.19408641 200 200 200
86.98999444 104.0290781 10.18427805 200 200 200
86.98999444 104.4428472 10.18427805 200 200 200
86.98999444 104.4713659 10.20282724 200 200 200
86.98999444 104.4713659 10.90059409 200 200 200
86.98999444 104.445898 13.58693395 200 200 200
86.98999444 104.4428472 13.58693395 200 200 200
86.98999444 104.4713659 10.18427805 200 200 200
86.98999444 104.4661712 11.66518646 200 200 200
86.98999444 104.4469022 13.58693395 200 200 200
86.98999444 104.4713659 11.14709863 200 200 200
86.98999444 104.4661712 13.13571232 200 200 200
86.98999444 104.4609927 13.58693395 200 200 200
86.98999444 104.4661712 13.58693395 200 200 200
86.98999444 104.4713659 12.68307339 200 200 200
86.98999444 104.4713659 13.58693395 200 200 200
86.95665875 104.4713659 10.20225455 200 200 200
86.9732547 104.4713659 10.20253966 200 200 200
86.97440402 104.4713659 10.20255941 200 200 200
86.95485834 104.4309836 13.58693395 200 200 200
86.98288737 104.4428812 13.58693395 200 200 200
86.982936 104.4429088 13.58693395 200 200 200
86.96896364 104.4430307 13.58693395 200 200 200
86.98295187 104.4429086 13.58693395 200 200 200
86.95709432 104.4431343 13.58693395 200 200 200
86.94673137 104.4432247 10.20152786 200 200 200
86.92419719 104.4434214 10.22140549 200 200 200
86.98287354 104.4429093 13.58335474 200 200 200
86.92392763 104.4434237 10.20114003 200 200 200
86.95709432 104.4431343 12.40540405 200 200 200
86.94728632 104.4432199 11.95723925 200 200 200
86.95709432 104.4431343 12.69460173 200 200 200
86.92384347 104.4434245 10.2011386 200 200 200
86.90884882 104.4435553 10.20088359 200 200 200
86.77073104 104.3126414 10.19592357 200 200 200
86.90093796 104.4237977 10.20035722 200 200 200
86.85369071 104.4037539 10.19914941 200 200 200
86.96980298 104.469414 10.20244179 200 200 200
86.93912939 104.4564013 10.20165767 200 200 200
86.95028833 104.4383687 12.60335002 200 200 200
86.97617427 104.4564942 11.85048068 200 200 200
3 0 1 2
3 0 2 3
3 0 3 4
3 0 4 5
3 0 5 6
3 0 6 7
3 0 7 8
3 6 9 10
3 6 10 7
3 11 12 7
3 11 7 10
3 13 14 15
3 16 17 18
3 16 18 14
3 19 20 21
3 19 21 22
3 19 22 13
3 19 13 15
3 23 19 15
3 23 15 14
3 23 14 18
3 24 25 21
3 24 21 20
3 24 20 26
3 25 24 27
3 25 27 28
3 29 27 30
3 29 30 31
3 16 17 5
3 16 5 4
3 10 11 31
3 10 31 30
3 10 30 32
3 9 10 32
3 9 32 33
3 9 33 34
3 9 34 19
3 9 19 23
3 34 20 19
3 33 26 20
3 33 20 34
3 6 5 17
3 6 17 18
3 9 6 18
3 9 18 23
3 35 36 37
3 35 37 38
3 25 37 39
3 25 39 21
3 22 21 39
3 28 38 37
3 28 37 25
3 31 11 12
3 31 12 40
3 31 40 29
3 41 13 14
3 42 43 39
3 42 39 22
3 42 22 13
3 42 13 41
3 42 41 44
3 37 39 43
3 45 43 42
3 45 42 46
3 46 45 47
3 48 42 44
3 48 49 46
3 48 46 42
3 12 40 47
3 12 47 46
3 12 46 49
3 12 49 7
3 14 16 4
3 14 4 3
3 14 3 50
3 14 50 51
3 14 51 41
3 51 44 41
3 50 3 2
3 50 2 1
3 50 1 52
3 50 52 51
3 48 44 51
3 48 51 52
3 1 0 52
3 49 48 52
3 49 52 0
3 49 0 8
3 7 49 8
3 53 54 32
3 53 32 33
3 47 38 35
3 47 35 55
3 46 47 55
3 38 47 27
3 38 27 28
3 54 46 47
3 54 47 27
3 54 27 30
3 54 30 32
3 37 43 36
3 56 53 33
3 56 33 26
3 56 26 24
3 46 55 35
3 46 35 36
3 46 36 43
3 46 43 45
3 46 54 53
3 46 53 56
3 46 56 45
3 47 45 56
3 47 56 24
3 47 24 27
3 29 27 47
3 29 47 40

