ply
format ascii 1.0
element vertex 10
property float x
property float y
property float z
property uchar red
property uchar green
property uchar blue
element face 16
property list uchar int vertex_index
end_header
102.033 94.52470491 13.58774722 200 200 200
102.282 94.52470491 13.58774722 200 200 200
102.282 94.52470491 10.18612751 200 200 200
102.033 94.52470491 10.18737388 200 200 200
102.033 93.34066705 13.58774722 200 200 200
102.282 93.33632074 13.58774722 200 200 200
102.033 93.34066705 10.17890963 200 200 200
102.033 93.34066705 13.05141892 200 200 200
102.282 93.33632074 10.17763219 200 200 200
102.282 93.33632074 13.07217057 200 200 200
3 0 1 2
3 0 2 3
3 0 4 5
3 0 5 1
3 4 0 3
3 4 3 6
3 4 6 7
3 8 9 7
3 8 7 6
3 9 5 4
3 9 4 7
3 8 2 1
3 8 1 5
3 8 5 9
3 2 8 6
3 2 6 3

