ply
format ascii 1.0
element vertex 8
property float x
property float y
property float z
property uchar red
property uchar green
property uchar blue
element face 12
property list uchar int vertex_index
end_header
124.3873894 86.9147 12.2936063 200 200 200
124.3873894 86.91469998 12.2936063 200 200 200
124.3873894 86.91469998 11.8922577 200 200 200
124.3873894 86.9147 11.8922577 200 200 200
124.7858746 86.9147 12.2936063 200 200 200
124.7858746 86.91469998 12.2936063 200 200 200
124.7858746 86.91469998 11.8922577 200 200 200
124.7858746 86.9147 11.8922577 200 200 200
3 0 1 2
3 0 2 3
3 4 5 6
3 4 6 7
3 5 6 2
3 5 2 1
3 7 3 2
3 7 2 6
3 1 5 4
3 1 4 0
3 0 3 7
3 0 7 4

