ply
format ascii 1.0
element vertex 8
property float x
property float y
property float z
property uchar red
property uchar green
property uchar blue
element face 12
property list uchar int vertex_index
end_header
154.0658497 82.60000372 13.58617584 200 200 200
153.6157813 82.60000372 13.58617584 200 200 200
153.6157813 82.60000372 10.74826516 200 200 200
154.0658497 82.60000372 10.74826516 200 200 200
153.6128351 82.7687935 10.74826516 200 200 200
154.0627664 82.77664707 10.74826516 200 200 200
154.0627664 82.77664707 13.58617584 200 200 200
153.6128351 82.7687935 13.58617584 200 200 200
3 0 1 2
3 0 2 3
3 4 5 3
3 4 3 2
3 1 0 6
3 1 6 7
3 4 7 6
3 4 6 5
3 4 2 1
3 4 1 7
3 6 0 3
3 6 3 5

